<svg width="33" height="24" viewBox="0 0 33 24" fill="none" xmlns="http://www.w3.org/2000/svg">
<g clip-path="url(#clip0_523_6639)">
<mask id="mask0_523_6639" style="mask-type:luminance" maskUnits="userSpaceOnUse" x="0" y="0" width="33" height="24">
<path d="M0.5 0H32.5002V24H0.5V0Z" fill="white"/>
</mask>
<g mask="url(#mask0_523_6639)">
<path fill-rule="evenodd" clip-rule="evenodd" d="M-1.5 0H34.5V24H-1.5V0Z" fill="#199D00"/>
<path fill-rule="evenodd" clip-rule="evenodd" d="M7.5721 6.80306C7.53053 7.36373 7.4807 8.35045 7.95709 8.45166C8.53332 8.50706 8.21556 7.47637 8.42415 7.28948C8.46357 7.19714 8.53628 7.19667 8.54228 7.31315V8.18737C8.53703 8.47172 8.72392 8.55544 8.86909 8.61417C9.02021 8.6025 9.12109 8.60756 9.18029 8.75456L9.25117 10.2668C9.25117 10.2668 9.6016 10.3671 9.61829 9.4162C9.63503 8.85792 9.50673 8.39058 9.58196 8.28192C9.58459 8.17519 9.7209 8.16881 9.8154 8.22084C9.96606 8.32706 10.0331 8.45827 10.2672 8.40581C10.6234 8.30766 10.8375 8.13441 10.8428 7.86094C10.8219 7.60101 10.7928 7.34109 10.6802 7.08117C10.6959 7.03387 10.6114 6.91144 10.6271 6.86414C10.6911 6.96441 10.7885 6.95606 10.8107 6.86414C10.75 6.66441 10.656 6.47301 10.5035 6.39014C10.3775 6.27914 10.193 6.30183 10.1255 6.53339C10.0942 6.8002 10.2217 7.11722 10.416 7.37564C10.4572 7.47661 10.5152 7.64437 10.4897 7.79545C10.3863 7.85447 10.2829 7.82986 10.1963 7.73841C10.1963 7.73841 9.91281 7.52578 9.91281 7.47853C9.98804 6.99684 9.9295 6.94223 9.88782 6.80855C9.85867 6.624 9.7711 6.56484 9.70018 6.4388C9.62926 6.36361 9.53331 6.36361 9.48746 6.4388C9.36212 6.65606 9.42057 7.12237 9.51109 7.3313C9.57653 7.52339 9.67646 7.64395 9.62921 7.64395C9.59035 7.75251 9.50996 7.72744 9.45146 7.60214C9.36793 7.34316 9.3512 6.95672 9.3512 6.78276C9.32617 6.567 9.2986 6.10683 9.15662 5.98992C9.07 5.87198 8.9416 5.9295 8.89675 6.03717C8.88742 6.2513 8.88643 6.46537 8.91057 6.66272C9.00793 7.0088 9.03854 7.31316 9.08579 7.66758C9.09892 8.14233 8.81129 7.87355 8.82442 7.63819C8.89074 7.33247 8.87354 6.85125 8.81457 6.72928C8.76789 6.60731 8.71271 6.57722 8.59909 6.59728C8.50885 6.5918 8.27668 6.8453 8.21148 7.26581C8.21148 7.26581 8.15589 7.48228 8.13221 7.67447C8.10034 7.89164 7.95737 8.04492 7.85706 7.6439C7.77043 7.35248 7.71718 6.63497 7.57206 6.80301L7.5721 6.80306Z" fill="#F5EDE5"/>
<path fill-rule="evenodd" clip-rule="evenodd" d="M9.13816 9.10359C8.62966 9.35217 8.1379 9.58406 7.6377 9.82429C7.65598 9.48417 8.35109 8.8702 8.82509 8.86157C9.13362 8.8702 9.05609 8.98106 9.13816 9.10359Z" fill="#F5EDE5"/>
<path fill-rule="evenodd" clip-rule="evenodd" d="M8.8757 9.5737C8.08492 11.6121 10.7275 11.8962 11.0228 9.65718C11.0506 9.5653 11.162 9.47343 11.1815 9.62376C11.1203 11.651 9.1375 11.7903 8.80056 11.1525C8.71708 11.0022 8.69195 10.668 8.68361 10.4675C8.63345 10.0694 8.42467 10.2225 8.39125 10.6179C8.35778 10.8379 8.36617 10.8992 8.36617 11.1108C8.47197 12.712 11.0257 12.0242 11.4406 10.7015C11.6605 9.96904 11.4043 9.42885 11.524 9.43162C11.7775 9.70452 12.1311 9.46781 12.2091 9.37312C12.2425 9.32577 12.3261 9.29521 12.3846 9.35643C12.5822 9.49855 12.9304 9.43157 13.0028 9.18098C13.0446 8.93591 13.078 8.68251 13.0864 8.42081C12.9248 8.47096 12.8051 8.50429 12.794 8.57118L12.7606 8.78835C12.7467 8.85801 12.6073 8.86073 12.6018 8.77162C12.5406 8.49313 12.2872 8.45695 12.134 8.88862C12.0309 8.97215 11.8444 8.98888 11.8248 8.86359C11.8499 8.57395 11.7329 8.53495 11.4991 8.6714C11.4238 8.09774 11.3487 7.54921 11.2735 6.97551C11.371 6.9727 11.4601 7.04507 11.5493 6.9337C11.4517 6.63023 11.2457 6.00918 11.1314 5.9646C11.0757 5.89781 11.0283 5.93957 10.956 5.95626C10.8335 5.99526 10.7193 6.1011 10.7554 6.30716C10.9003 7.1871 10.995 7.85826 11.1398 8.73824C11.162 8.84127 11.0757 8.97763 10.9644 8.96371C10.775 8.83565 10.7278 8.57671 10.4047 8.58777C10.1707 8.59059 9.9033 8.84399 9.86997 9.08915C9.83097 9.28396 9.817 9.49556 9.86987 9.66552C10.0343 9.8632 10.232 9.84379 10.4046 9.79921C10.5467 9.74076 10.6636 9.59873 10.7137 9.6321C10.7472 9.67391 10.722 10.1416 10.0453 10.5009C9.63601 10.6847 9.31014 10.7265 9.13478 10.3923C9.02617 10.1834 9.14312 9.38981 8.8757 9.57365V9.5737Z" fill="#F5EDE5"/>
<path fill-rule="evenodd" clip-rule="evenodd" d="M12.2306 7.50151C12.3893 7.44301 13.1413 6.58257 13.1413 6.58257C13.1023 6.54915 13.0674 6.52407 13.0284 6.49065C12.9866 6.45446 12.9908 6.41828 13.0284 6.38204C13.215 6.27348 13.1551 6.03535 13.0577 5.92679C12.8962 5.85432 12.7555 5.87804 12.6525 5.93092C12.5216 6.05626 12.491 6.2567 12.5941 6.38204C12.6944 6.42939 12.7946 6.53106 12.7277 6.58675C12.4201 6.91534 11.5776 7.48206 11.6751 7.50151C11.6959 7.52935 12.2139 7.52795 12.2306 7.50151ZM7.68962 10.547C7.40762 10.9962 7.38305 11.6674 7.53868 11.8675C7.62137 11.9621 7.75721 12.0035 7.85771 11.9739C8.0349 11.897 8.11243 11.5381 8.07038 11.4067C8.01122 11.3142 7.96468 11.2995 7.90562 11.3783C7.78093 11.6314 7.72918 11.4577 7.71826 11.3162C7.69913 11.048 7.7244 10.8009 7.75351 10.6052C7.78454 10.4047 7.75304 10.466 7.68962 10.547ZM19.7404 9.82745C19.4678 9.24053 19.0903 8.66054 18.9702 8.43775C18.8501 8.21486 17.9434 6.89898 17.8099 6.751C17.5154 6.40098 18.2882 6.89678 17.7121 6.20181C17.4925 6.01337 17.4797 6.00189 17.2974 5.84814C17.2055 5.78289 16.9809 5.66368 16.9412 5.86126C16.9212 6.0355 16.932 6.12995 16.9612 6.27503C16.9837 6.37173 17.1246 6.53368 17.1938 6.62753C18.1138 7.86409 18.9295 9.11284 19.7161 10.6829C19.8403 10.6239 19.8131 9.92565 19.7405 9.82745H19.7404Z" fill="#F5EDE5"/>
<path fill-rule="evenodd" clip-rule="evenodd" d="M18.5435 11.7908C18.4898 11.851 18.6758 12.1084 18.9175 12.1082C19.3218 12.0613 19.6776 11.8342 20.0071 11.2365C20.0952 11.0971 20.2501 10.799 20.2546 10.5678C20.2854 9.2119 20.1868 8.15683 19.9836 7.17682C19.9706 7.08138 19.9785 6.96916 19.9947 6.94057C20.0209 6.9093 20.1096 6.94071 20.1567 6.86351C20.2258 6.79296 19.9732 6.20866 19.8292 5.98362C19.7781 5.88312 19.7603 5.81599 19.6757 5.99543C19.5867 6.14121 19.5269 6.39565 19.5339 6.6334C19.7267 7.96854 19.786 9.13647 19.912 10.4716C19.9223 10.6007 19.9033 10.7883 19.8174 10.8632C19.5 11.1947 19.0417 11.6027 18.5435 11.7908ZM24.0039 11.7838C23.7138 11.9515 23.7135 12.1443 23.948 12.1513C24.3523 12.1044 24.8299 12.0708 25.1593 11.5734C25.2475 11.434 25.3522 11.0571 25.3567 10.8258C25.3875 9.46999 25.339 8.45796 25.1359 7.47804C25.1229 7.38255 25.0806 7.16285 25.0968 7.13421C25.123 7.06708 25.2547 7.14152 25.3018 7.06427C25.3709 6.99377 24.9607 6.46676 24.8167 6.24171C24.7656 6.14126 24.7478 6.07413 24.6632 6.25352C24.5741 6.39935 24.543 6.66096 24.5787 6.89154C24.793 8.34129 24.9526 9.43043 24.9855 10.7154C24.967 10.8373 24.9624 10.9031 24.9052 11.0568C24.7787 11.2189 24.6386 11.4217 24.5071 11.5197C24.3757 11.6177 24.0953 11.7112 24.0039 11.7838V11.7838Z" fill="#F5EDE5"/>
<path fill-rule="evenodd" clip-rule="evenodd" d="M24.2209 10.484C24.2176 10.145 24.2257 9.85222 24.2145 9.59938C24.2034 9.34649 24.1587 9.14056 24.0712 8.96108C23.9884 8.76861 24.0398 8.61397 24.0009 8.40894C23.962 8.204 23.9716 7.89706 23.9128 7.65388C23.8968 7.55891 23.8474 7.25474 23.8627 7.22558C23.8866 7.1577 23.9778 7.22769 24.0223 7.14903C24.089 7.07628 23.7909 6.30491 23.6397 6.08464C23.5853 5.98588 23.4866 6.01972 23.3648 6.18027C23.2519 6.28597 23.2938 6.52695 23.3369 6.75617C23.6269 8.26981 23.8433 9.63983 23.7961 11.0807C23.7816 11.2033 24.2239 10.7153 24.2209 10.484ZM22.0778 8.6067C21.8953 8.60338 21.5132 8.25167 21.4017 8.04561C21.3596 7.92744 21.3866 7.81213 21.4237 7.74458C21.4913 7.70066 21.5952 7.6513 21.6729 7.69864C21.6729 7.69864 21.7535 7.81133 21.7379 7.82567C21.8375 7.87339 21.8798 7.84592 21.8899 7.80542C21.8967 7.73445 21.8605 7.69217 21.86 7.61403C21.9023 7.40216 22.1445 7.3692 22.2357 7.50435C22.3024 7.5867 22.3269 7.76178 22.337 7.87995C22.336 7.94033 22.2382 7.8695 22.1827 7.88403C22.1271 7.89856 22.1137 7.96269 22.1094 8.02067C22.0993 8.17433 22.0811 8.42089 22.0778 8.60666V8.6067ZM18.7107 10.86C18.761 10.3993 18.6922 9.57885 18.6876 9.30702C18.6691 8.66483 18.5643 7.42442 18.5143 7.21719C18.4581 6.82658 18.675 7.26003 18.6449 7.03297C18.5746 6.64292 18.3582 6.3785 18.1039 6.02122C18.0219 5.90497 18.0247 5.8813 17.8981 6.04972C17.7579 6.36753 17.8789 6.5862 17.9151 6.83375C18.0985 7.64028 18.2055 8.38236 18.2553 9.11595C18.3052 9.84955 18.3205 10.6428 18.275 11.4154C18.4124 11.4208 18.6334 11.1931 18.7107 10.86Z" fill="#F5EDE5"/>
<path fill-rule="evenodd" clip-rule="evenodd" d="M24.8423 10.1221C24.5206 9.58236 24.0351 8.99773 23.9054 8.78037C23.7758 8.56297 22.6789 7.14772 22.5391 7.00568C22.1379 6.58414 22.7231 6.93706 22.4623 6.61147C22.2416 6.36922 22.1773 6.29318 21.9885 6.1475C21.8938 6.08632 21.8364 5.96947 21.8053 6.16859C21.7929 6.34353 21.78 6.54593 21.7917 6.69336C21.7911 6.77534 21.8764 6.92932 21.9497 7.02007C22.9226 8.21539 23.9838 9.43587 24.838 10.9702C24.9596 10.9058 24.9191 10.2171 24.8423 10.1221Z" fill="#F5EDE5"/>
<path fill-rule="evenodd" clip-rule="evenodd" d="M10.2465 9.12598C10.2233 9.16657 10.1717 9.21917 10.189 9.27359C10.2251 9.32253 10.254 9.33246 10.3142 9.33514C10.3664 9.33514 10.4393 9.34746 10.455 9.31667C10.4832 9.28573 10.5045 9.2225 10.4811 9.16287C10.4267 9.02693 10.2749 9.07756 10.2465 9.12598Z" fill="#1BA400"/>
<path fill-rule="evenodd" clip-rule="evenodd" d="M21.1018 16.994C21.532 17.0099 21.8136 17.0137 22.1962 17.0592C22.1962 17.0592 22.5262 17.0266 22.644 17.0088C23.1421 16.9613 23.1641 17.7202 23.1641 17.7202C23.1587 18.1653 22.9869 18.1886 22.7676 18.2356C22.6423 18.2515 22.5764 18.1605 22.5106 18.0636C22.4279 18.0982 22.3156 18.1032 22.1794 18.0843C22.0001 18.0731 21.8209 18.0738 21.6416 18.0626C21.4511 18.0458 21.3499 18.0824 21.1594 18.0657C21.1201 18.1273 21.0691 18.2127 20.9526 18.1852C20.8557 18.1745 20.7409 17.9024 20.7747 17.6955C20.8447 17.5472 20.8255 17.5949 20.8181 17.5297C19.0592 17.4849 17.2833 17.4065 15.5578 17.429C14.2078 17.4345 12.8745 17.4905 11.5413 17.5466C10.8298 17.5354 10.2865 17.4233 9.91113 16.8743C9.94474 16.8743 11.7261 16.9752 12.2471 16.9415C13.2107 16.9303 14.0901 16.8519 15.0705 16.8239C17.0031 16.8575 18.9191 16.8575 20.8516 16.9919C20.6667 16.8655 20.6601 16.5667 20.9446 16.4937C20.9688 16.4771 20.9813 16.6422 21.0238 16.6392C21.2515 16.6221 21.1517 16.9304 21.1016 16.994L21.1018 16.994ZM13.3426 6.34123C13.0497 7.17837 13.5104 8.09408 13.8298 8.00492C14.0602 8.10031 14.2069 7.66194 14.3013 7.18166C14.3659 7.04684 14.4146 7.0325 14.4477 7.10178C14.4393 7.74045 14.4936 7.88192 14.6578 8.0758C15.0241 8.35841 15.3271 8.11189 15.3509 8.08808L15.6361 7.80289C15.6995 7.73609 15.7841 7.7322 15.8737 7.79103C15.9609 7.87025 15.9486 8.00703 16.1351 8.10191C16.2922 8.16472 16.6278 8.11644 16.7056 7.98116C16.8102 7.80181 16.8354 7.74022 16.8838 7.6722C16.9585 7.57278 17.0859 7.61698 17.0859 7.64839C17.074 7.70384 16.9992 7.75934 17.0502 7.85919C17.139 7.9258 17.1596 7.88295 17.2121 7.86814C17.3979 7.77931 17.5374 7.37511 17.5374 7.37511C17.5457 7.22473 17.4614 7.23716 17.4067 7.26814C17.3354 7.31173 17.3308 7.32566 17.2594 7.36925C17.1686 7.38275 16.9924 7.44298 16.9052 7.30808C16.8162 7.14584 16.815 6.91948 16.747 6.75589C16.747 6.74398 16.629 6.49817 16.7389 6.48242C16.7943 6.49273 16.9126 6.52405 16.9314 6.42444C16.9895 6.32731 16.8069 6.05234 16.6819 5.91345C16.5733 5.7943 16.423 5.77995 16.2778 5.90159C16.1762 5.99511 16.1908 6.09959 16.1708 6.19864C16.1449 6.31236 16.1505 6.45228 16.2659 6.6027C16.3674 6.80272 16.5525 7.06034 16.4917 7.42259C16.4917 7.42259 16.3836 7.59383 16.1952 7.57142C16.1166 7.55431 15.9893 7.52098 15.9213 7.01858C15.8698 6.63833 15.9334 6.10625 15.7721 5.85683C15.7137 5.70622 15.6712 5.56076 15.5291 5.81839C15.4909 5.91955 15.3271 6.07306 15.4459 6.38881C15.5432 6.58897 15.5827 6.91475 15.5386 7.27728C15.4713 7.38026 15.4563 7.41514 15.368 7.51817C15.244 7.65153 15.1093 7.6175 15.0063 7.56767C14.9099 7.50275 14.8345 7.46919 14.7905 7.26294C14.7985 6.9342 14.8168 6.39603 14.7567 6.28189C14.6681 6.10508 14.522 6.16901 14.4596 6.22245C14.1597 6.49662 14.0116 6.95923 13.9211 7.32762C13.8379 7.59608 13.7494 7.51916 13.6871 7.41083C13.5357 7.26889 13.5254 6.1588 13.3426 6.34133V6.34123Z" fill="#F5EDE5"/>
<path fill-rule="evenodd" clip-rule="evenodd" d="M14.2245 8.16105C14.3574 8.06684 14.2953 8.00102 14.4942 8.19987C14.7432 8.62559 14.9033 9.17698 14.9273 9.66546C14.9168 9.78584 15.0016 9.86201 15.0404 9.83585C15.0635 9.55324 15.7507 9.15949 16.3808 9.10193C16.4772 9.08098 16.4303 8.89629 16.446 8.80212C16.4083 8.45229 16.6426 8.13377 16.9711 8.10837C17.4182 8.17446 17.5671 8.41315 17.5746 8.77751C17.5263 9.47698 16.7977 9.59557 16.3883 9.65135C16.3254 9.67512 16.2993 9.70409 16.3883 9.73835L18.1036 9.74613L18.1912 9.79666C18.2017 9.83759 18.1662 9.80346 18.0984 9.91498C18.0308 10.0265 17.9309 10.2836 17.9257 10.4554C17.4146 10.6197 16.886 10.6917 16.3487 10.7567C16.1621 10.8511 16.0695 10.9768 16.1079 11.1184C16.1707 11.2754 16.5841 11.4323 16.5841 11.4397C16.6627 11.4889 16.7556 11.6039 16.5619 11.8393C15.7252 11.8025 15.0768 11.4464 14.8523 10.9438C14.7847 10.8914 14.7118 10.9436 14.6651 11.0115C14.3385 11.4326 14.017 11.8118 13.4601 12.0131C13.1279 12.0961 12.7879 11.9622 12.6273 11.7447C12.5198 11.6209 12.5239 11.4842 12.4845 11.4546C12.3049 11.534 10.7602 12.1904 10.956 11.8846C11.3319 11.4822 11.9828 11.1866 12.5576 10.7895C12.5991 10.6564 12.6745 10.2063 12.9015 10.0596C12.9147 10.0607 12.8656 10.324 12.8705 10.435C12.8731 10.5261 12.8638 10.5619 12.8838 10.5384C12.9225 10.5137 13.62 9.9656 13.674 9.79755C13.7419 9.70118 13.6943 9.4571 13.6943 9.44969C13.5636 9.11257 13.38 9.08393 13.312 8.91644C13.2508 8.69393 13.2785 8.43996 13.4057 8.36918C13.5187 8.26666 13.6524 8.27932 13.7758 8.39135C13.9167 8.51754 14.0418 8.76415 14.078 8.94785C14.0538 9.02051 13.8936 8.89957 13.8381 8.93566C13.9364 9.03748 13.9823 9.15494 14.0178 9.29866C14.1087 9.68346 14.081 9.83304 13.9895 10.0819C13.6799 10.7329 13.2841 10.9272 12.9378 11.1685C12.9286 11.1717 12.9225 11.3337 13.0527 11.4213C13.0976 11.4684 13.2782 11.4926 13.4906 11.4245C13.901 11.2008 14.327 10.7885 14.5385 10.3292C14.5999 9.98182 14.5148 9.61343 14.4244 9.29215C14.2883 8.97818 14.128 8.52987 14.128 8.52246C14.1227 8.32666 14.1387 8.25874 14.2245 8.16105H14.2245ZM9.73336 6.35027C9.9308 6.44444 10.302 6.40437 10.2863 6.08599C10.2863 6.05787 10.2791 5.96262 10.2763 5.93679C10.236 5.84294 10.1261 5.86615 10.1011 5.96304C10.0933 5.99477 10.1151 6.04648 10.0864 6.06241C10.0699 6.07905 10.0068 6.06926 10.0094 5.98132C10.0094 5.95329 9.98878 5.92319 9.97631 5.90538C9.96384 5.89723 9.95592 5.89498 9.93333 5.89498C9.90577 5.89605 9.90624 5.90323 9.89114 5.92638C9.88472 5.94991 9.87591 5.97293 9.87591 5.99965C9.87244 6.03096 9.86063 6.04212 9.83761 6.04676C9.81188 6.04676 9.81769 6.04957 9.79683 6.0363C9.78445 6.02271 9.76899 6.01755 9.76899 5.99444C9.76899 5.97049 9.76355 5.93173 9.75633 5.91593C9.74541 5.90149 9.72783 5.89483 9.70805 5.88973C9.60024 5.8901 9.59274 6.0131 9.59897 6.05979C9.59086 6.0686 9.58631 6.28924 9.73336 6.35027Z" fill="#F5EDE5"/>
<path fill-rule="evenodd" clip-rule="evenodd" d="M15.5205 8.79984C15.7179 8.89401 16.1879 8.83983 16.0734 8.53556C16.0734 8.50744 16.0662 8.41214 16.0634 8.38636C16.0231 8.29252 15.9132 8.31572 15.8883 8.41261C15.8804 8.44434 15.9022 8.49605 15.8735 8.51198C15.857 8.52862 15.7939 8.51883 15.7965 8.43089C15.7965 8.40286 15.7759 8.37277 15.7634 8.35495C15.751 8.3468 15.743 8.34455 15.7204 8.34455C15.6929 8.34562 15.6933 8.3528 15.6783 8.37595C15.6718 8.39948 15.663 8.4225 15.663 8.44922C15.6595 8.48053 15.6477 8.49169 15.6247 8.49633C15.599 8.49633 15.6048 8.49914 15.5839 8.48587C15.5716 8.47228 15.5561 8.46712 15.5561 8.44402C15.5561 8.42006 15.5507 8.3813 15.5434 8.3655C15.5325 8.35106 15.5149 8.34441 15.4952 8.3393C15.3873 8.33967 15.3798 8.46267 15.3861 8.50936C15.378 8.51817 15.3734 8.73881 15.5205 8.79984ZM18.8955 7.78594C19.0929 7.88011 19.4641 7.84003 19.4484 7.52166C19.4484 7.49353 19.4412 7.39828 19.4384 7.37245C19.3981 7.27861 19.2882 7.30181 19.2633 7.3987C19.2554 7.43044 19.2772 7.48214 19.2485 7.49808C19.232 7.51472 19.1689 7.50492 19.1715 7.41698C19.1715 7.38895 19.1509 7.35886 19.1384 7.34105C19.126 7.33289 19.118 7.33064 19.0954 7.33064C19.0679 7.33172 19.0683 7.33889 19.0533 7.36205C19.0468 7.38558 19.038 7.40859 19.038 7.43531C19.0345 7.46662 19.0227 7.47778 18.9997 7.48242C18.974 7.48242 18.9798 7.48523 18.9589 7.47197C18.9466 7.45837 18.931 7.45322 18.931 7.43011C18.931 7.40616 18.9257 7.36739 18.9184 7.35159C18.9075 7.33716 18.8899 7.3305 18.8702 7.32539C18.7623 7.32576 18.7548 7.44877 18.7611 7.49545C18.753 7.50427 18.7484 7.72491 18.8955 7.78594ZM20.6434 10.3327C20.2994 10.7205 20.4511 11.3618 20.5288 11.5C20.6422 11.727 20.7336 11.8725 20.9543 11.9848C21.1554 12.1327 21.3121 12.0403 21.3984 11.9366C21.6008 11.727 21.6032 11.1916 21.6981 11.0855C21.7648 10.8907 21.9325 10.9239 22.0139 11.0103C22.0928 11.1237 22.1858 11.1968 22.3017 11.2586C22.4904 11.4251 22.7158 11.4555 22.9378 11.3038C23.0895 11.2187 23.1881 11.1087 23.277 10.8904C23.3757 10.6265 23.3207 9.40692 23.3009 8.68411C23.2933 8.62739 23.1048 7.69012 23.1048 7.67967C23.1048 7.66917 23.0799 7.20131 23.0591 7.08984C23.0555 7.04461 23.0443 7.03162 23.0917 7.03734C23.142 7.07967 23.1489 7.08234 23.1803 7.09626C23.231 7.10555 23.2764 7.01916 23.2458 6.9397L22.7748 6.07097C22.737 6.03375 22.6882 5.99287 22.6282 6.08147C22.5709 6.13167 22.51 6.22256 22.5118 6.33942C22.5258 6.5453 22.562 6.75473 22.5759 6.96066L22.7643 8.01778C22.8236 8.77134 22.8385 9.38808 22.8978 10.1416C22.8895 10.4607 22.7903 10.7389 22.6973 10.779C22.6973 10.779 22.5557 10.8611 22.4608 10.7705C22.3917 10.7428 22.1154 10.3099 22.1154 10.3099C21.9741 10.1804 21.881 10.2174 21.7804 10.3099C21.5032 10.5776 21.3778 11.0784 21.1894 11.4238C21.1408 11.5009 21.0035 11.5669 20.8514 11.4182C20.4651 10.8905 20.6915 10.1396 20.6434 10.3327ZM18.9841 5.93766C19.1609 6.01172 19.2857 6.36998 19.245 6.54492C19.2098 6.76134 19.116 6.99506 19.0486 6.96464C18.9753 6.93745 19.0985 6.74948 19.0281 6.55233C18.9889 6.42398 18.7476 6.18947 18.773 6.12033C18.7232 5.97548 18.8756 5.91211 18.9841 5.93766Z" fill="#F5EDE5"/>
<path fill-rule="evenodd" clip-rule="evenodd" d="M21.2128 10.5451C21.25 10.1148 21.1872 9.85248 21.176 9.59959C21.1649 9.34669 20.89 7.41713 20.8343 7.22579C20.767 6.86401 21.1015 7.17727 21.0649 6.96685C20.9492 6.70154 20.6613 6.31529 20.5708 6.08485C20.5165 5.98613 20.5393 5.89829 20.4175 6.05888C20.3046 6.42807 20.2654 6.72985 20.3085 6.95912C20.5985 8.47271 20.896 9.7313 20.8488 11.1722C20.9863 11.1731 21.1449 10.8574 21.2128 10.5451ZM24.2348 6.5476C24.3961 6.62776 24.4905 7.07677 24.4727 7.20507C24.4407 7.4394 24.3551 7.69243 24.2937 7.65948C24.2268 7.63004 24.307 7.31199 24.2749 7.21308C24.2393 7.07415 24.0192 6.82027 24.0424 6.74541C23.9969 6.58862 24.1359 6.51999 24.2348 6.5476ZM12.2503 9.73135C12.4045 9.79023 12.495 10.1202 12.4779 10.2145C12.4472 10.3866 12.3653 10.5726 12.3065 10.5484C12.2426 10.5267 12.3194 10.293 12.2887 10.2204C12.2757 10.0441 12.0616 9.95284 12.066 9.87671C12.0261 9.73674 12.1556 9.71096 12.2503 9.73135Z" fill="#F5EDE5"/>
<path fill-rule="evenodd" clip-rule="evenodd" d="M15.978 10.2266C16.177 10.2393 16.2766 10.3955 16.09 10.461C15.9061 10.5239 15.7293 10.5732 15.7285 10.839C15.7966 11.2094 15.6352 11.0823 15.5389 11.032C15.4255 10.9506 15.1073 10.7545 15.0619 10.3312C15.0551 10.2302 15.1339 10.1451 15.2607 10.1458C15.4517 10.1976 15.7335 10.2014 15.9779 10.2266H15.978Z" fill="#1B9D00"/>
<path fill-rule="evenodd" clip-rule="evenodd" d="M8.12837 5.83054C8.35595 5.89917 8.3694 6.23367 8.35262 6.33145C8.32229 6.50995 8.24167 6.7027 8.18378 6.67757C8.12078 6.65517 8.18129 6.41287 8.15106 6.33749C8.11731 6.23165 7.92503 6.03824 7.94682 5.98124C7.90403 5.86176 8.03509 5.80945 8.12837 5.83054ZM12.6228 7.40742C12.4482 7.50187 12.3804 7.78335 12.4892 7.94732C12.5907 8.0917 12.7511 8.03817 12.7725 8.03817C12.9436 8.05959 13.045 7.71745 13.045 7.71745C13.045 7.71745 13.0504 7.62126 12.8473 7.80304C12.7618 7.81907 12.7511 7.78696 12.7297 7.73882C12.7119 7.64976 12.7155 7.5607 12.7564 7.47159C12.7867 7.38609 12.7208 7.34863 12.6228 7.40742ZM13.9325 5.70117C13.8447 5.75999 13.6701 5.94093 13.6647 6.14943C13.6594 6.26704 13.6375 6.26667 13.7145 6.34153C13.7702 6.42178 13.8263 6.41456 13.9386 6.35573C14.0031 6.3082 14.0249 6.27665 14.0466 6.19696C14.0733 6.06337 13.9053 6.26034 13.884 6.11165C13.8466 5.97356 13.9545 5.91703 14.056 5.78343C14.0594 5.69188 14.0574 5.62706 13.9325 5.70117ZM14.9876 5.88867C14.9498 5.9722 14.9045 6.40865 14.912 6.40865C14.8818 6.53868 15.0481 6.59432 15.1237 6.42717C15.2371 6.12074 15.2371 5.99076 15.2447 5.86073C15.2094 5.66273 15.0759 5.66892 14.9876 5.88867ZM21.6401 9.27398C21.6628 9.25129 22.5775 8.60118 22.5775 8.60118C22.6708 8.56842 22.6506 8.93634 22.6078 8.93381C22.6254 9.00684 21.7057 9.63177 21.6401 9.6066C21.5948 9.63937 21.5494 9.35465 21.6401 9.27398H21.6401ZM22.474 9.26835C22.6353 9.34851 22.6995 9.82021 22.6817 9.94851C22.6874 10.198 22.5263 10.398 22.4648 10.3651C22.398 10.3357 22.4707 10.0554 22.4386 9.95652C22.4029 9.81759 22.266 9.55612 22.2891 9.48126C22.2437 9.32446 22.3751 9.24074 22.474 9.26835ZM17.0333 11.2999C17.0969 11.2069 17.2934 11.0731 17.2979 11.0731C17.3885 11.0277 17.4771 11.1087 17.4718 11.1033C17.4868 11.1941 17.4144 11.2785 17.4371 11.3995C17.4569 11.4482 17.4714 11.5024 17.5607 11.4817C17.706 11.3675 17.8406 11.3601 17.9858 11.3528C18.0971 11.3595 18.1015 11.548 18.0311 11.5494C17.763 11.6076 17.6428 11.6795 17.4513 11.7525C17.3605 11.8055 17.2827 11.7383 17.2827 11.7308C17.2827 11.7232 17.2297 11.6793 17.2667 11.5591C17.2733 11.4628 17.2345 11.4099 17.1542 11.4209C17.0937 11.4536 17.0405 11.4752 17.0102 11.4057C16.9983 11.3544 16.9945 11.3294 17.0333 11.2999ZM23.4364 11.554C23.4756 11.6039 23.5009 11.65 23.4333 11.732C23.3691 11.7907 23.3239 11.8231 23.2598 11.8819C23.2295 11.9336 23.2101 12.0119 23.3027 12.0369C23.4738 12.085 23.8694 11.8284 23.8694 11.8231C23.9335 11.775 23.9122 11.6841 23.9068 11.6841C23.8694 11.6414 23.7851 11.6668 23.7284 11.6598C23.7014 11.6598 23.6129 11.6464 23.655 11.568C23.6902 11.5193 23.7028 11.4894 23.7266 11.4293C23.7534 11.3706 23.7304 11.3314 23.6342 11.2993C23.5362 11.2814 23.497 11.2904 23.3883 11.2993C23.3295 11.3117 23.3095 11.338 23.2988 11.4093C23.303 11.5174 23.3687 11.5112 23.4364 11.554Z" fill="#F5EDE5"/>
<path fill-rule="evenodd" clip-rule="evenodd" d="M17.0681 8.8942C17.043 8.93756 16.9582 8.93545 16.8787 8.88951C16.7992 8.84357 16.7551 8.77106 16.7802 8.72765C16.8052 8.68424 16.89 8.6864 16.9695 8.73243C17.049 8.77846 17.0932 8.85084 17.0681 8.8942ZM12.8929 6.38198C12.8453 6.3936 12.7832 6.35123 12.7541 6.28734C12.725 6.22345 12.74 6.16223 12.7875 6.1506C12.835 6.13898 12.8971 6.18131 12.9262 6.2452C12.9553 6.30909 12.9404 6.37035 12.8929 6.38198Z" fill="#259F00"/>
<path fill-rule="evenodd" clip-rule="evenodd" d="M21.1521 17.5767C21.5904 17.598 22.0023 17.5816 22.4406 17.6031C22.52 17.6706 22.4633 17.8363 22.4103 17.8244C22.2678 17.8208 22.1857 17.8173 22.0432 17.8137C22.0383 17.6741 21.682 17.6969 21.6922 17.8181C21.4998 17.8413 21.3263 17.8114 21.1338 17.8043C21.0769 17.7335 21.0843 17.6059 21.1521 17.5767H21.1521Z" fill="#209000"/>
</g>
</g>
<defs>
<clipPath id="clip0_523_6639">
<rect x="0.5" width="32" height="24" rx="2" fill="white"/>
</clipPath>
</defs>
</svg>
