<svg width="60" height="41" viewBox="0 0 60 41" fill="none" xmlns="http://www.w3.org/2000/svg">
<rect y="0.5" width="60" height="40" rx="20" fill="#F5F5F5"/>
<path d="M31.5253 12.806C31.5508 12.7108 31.5947 12.6216 31.6547 12.5434C31.7147 12.4652 31.7894 12.3996 31.8748 12.3503C31.9601 12.301 32.0543 12.2691 32.152 12.2562C32.2496 12.2433 32.3489 12.2499 32.4441 12.2754C33.8344 12.6381 35.103 13.365 36.119 14.381C37.1351 15.3971 37.8619 16.6656 38.2247 18.056C38.2502 18.1512 38.2567 18.2504 38.2439 18.3481C38.231 18.4458 38.199 18.54 38.1497 18.6253C38.1005 18.7106 38.0349 18.7854 37.9567 18.8454C37.8785 18.9053 37.7893 18.9493 37.6941 18.9747C37.6307 18.9914 37.5655 18.9999 37.5 19.0001C37.3347 19.0001 37.1741 18.9455 37.043 18.8448C36.912 18.744 36.8179 18.6029 36.7753 18.4432C36.4795 17.3082 35.8863 16.2726 35.0569 15.4432C34.2275 14.6138 33.1919 14.0206 32.0569 13.7247C31.9616 13.6994 31.8723 13.6555 31.794 13.5956C31.7157 13.5357 31.65 13.4609 31.6006 13.3756C31.5513 13.2902 31.5192 13.196 31.5063 13.0983C31.4933 13.0005 31.4998 12.9012 31.5253 12.806ZM31.3069 16.7247C32.5997 17.0697 33.4303 17.9004 33.7753 19.1932C33.8179 19.3529 33.912 19.494 34.043 19.5948C34.1741 19.6955 34.3347 19.75 34.5 19.7501C34.5655 19.7499 34.6307 19.7414 34.6941 19.7247C34.7893 19.6993 34.8785 19.6553 34.9567 19.5954C35.0349 19.5354 35.1005 19.4606 35.1497 19.3753C35.199 19.29 35.231 19.1958 35.2439 19.0981C35.2567 19.0004 35.2502 18.9012 35.2247 18.806C34.7447 17.0097 33.4903 15.7554 31.6941 15.2754C31.5019 15.224 31.2971 15.2511 31.1249 15.3507C30.9527 15.4503 30.8271 15.6143 30.7758 15.8065C30.7244 15.9987 30.7516 16.2034 30.8512 16.3756C30.9508 16.5478 31.1147 16.6734 31.3069 16.7247ZM38.9888 25.6638C38.8216 26.9341 38.1977 28.1002 37.2337 28.9442C36.2696 29.7882 35.0313 30.2523 33.75 30.2501C26.3063 30.2501 20.25 24.1938 20.25 16.7501C20.2477 15.4688 20.7119 14.2305 21.5559 13.2664C22.3999 12.3023 23.5659 11.6785 24.8363 11.5113C25.1575 11.4721 25.4828 11.5378 25.7636 11.6987C26.0444 11.8595 26.2657 12.1069 26.3944 12.4038L28.3744 16.8241V16.8354C28.4729 17.0627 28.5136 17.3108 28.4928 17.5577C28.472 17.8045 28.3904 18.0424 28.2553 18.2501C28.2384 18.2754 28.2206 18.2988 28.2019 18.3222L26.25 20.636C26.9522 22.0629 28.4447 23.5422 29.8903 24.2463L32.1722 22.3047C32.1946 22.2859 32.2181 22.2684 32.2425 22.2522C32.45 22.1139 32.6887 22.0294 32.937 22.0065C33.1853 21.9836 33.4354 22.0229 33.6647 22.121L33.6769 22.1266L38.0934 24.1057C38.3909 24.2339 38.6389 24.455 38.8003 24.7358C38.9616 25.0167 39.0278 25.3422 38.9888 25.6638ZM37.5 25.4763C37.5 25.4763 37.4934 25.4763 37.4897 25.4763L33.0834 23.5029L30.8006 25.4444C30.7785 25.4632 30.7553 25.4807 30.7313 25.4969C30.5154 25.6409 30.2659 25.7265 30.0071 25.7452C29.7483 25.7639 29.489 25.7152 29.2547 25.6038C27.4988 24.7554 25.7484 23.0182 24.8991 21.281C24.7866 21.0484 24.7361 20.7906 24.7526 20.5327C24.769 20.2749 24.8517 20.0256 24.9928 19.8091C25.0087 19.7837 25.0266 19.7596 25.0463 19.7369L27 17.4204L25.0313 13.0141C25.0309 13.0104 25.0309 13.0066 25.0313 13.0029C24.1221 13.1215 23.2874 13.5674 22.6834 14.2572C22.0794 14.9469 21.7476 15.8332 21.75 16.7501C21.7535 19.9316 23.0189 22.9818 25.2686 25.2315C27.5182 27.4812 30.5685 28.7466 33.75 28.7501C34.6663 28.7532 35.5523 28.4225 36.2425 27.8198C36.9327 27.2171 37.3797 26.3837 37.5 25.4754V25.4763Z" fill="black"/>
</svg>
