<svg width="48" height="30" viewBox="0 0 48 30" fill="none" xmlns="http://www.w3.org/2000/svg">
<g clip-path="url(#clip0_7_1270)">
<path d="M45.4935 9.67557C45.6664 9.87543 45.7412 10.1657 45.7303 10.4444C45.7194 10.7231 45.6296 10.9919 45.5098 11.2362C45.2784 11.7095 44.8448 12.0939 44.4303 12.3657C44.192 11.8297 44.3391 11.1535 44.433 10.8166C44.5814 10.2836 45.1368 9.42056 45.4935 9.67557Z" fill="#EBEBEB"/>
<path d="M44.563 13.385C44.6059 13.0772 44.8223 12.8176 45.0837 12.7142C45.3451 12.6108 45.6418 12.6537 45.8896 12.7931C46.0039 12.8582 46.1176 12.9554 46.1455 13.0963C46.1714 13.228 46.1122 13.3674 46.0203 13.4539C45.9284 13.5405 45.81 13.5818 45.6915 13.6048C45.2865 13.6837 44.8822 13.676 44.563 13.385Z" fill="#EBEBEB"/>
<path d="M43.5309 14.6861C43.5289 14.6845 43.5473 14.6508 43.5813 14.5903C43.6194 14.5237 43.6677 14.4387 43.7269 14.3353C43.8522 14.124 44.0251 13.8184 44.3014 13.5719C44.575 13.3253 44.8807 13.1913 45.108 13.1599C45.2217 13.1423 45.3149 13.1438 45.3782 13.1514C45.4102 13.1537 45.4347 13.1606 45.4511 13.1629C45.4674 13.166 45.4762 13.1691 45.4762 13.1698C45.4762 13.179 45.3347 13.1453 45.1114 13.1867C44.8888 13.2242 44.5914 13.359 44.3225 13.6017C44.0523 13.8429 43.8774 14.1424 43.7467 14.3499C43.682 14.4548 43.6296 14.5398 43.5922 14.598C43.5547 14.6562 43.533 14.6876 43.5309 14.6861Z" fill="#E0E0E0"/>
<path d="M45.1225 10.3747C45.1239 10.3754 45.1198 10.3915 45.1109 10.4214C45.1007 10.4551 45.0871 10.4987 45.0708 10.5523C45.0354 10.6657 44.9823 10.8295 44.9156 11.0309C44.7815 11.4337 44.5902 11.9874 44.3663 12.5931C44.1424 13.1988 43.928 13.7425 43.7687 14.1331C43.689 14.3284 43.623 14.4861 43.5767 14.5941C43.5543 14.6454 43.5366 14.686 43.5223 14.7181C43.5093 14.7465 43.5025 14.761 43.5012 14.7603C43.4998 14.7595 43.5053 14.7442 43.5162 14.7151C43.5284 14.6821 43.5447 14.64 43.5645 14.588C43.6094 14.4731 43.6714 14.3153 43.7469 14.1216C43.9007 13.728 44.1111 13.1835 44.335 12.5778C44.5589 11.9721 44.7543 11.4207 44.8938 11.0202C44.9626 10.8234 45.0184 10.6626 45.0592 10.5462C45.0783 10.4934 45.0932 10.4512 45.1055 10.4175C45.115 10.3892 45.1212 10.3739 45.1225 10.3747Z" fill="#E0E0E0"/>
<path d="M43.81 13.3896C43.9448 12.7502 43.7835 12.0411 43.3921 11.5533C43.2927 11.4292 43.1464 11.3105 43.0062 11.3672C42.866 11.4239 42.8203 11.6214 42.8176 11.7892C42.8061 12.4868 43.2097 13.1691 43.7855 13.4264" fill="#EBEBEB"/>
<path d="M43.2805 12.0518C43.2825 12.0503 43.305 12.0771 43.3452 12.1269C43.3656 12.1521 43.3901 12.1828 43.4146 12.2211C43.4391 12.2601 43.4711 12.3015 43.499 12.3535C43.5276 12.4048 43.5603 12.46 43.5888 12.5235C43.6202 12.5856 43.6474 12.6553 43.6753 12.7288C43.7277 12.8773 43.774 13.0466 43.7992 13.2288C43.823 13.4118 43.8237 13.5887 43.8114 13.748C43.8033 13.8277 43.7951 13.9027 43.7808 13.9724C43.7699 14.0428 43.7522 14.1056 43.7372 14.1638C43.7236 14.222 43.7032 14.2718 43.6882 14.317C43.6739 14.3622 43.6576 14.3989 43.644 14.4288C43.6174 14.4893 43.6018 14.5214 43.5991 14.5207C43.5922 14.5168 43.6549 14.3851 43.7134 14.1554C43.727 14.098 43.7427 14.0352 43.7522 13.9655C43.7658 13.8973 43.7719 13.8223 43.7794 13.7442C43.7896 13.5872 43.7883 13.4134 43.7645 13.2342C43.74 13.055 43.6957 12.888 43.6453 12.7418C43.6188 12.669 43.5929 12.6001 43.563 12.5381C43.5364 12.4745 43.5051 12.4194 43.4779 12.3681C43.3656 12.1667 43.2751 12.0572 43.2805 12.0518Z" fill="#E0E0E0"/>
<path d="M3.19713 4.90252C3.19713 4.90252 2.57093 5.12996 3.17808 6.64007C3.78522 8.15094 4.21812 8.90523 4.21812 8.90523C4.21812 8.90523 4.32226 9.25366 4.06429 9.29348C3.80564 9.3333 3.24614 9.20235 3.11682 9.54848C2.98341 9.90839 3.20462 10.266 3.67155 10.5938C4.1378 10.9215 5.13633 11.6827 5.22618 11.7524C5.31466 11.8205 5.39907 11.9844 5.22686 12.0434C5.05465 12.1023 3.7791 12.1843 3.84989 12.8628C3.92067 13.5412 5.35346 14.2151 5.50865 14.2925C5.66384 14.3698 5.69856 14.4471 5.68154 14.5436C5.66452 14.6409 5.23367 14.6225 4.87156 14.6631C4.50944 14.7029 4.09628 14.8208 4.16639 15.2083C4.2365 15.5958 5.06622 16.4466 7.15244 16.7881L8.12851 16.8754L8.69958 15.9741C9.81654 13.9616 9.77638 12.7004 9.55857 12.3895C9.34076 12.0786 8.99363 12.3573 8.73293 12.6422C8.47156 12.9271 8.20542 13.3084 8.12851 13.2602C8.0516 13.2119 8.02165 13.1323 8.06997 12.9493C8.1183 12.7663 8.58727 11.1007 8.17275 10.6014C7.75823 10.1021 6.87814 11.1436 6.72703 11.2539C6.57593 11.3634 6.51943 11.1849 6.53032 11.0655C6.54189 10.9437 6.67122 9.59443 6.75017 8.98257C6.82913 8.36995 6.72975 7.94877 6.39964 7.83085C6.08109 7.71751 5.80814 8.28265 5.61415 8.47869C5.42017 8.67473 5.25136 8.36 5.25136 8.36C5.25136 8.36 5.01926 7.50003 4.38761 6.00217C3.75596 4.50432 3.18488 4.90788 3.18488 4.90788" fill="#EBEBEB"/>
<path d="M8.1685 17.1374C7.70837 16.0354 6.92017 14.0605 6.23543 12.3697C5.55068 10.6788 4.92992 9.1488 4.47456 8.04455C4.24722 7.4932 4.06276 7.04675 3.93412 6.73661C3.87082 6.58346 3.82181 6.46323 3.78778 6.38129C3.77144 6.34147 3.75919 6.31084 3.75034 6.28863C3.74217 6.26796 3.73877 6.25647 3.73877 6.25647C3.73877 6.25647 3.74421 6.26642 3.75306 6.2871C3.76259 6.30854 3.77621 6.33917 3.79322 6.37823C3.82862 6.46017 3.87967 6.57886 3.94501 6.73125C4.07638 7.03756 4.26424 7.48324 4.49362 8.0346C4.95375 9.13655 5.57791 10.665 6.26265 12.3559C6.9474 14.0467 7.73288 16.0232 8.18756 17.1274" fill="#E0E0E0"/>
<path d="M3.89406 9.76829C3.89474 9.76599 3.91856 9.77518 3.96144 9.79356C4.00432 9.81117 4.0649 9.83951 4.13978 9.87473C4.28952 9.94595 4.4944 10.0501 4.71902 10.1696C4.93955 10.2883 5.13966 10.3955 5.29213 10.4774C5.36088 10.5142 5.41942 10.5448 5.46638 10.5693C5.5079 10.5907 5.52968 10.6038 5.529 10.606C5.52832 10.6083 5.5045 10.5992 5.46162 10.5815C5.41873 10.5632 5.35816 10.5356 5.28328 10.4988C5.13422 10.4261 4.93002 10.3189 4.70608 10.1994C4.48487 10.0823 4.28476 9.97658 4.13161 9.89618C4.06218 9.86018 4.00364 9.82955 3.95668 9.80505C3.91584 9.78361 3.89338 9.77059 3.89406 9.76829Z" fill="#E0E0E0"/>
<path d="M5.59936 10.5394C5.59187 10.5356 5.7634 10.0509 5.98393 9.45662C6.20378 8.86238 6.38892 8.38377 6.39641 8.3876C6.4039 8.39142 6.23237 8.87616 6.01184 9.4704C5.7913 10.0639 5.60684 10.5425 5.59936 10.5394Z" fill="#E0E0E0"/>
<path d="M6.54598 13.1889C6.54462 13.1874 6.5596 13.1637 6.58887 13.1231C6.62222 13.0771 6.66306 13.0189 6.71206 12.9508C6.8162 12.8053 6.95846 12.6039 7.10889 12.3749C7.25931 12.146 7.38932 11.9338 7.48257 11.7799C7.52613 11.7072 7.56357 11.6459 7.59284 11.5969C7.61938 11.554 7.63436 11.5303 7.6364 11.5318C7.63844 11.5333 7.62619 11.5586 7.60305 11.6038C7.5799 11.649 7.54519 11.7141 7.50095 11.7929C7.41246 11.9515 7.28518 12.1659 7.13339 12.3956C6.98297 12.6253 6.83731 12.8252 6.7284 12.9669C6.67395 13.0373 6.6297 13.094 6.59771 13.1323C6.56572 13.1698 6.54803 13.1905 6.54598 13.1889Z" fill="#E0E0E0"/>
<path d="M4.86768 12.8735C4.86768 12.8712 4.8915 12.8727 4.93438 12.8781C4.98339 12.885 5.04329 12.8934 5.11476 12.9041C5.26654 12.9271 5.47619 12.9615 5.70761 13.0014C5.93903 13.0412 6.148 13.0795 6.2991 13.1086C6.36921 13.1231 6.42911 13.1354 6.47812 13.1453C6.52032 13.1545 6.54346 13.1606 6.54278 13.1629C6.54278 13.1652 6.51895 13.1637 6.47607 13.1583C6.42707 13.1514 6.36717 13.143 6.2957 13.1323C6.14391 13.1093 5.93427 13.0749 5.70284 13.035C5.47142 12.9952 5.26246 12.9569 5.11135 12.9278C5.04124 12.9133 4.98135 12.901 4.93234 12.8911C4.89082 12.8819 4.86768 12.8758 4.86768 12.8735Z" fill="#E0E0E0"/>
<path d="M5.43995 15.3324C5.43995 15.3301 5.47058 15.3324 5.52504 15.3393C5.58493 15.3477 5.66321 15.3584 5.75646 15.3715C5.95113 15.3998 6.22067 15.4419 6.51744 15.4902C6.8142 15.5384 7.08306 15.5836 7.27705 15.618C7.36962 15.6357 7.44722 15.6494 7.50711 15.6609C7.56157 15.6716 7.59084 15.6785 7.59084 15.6808C7.59084 15.6831 7.56021 15.6808 7.50575 15.6739C7.44586 15.6655 7.36758 15.6548 7.27433 15.6418C7.07966 15.6134 6.81012 15.5713 6.51335 15.5231C6.21658 15.4748 5.94772 15.4297 5.75374 15.3952C5.66117 15.3776 5.58357 15.3638 5.52435 15.3523C5.46922 15.3416 5.43927 15.3347 5.43995 15.3324Z" fill="#E0E0E0"/>
<path d="M7.54109 15.6563C7.53972 15.6548 7.5581 15.6249 7.59282 15.5713C7.63161 15.5131 7.6813 15.4381 7.74188 15.3469C7.8678 15.157 8.04069 14.8944 8.22447 14.598C8.40825 14.3016 8.56888 14.029 8.68391 13.8307C8.73905 13.7357 8.78465 13.6561 8.82004 13.5956C8.85272 13.5405 8.87109 13.5106 8.87314 13.5114C8.87518 13.5129 8.85952 13.5451 8.83025 13.6025C8.80099 13.6599 8.75742 13.7426 8.70229 13.8437C8.59202 14.0459 8.43411 14.3208 8.24965 14.6179C8.06587 14.915 7.88958 15.1754 7.75958 15.3622C7.69423 15.4549 7.64046 15.53 7.60235 15.5805C7.56423 15.631 7.54245 15.6578 7.54109 15.6563Z" fill="#E0E0E0"/>
<path d="M23.4405 13.9616C21.6966 12.9746 21.0405 10.7217 20.8363 8.63492C20.8022 8.28649 20.7212 7.92658 20.8288 7.59806C20.9363 7.27031 21.2515 7.00688 21.5462 7.10796C21.7905 7.1922 21.9287 7.47553 22.0887 7.7022C22.301 8.00392 22.5903 8.23518 22.9116 8.36154C23.1226 8.44424 23.3744 8.47487 23.5528 8.32325C23.7971 8.11496 23.7753 7.69684 23.7297 7.35224C23.6433 6.70976 23.5575 6.06804 23.4711 5.42555C23.4248 5.08096 23.3785 4.72947 23.4323 4.3864C23.4854 4.04333 23.6569 3.70562 23.9367 3.56625C24.2164 3.42688 24.6017 3.55783 24.7065 3.88482C24.75 4.02112 24.7432 4.17122 24.7705 4.31288C24.7977 4.45455 24.8773 4.60311 25.0033 4.62379C25.1305 4.64446 25.2408 4.52654 25.3198 4.4109C25.5913 4.01117 25.7486 3.52796 25.8915 3.04936C26.0351 2.57075 26.1706 2.08218 26.4095 1.65564C26.6477 1.22911 27.0064 0.863833 27.4414 0.764283C27.877 0.664732 28.3834 0.893699 28.557 1.36082C28.7305 1.82871 28.542 2.36322 28.3181 2.80124C27.9859 3.45139 27.5707 4.04563 27.0895 4.561C27.003 4.65365 26.9084 4.75397 26.888 4.88798C26.8512 5.12843 27.0738 5.32524 27.2855 5.36812C27.5251 5.41637 27.7695 5.34974 28.0124 5.34209C28.2554 5.33519 28.5297 5.41101 28.6529 5.65069C28.8238 5.98304 28.6094 6.39503 28.3827 6.67836C27.9287 7.24657 27.3883 7.72518 26.7927 8.08739C26.579 8.2168 26.3523 8.33703 26.1937 8.54456C26.0351 8.75208 25.965 9.07983 26.1059 9.30497C26.2468 9.53011 26.5388 9.56227 26.7689 9.47421C26.9989 9.38691 27.1916 9.20772 27.4046 9.076C27.8028 8.82866 28.3507 8.77276 28.6734 9.1388C28.8851 9.37925 28.949 9.75142 28.9007 10.0868C28.8524 10.4222 28.706 10.7285 28.5454 11.0149C27.9845 12.0158 27.2127 12.8742 26.2843 13.4141C25.3552 13.9532 24.4628 14.2036 23.4405 13.9616Z" fill="#F5F5F5"/>
<path d="M23.7495 12.5824C23.8863 11.4897 24.1252 10.3066 24.4125 9.07826C24.4853 8.77118 24.5575 8.4687 24.6282 8.17005C24.6997 7.87216 24.7705 7.57657 24.8556 7.29247C25.0237 6.72273 25.2238 6.18975 25.428 5.69047C25.6322 5.19118 25.8419 4.72483 26.0406 4.2914C26.2407 3.85797 26.4334 3.45747 26.6233 3.10138C27.001 2.38692 27.3652 1.8524 27.6286 1.49708C27.76 1.31866 27.8661 1.18388 27.939 1.09429C27.9744 1.0514 28.0016 1.01771 28.0227 0.992439C28.0417 0.969466 28.052 0.958745 28.0526 0.959511C28.0533 0.960277 28.0445 0.973295 28.0268 0.997034C28.007 1.02307 27.9805 1.0583 27.9478 1.10348C27.8777 1.19614 27.7742 1.33321 27.6456 1.51393C27.3876 1.87385 27.0296 2.41065 26.6573 3.12589C26.4701 3.48274 26.2795 3.88324 26.0821 4.31667C25.8854 4.75163 25.6771 5.21722 25.475 5.71574C25.2728 6.21426 25.0748 6.74571 24.908 7.31238C24.8236 7.59495 24.7535 7.88824 24.6827 8.18689C24.6119 8.48555 24.5404 8.78803 24.4676 9.0951C24.1804 10.3226 23.9415 11.5027 23.8019 12.5916" fill="#E0E0E0"/>
<path d="M24.8713 7.28713C24.8679 7.28866 24.8502 7.23736 24.8223 7.1447C24.7937 7.05204 24.7569 6.9165 24.7134 6.74803C24.6263 6.41185 24.5194 5.94243 24.4037 5.42477C24.288 4.9071 24.1757 4.44075 24.0838 4.10687C24.0382 3.93993 24.0001 3.80515 23.9728 3.71249C23.9463 3.61907 23.9327 3.567 23.9367 3.56546C23.9402 3.56393 23.9606 3.61294 23.9939 3.70407C24.028 3.79443 24.0715 3.92768 24.1219 4.09308C24.224 4.42466 24.3431 4.89102 24.4588 5.40868C24.5718 5.92022 24.6746 6.38198 24.7529 6.73577C24.7889 6.89505 24.8196 7.02906 24.8441 7.13704C24.8652 7.23199 24.8754 7.2856 24.8713 7.28713Z" fill="#E0E0E0"/>
<path d="M28.706 5.81758C28.7067 5.82217 28.6515 5.83825 28.5515 5.86429C28.4514 5.89109 28.3071 5.92861 28.1295 5.98145C27.7742 6.08407 27.2875 6.24488 26.7579 6.44934C26.2284 6.65457 25.756 6.86286 25.4184 7.0252C25.2489 7.10484 25.1135 7.17376 25.0195 7.22048C24.9256 7.26795 24.8732 7.29169 24.8712 7.28786C24.8691 7.28404 24.9188 7.25187 25.01 7.1975C25.1012 7.1439 25.2346 7.06885 25.4021 6.98309C25.7363 6.81002 26.208 6.59407 26.7396 6.38808C27.2712 6.18362 27.7612 6.02893 28.1199 5.9378C28.299 5.89033 28.4453 5.85969 28.5467 5.84055C28.6488 5.82064 28.7046 5.81298 28.706 5.81758Z" fill="#E0E0E0"/>
<path d="M23.7876 12.4928C23.7862 12.4944 23.774 12.4768 23.7535 12.4431C23.7297 12.4025 23.7004 12.3535 23.6657 12.2937C23.5895 12.1636 23.4847 11.9721 23.3567 11.7332C23.1015 11.2561 22.7673 10.5845 22.4072 9.83867C22.0471 9.09204 21.7184 8.41816 21.4727 7.93572C21.3522 7.7014 21.2535 7.50842 21.1793 7.36522C21.148 7.30319 21.1214 7.25189 21.1003 7.20977C21.0826 7.17378 21.0745 7.15463 21.0758 7.1531C21.0772 7.15234 21.0894 7.16918 21.1099 7.20288C21.1337 7.24346 21.163 7.29247 21.1977 7.3522C21.2739 7.48238 21.3787 7.67383 21.5067 7.91275C21.7619 8.38983 22.0961 9.06141 22.4569 9.80804C22.817 10.5547 23.145 11.2286 23.3914 11.711C23.5119 11.9453 23.6106 12.1383 23.6841 12.2815C23.7154 12.3435 23.742 12.3948 23.7631 12.4369C23.7808 12.4722 23.7896 12.4913 23.7876 12.4928Z" fill="#E0E0E0"/>
<path d="M28.7803 9.74222C28.7809 9.74452 28.7639 9.75524 28.7312 9.77515C28.6924 9.79736 28.6441 9.82416 28.5863 9.85709C28.4522 9.93137 28.2718 10.0309 28.0519 10.1527C27.6007 10.4023 26.9806 10.7553 26.2965 11.1467C25.6118 11.538 24.989 11.8849 24.5329 12.1245C24.3049 12.244 24.1198 12.339 23.9905 12.4018C23.9306 12.4301 23.8815 12.4538 23.8414 12.473C23.8067 12.4883 23.7883 12.4959 23.7876 12.4936C23.7869 12.4914 23.804 12.4806 23.8366 12.4607C23.8754 12.4385 23.9231 12.4117 23.9816 12.3788C24.1157 12.3045 24.2961 12.205 24.5159 12.0832C24.9672 11.8336 25.5873 11.4805 26.2713 11.0892C26.9554 10.6979 27.5789 10.351 28.0349 10.1121C28.263 9.99263 28.4481 9.89767 28.5774 9.83488C28.6373 9.80655 28.6863 9.78281 28.7265 9.76366C28.7612 9.74758 28.7796 9.73992 28.7803 9.74222Z" fill="#E0E0E0"/>
<path d="M37.4451 4.54253C37.4451 3.29279 36.2784 2.50174 35.0887 3.12814C34.8198 3.26981 34.5979 3.50873 34.4624 3.80279C34.163 4.45523 34.295 5.19957 34.5666 5.81831L35.4923 8.45794C35.6257 8.83853 36.1049 8.83623 36.2356 8.45411L37.1436 5.8007C37.4587 4.99281 37.4451 4.54253 37.4451 4.54253ZM36.3275 5.62993C35.5277 6.15296 34.717 5.18578 35.1554 4.23163C35.2139 4.10451 35.3031 3.99806 35.4092 3.92838C36.209 3.40535 37.0197 4.37253 36.5813 5.32668C36.5235 5.4538 36.4343 5.56025 36.3275 5.62993Z" fill="#F5F5F5"/>
<path d="M20.8332 30L11.7859 29.9533C10.6975 29.9479 9.81947 28.9509 9.82424 27.7264L9.92021 2.20849C9.92498 0.98325 10.8112 -0.00536546 11.9002 0.000760741L20.9476 0.047473C22.0359 0.0528334 22.914 1.04987 22.9092 2.27435L22.8133 27.793C22.8085 29.0167 21.9223 30.0054 20.8332 30Z" fill="#455A64"/>
<path d="M20.9345 0.928076L19.1804 0.918886C18.9449 0.917355 18.7537 1.14096 18.753 1.41741L18.7516 1.77502C18.7509 2.05147 18.559 2.27507 18.3242 2.27354L14.9052 2.25593C14.6697 2.2544 14.4798 2.02926 14.4812 1.75282L14.4825 1.3952C14.4832 1.11875 14.294 0.89285 14.0585 0.892084L13.4418 0.889021L11.9062 0.881363C11.1439 0.877535 10.5231 1.5698 10.5197 2.42746L10.4258 27.3351C10.4224 28.1927 11.0377 28.8903 11.7994 28.8942L20.829 28.9409C21.5913 28.9447 22.2121 28.2525 22.2155 27.3948L22.3094 2.48719C22.3115 1.62953 21.6968 0.931905 20.9345 0.928076Z" fill="#FAFAFA"/>
<path d="M10.5078 5.41638H11.9876L13.3087 6.90198L11.9352 8.44655L10.5235 6.85834L10.5078 5.41638Z" fill="#EBEBEB"/>
<path d="M13.6094 6.25031L12.8682 5.41638H14.5365L13.6094 6.25031Z" fill="#EBEBEB"/>
<path d="M14.2578 6.93098L15.5572 5.46912H20.0972C20.0972 5.46912 20.7921 8.96105 18.0579 11.2025L14.2578 6.93098Z" fill="#EBEBEB"/>
<path d="M13.7019 7.39734L12.312 8.96182L16.1584 13.2892L17.5483 11.6727L13.7019 7.39734Z" fill="#EBEBEB"/>
<path d="M10.4907 9.84787L11.362 8.83092L10.5077 7.86987L10.4907 9.84787Z" fill="#EBEBEB"/>
<path d="M11.8831 9.43054L10.5449 10.9361V13.0282L13.3084 16.2092L15.6485 13.7579L11.8831 9.43054Z" fill="#EBEBEB"/>
<path d="M18.5747 11.6421C18.5747 11.6421 21.441 9.2774 20.5146 5.46997H22.2972L22.2755 16.2184L18.5747 11.6421Z" fill="#EBEBEB"/>
<path d="M18.0379 12.2623L16.6514 13.8911L20.9021 18.6726L22.2021 17.1227L18.0379 12.2623Z" fill="#EBEBEB"/>
<path d="M16.0722 14.3368L13.894 16.7704L18.2509 21.6385L20.4256 19.273L16.0722 14.3368Z" fill="#EBEBEB"/>
<path d="M14.9307 26.5303L18.2611 22.6455L21.4296 26.2791L14.9307 26.5303Z" fill="#EBEBEB"/>
<path d="M18.7803 22.1447L22.2489 18.2791C22.2489 18.4506 22.219 26.2982 22.219 26.2982L18.7803 22.1447Z" fill="#EBEBEB"/>
<path d="M15.8105 19.9722L17.7782 22.186L13.8937 26.6972L12.0981 24.2743L15.8105 19.9722Z" fill="#EBEBEB"/>
<path d="M10.4941 24.5891C10.68 24.5684 15.4384 19.5549 15.4384 19.5549L10.4941 13.7909V24.5891Z" fill="#EBEBEB"/>
<path d="M10.4253 25.7315L11.5708 24.589L13.1575 26.6972H10.4253V25.8908" fill="#EBEBEB"/>
<path d="M11.9075 3.89855C11.9007 3.90621 11.7489 3.75765 11.5679 3.5662C11.5679 3.508 11.5679 3.55012 11.5679 3.5371L11.5686 3.53634L11.5699 3.53557L11.572 3.53327L11.576 3.52868L11.5842 3.51949L11.6012 3.50188C11.6121 3.49039 11.623 3.4789 11.6339 3.46742C11.655 3.44521 11.6761 3.42377 11.6965 3.40309C11.734 3.36557 11.7693 3.33034 11.8034 3.29588C11.8646 3.23539 11.9048 3.20093 11.9082 3.20476C11.9116 3.20859 11.8776 3.25147 11.8204 3.31656C11.7877 3.35255 11.7544 3.39007 11.719 3.42989C11.6992 3.45134 11.6788 3.47354 11.6584 3.49575C11.6475 3.50724 11.6366 3.51872 11.6257 3.53021L11.6094 3.54782L11.6012 3.55701L11.5971 3.56161L11.5951 3.56391L11.5937 3.56467L11.5931 3.56544C11.5931 3.55242 11.5931 3.59454 11.5931 3.53634C11.7728 3.72855 11.9143 3.89013 11.9075 3.89855Z" fill="#263238"/>
<path d="M21.3155 3.31427C21.3155 3.36022 21.2821 3.39697 21.242 3.39697C21.2018 3.39697 21.1685 3.35945 21.1685 3.31427C21.1685 3.26832 21.2018 3.23157 21.242 3.23157C21.2821 3.23157 21.3155 3.26832 21.3155 3.31427Z" fill="#263238"/>
<path d="M21.2945 3.54097C21.3231 3.57313 21.3231 3.62597 21.2945 3.65813C21.2659 3.69029 21.219 3.69029 21.1904 3.65813C21.1618 3.62597 21.1618 3.57313 21.1904 3.54097C21.219 3.50881 21.2653 3.50881 21.2945 3.54097Z" fill="#263238"/>
<path d="M21.3155 3.88556C21.3155 3.93151 21.2821 3.96826 21.242 3.96826C21.2018 3.96826 21.1685 3.93074 21.1685 3.88556C21.1685 3.83961 21.2018 3.80286 21.242 3.80286C21.2821 3.80286 21.3155 3.83961 21.3155 3.88556Z" fill="#263238"/>
<path d="M18.126 3.65356H14.9419V3.95222H18.126V3.65356Z" fill="#263238"/>
<path d="M17.7806 9.01474C17.7806 7.6195 16.4771 6.73502 15.1485 7.43494C14.8483 7.59269 14.5999 7.85995 14.4494 8.18923C14.1152 8.91748 14.2629 9.74988 14.5658 10.4406L15.5997 13.3896C15.7488 13.8146 16.2845 13.8123 16.4301 13.3858L17.4443 10.4215C17.7949 9.51785 17.7806 9.01474 17.7806 9.01474ZM16.5322 10.2293C15.6392 10.8135 14.7339 9.7338 15.2233 8.66784C15.2887 8.52617 15.3881 8.40671 15.5072 8.32937C16.4002 7.74508 17.3062 8.82482 16.8161 9.89078C16.7507 10.0325 16.6507 10.1511 16.5322 10.2293Z" fill="#0000FF"/>
<path d="M44.8542 19.6643H7.08984V25.8985H44.8542V19.6643Z" fill="#0000FF"/>
<g opacity="0.5">
<path d="M44.8542 19.6643H7.08984V25.8985H44.8542V19.6643Z" fill="black"/>
</g>
<path d="M12.4075 29.9437C14.414 29.7919 15.9312 27.8388 15.7963 25.5814C15.6613 23.3239 13.9253 21.617 11.9188 21.7688C9.91226 21.9206 8.39504 23.8737 8.52999 26.1312C8.66494 28.3886 10.401 30.0956 12.4075 29.9437Z" fill="#263238"/>
<path d="M8.52402 25.7874C8.52402 25.7912 8.52334 25.7942 8.52334 25.7981C8.49407 28.0602 10.1011 29.921 12.1118 29.9532C14.1224 29.9861 15.7764 28.1781 15.8057 25.916C15.8057 25.9122 15.805 25.9091 15.8057 25.9053L8.52402 25.7874Z" fill="#263238"/>
<path d="M9.60818 25.8157C9.58776 27.4039 10.7156 28.7103 12.1273 28.7333C13.539 28.7562 14.7002 27.4873 14.7206 25.8991C14.741 24.3109 13.6132 23.0045 12.2015 22.9815C10.7891 22.9578 9.6286 24.2274 9.60818 25.8157Z" fill="#FAFAFA"/>
<path d="M12.2017 22.9808C10.79 22.9578 9.62882 24.2267 9.6084 25.8149L14.7208 25.8976C14.7412 24.3102 13.6134 23.0037 12.2017 22.9808Z" fill="#E0E0E0"/>
<path d="M10.6076 25.8317C10.5953 26.7989 11.2821 27.5946 12.1425 27.6091C13.0021 27.6229 13.71 26.8502 13.7223 25.8823C13.7345 24.9151 13.0477 24.1187 12.1874 24.1049C11.327 24.0911 10.6198 24.8638 10.6076 25.8317Z" fill="#263238"/>
<path d="M40.2189 29.9477C42.2266 29.8169 43.76 27.8798 43.6437 25.621C43.5275 23.3622 41.8057 21.6371 39.7979 21.7678C37.7902 21.8986 36.2568 23.8358 36.3731 26.0946C36.4893 28.3534 38.2112 30.0785 40.2189 29.9477Z" fill="#263238"/>
<path d="M36.3697 25.7875C36.3697 25.7913 36.369 25.7944 36.369 25.7982C36.3398 28.0603 37.9468 29.9211 39.9575 29.9533C41.9681 29.9862 43.6221 28.1782 43.6514 25.9161C43.6514 25.9123 43.6507 25.9092 43.6507 25.9054L36.3697 25.7875Z" fill="#263238"/>
<path d="M37.4544 25.8158C37.434 27.404 38.5618 28.7104 39.9735 28.7334C41.3852 28.7564 42.5464 27.4875 42.5668 25.8993C42.5872 24.311 41.4594 23.0046 40.0477 22.9817C38.6353 22.9579 37.4748 24.2276 37.4544 25.8158Z" fill="#FAFAFA"/>
<path d="M40.0474 22.9809C38.6357 22.9579 37.4745 24.2268 37.4541 25.815L42.5665 25.8977C42.587 24.3103 41.4591 23.0039 40.0474 22.9809Z" fill="#E0E0E0"/>
<path d="M38.4533 25.8319C38.441 26.799 39.1278 27.5947 39.9882 27.6092C40.8478 27.623 41.5557 26.8503 41.568 25.8824C41.5802 24.9152 40.8935 24.1188 40.0331 24.105C39.1727 24.0913 38.4655 24.8639 38.4533 25.8319Z" fill="#263238"/>
<path d="M16.9377 16.157C16.9377 16.157 11.5755 16.602 9.58793 17.1035C8.18713 17.4573 5.48628 18.0669 5.51895 19.979L5.73336 21.349C5.73336 21.349 4.73142 21.8636 4.73142 23.1777C4.73142 24.491 4.48707 26.5295 6.82513 26.6106C7.21039 26.6244 7.94277 26.6106 7.94277 26.6106C7.94277 26.6106 7.49354 21.0075 12.0696 20.8428C16.7246 20.6759 16.4156 26.5593 16.4156 26.5593H35.843C35.843 26.5593 35.0459 20.8275 40.0569 20.8198C45.068 20.8114 44.3056 26.5969 44.3056 26.5969C44.3056 26.5969 46.1488 26.776 47.0065 25.0331C47.8641 23.2902 47.6409 22.0497 47.6409 22.0497L47.6123 20.9477C47.6027 20.5725 47.3359 20.27 47.0031 20.2555C47.0031 20.2555 47.338 17.4811 46.8241 17.0009C46.3102 16.5208 43.4943 13.6246 43.4943 13.6246L43.6284 13.5297C43.853 13.3712 43.8142 12.9898 43.563 12.8925C42.4937 12.479 40.3796 11.6604 39.8827 11.4651C39.8078 11.436 39.7309 11.4177 39.652 11.4108C39.3552 11.3855 38.5159 11.325 36.9742 11.3066C35.0963 11.2844 27.6404 11.3066 27.6404 11.3066C27.6404 11.3066 25.0743 11.544 23.6449 12.2524C22.1413 12.9975 16.9377 16.157 16.9377 16.157Z" fill="#0000FF"/>
<g opacity="0.4">
<path d="M6.09049 23.026C5.89582 22.9816 5.59769 22.977 5.44931 23.1255C5.33904 23.2358 5.30977 23.4135 5.29344 23.5789C5.2703 23.8048 5.25872 24.0368 5.30705 24.2581C5.3547 24.4794 5.46973 24.6908 5.64738 24.7995C5.82503 24.9083 6.06939 24.8906 6.20756 24.7245C6.33417 24.5729 6.34846 24.3447 6.34506 24.1364C6.34029 23.8408 6.36139 23.5904 6.31306 23.3001C6.30354 23.245 6.27767 23.1745 6.24636 23.1317C6.19463 23.0604 6.15515 23.0306 6.09049 23.026Z" fill="black"/>
</g>
<path d="M5.73345 21.349C6.30248 21.3505 6.85518 21.3137 7.42285 21.2708C7.48411 21.2662 7.55081 21.2586 7.59573 21.2119C7.65019 21.1552 7.65427 21.0618 7.65495 20.9783C7.65767 20.6352 7.6427 20.2447 7.41128 20.0211C7.2697 19.8848 7.07571 19.8419 6.89057 19.822C6.43385 19.7738 5.95466 19.8136 5.51904 19.9774L5.73345 21.349Z" fill="#FAFAFA"/>
<path d="M17.5539 26.384C17.5539 26.384 17.5518 26.3656 17.5491 26.3296C17.5471 26.2921 17.5437 26.2385 17.5396 26.1688C17.5328 26.0264 17.5226 25.8181 17.5096 25.5508C17.496 25.2828 17.4804 24.9543 17.4463 24.5745C17.4109 24.1954 17.3592 23.7635 17.2455 23.301C17.1312 22.8392 16.9563 22.3476 16.6976 21.8644C16.4376 21.385 16.0959 20.9056 15.6385 20.535C14.7196 19.7999 13.4788 19.3841 12.1814 19.3664C10.88 19.3488 9.64394 19.8114 8.74887 20.5825C8.29691 20.96 7.92255 21.4011 7.63463 21.8621C7.34399 22.3216 7.13163 22.794 6.98256 23.2428C6.83146 23.6915 6.75182 24.1196 6.7069 24.4964C6.65789 24.8739 6.66538 25.2039 6.67354 25.472C6.69192 25.7392 6.71302 25.9467 6.74025 26.0846C6.75114 26.1535 6.75999 26.2063 6.76543 26.2431C6.77088 26.2791 6.77292 26.2975 6.77292 26.2975C6.77292 26.2975 6.76884 26.2799 6.76203 26.2439C6.75522 26.2071 6.74569 26.1543 6.73276 26.0861C6.70349 25.9483 6.68035 25.7408 6.65925 25.4727C6.64904 25.2047 6.63951 24.8731 6.68648 24.4941C6.73004 24.115 6.80763 23.6854 6.95806 23.2336C7.10712 22.7826 7.31881 22.3063 7.61013 21.8437C7.89873 21.3797 8.27445 20.9347 8.72913 20.5542C9.62896 19.7769 10.8732 19.3098 12.1821 19.3274C13.4869 19.3458 14.7332 19.7639 15.6582 20.5059C16.1197 20.8811 16.4628 21.3651 16.7235 21.8476C16.9828 22.3338 17.1577 22.8293 17.2707 23.2933C17.3837 23.7589 17.4334 24.1924 17.4668 24.5722C17.4994 24.9528 17.513 25.2813 17.5239 25.5501C17.5341 25.8181 17.5416 26.0256 17.5471 26.1688C17.5498 26.2385 17.5518 26.2921 17.5532 26.3296C17.5539 26.3656 17.5539 26.384 17.5539 26.384Z" fill="white"/>
<path d="M17.7599 26.4797C17.7599 26.4797 17.7585 26.4644 17.7579 26.4337C17.7572 26.4024 17.7551 26.3572 17.7538 26.2982C17.7504 26.178 17.7456 26.0003 17.7395 25.7691C17.7279 25.305 17.7102 24.625 17.6884 23.7612C17.6673 22.8966 17.6421 21.8468 17.6129 20.6445C17.6054 20.3435 17.5979 20.0334 17.5904 19.7141C17.5809 19.5548 17.5959 19.3917 17.6088 19.2278C17.619 19.1459 17.6292 19.0639 17.6401 18.9812C17.6551 18.8993 17.6701 18.8173 17.685 18.7339C17.7538 18.4046 17.8538 18.0745 17.9879 17.7529C18.1227 17.4321 18.2826 17.115 18.4868 16.821L18.4882 16.8187L18.4902 16.8171C19.5296 16.0805 20.6595 15.2795 21.8547 14.4325C22.1536 14.2204 22.4564 14.006 22.7634 13.7885C23.0643 13.5588 23.3896 13.3627 23.7252 13.1843C24.0614 13.0067 24.4106 12.8512 24.7693 12.7149C24.9483 12.6444 25.1314 12.5862 25.3145 12.525C25.4997 12.4721 25.6841 12.4132 25.8734 12.3703C26.5976 12.1896 27.3272 12.1 28.0419 12.0625C28.7573 12.0249 29.4591 12.0272 30.1411 12.0701L30.1608 12.0716L30.1567 12.0938C29.8348 13.7142 29.5312 15.2427 29.2528 16.6433L29.2522 16.6464L29.2508 16.6494C29.0813 16.9634 28.9459 17.2935 28.8451 17.6266C28.7485 17.9604 28.6858 18.3035 28.7076 18.6382C28.7308 18.9743 28.7389 19.3036 28.7464 19.6222C28.7519 19.9415 28.7573 20.2516 28.7628 20.5518C28.7784 21.7541 28.7825 22.8024 28.7852 23.667C28.7859 24.5308 28.7866 25.2093 28.7873 25.6733C28.7866 25.9046 28.7859 26.0815 28.7852 26.2025C28.7845 26.2622 28.7845 26.3074 28.7839 26.338C28.7832 26.3687 28.7825 26.384 28.7825 26.384C28.7825 26.384 28.7818 26.3687 28.7811 26.338C28.7811 26.3066 28.7805 26.2614 28.7798 26.2025C28.7791 26.0823 28.7784 25.9046 28.777 25.6733C28.7743 25.2093 28.7709 24.53 28.7668 23.667C28.7614 22.8032 28.7546 21.7541 28.7369 20.5526C28.7314 20.2524 28.7253 19.9423 28.7192 19.6229C28.711 19.3036 28.7022 18.9759 28.679 18.6405C28.6566 18.2997 28.7192 17.9528 28.8165 17.6158C28.9179 17.2797 29.0527 16.9481 29.2242 16.6303L29.2222 16.6357C29.4992 15.2343 29.8021 13.7058 30.1227 12.0854L30.1384 12.1092C29.4584 12.0663 28.7566 12.0647 28.0433 12.1023C27.33 12.1398 26.603 12.2294 25.8808 12.4093C25.6923 12.4515 25.5085 12.5112 25.3241 12.5633C25.1416 12.6245 24.9592 12.682 24.7809 12.7524C24.4236 12.888 24.0751 13.0426 23.7402 13.2195C23.406 13.3972 23.082 13.5925 22.7832 13.8207C22.4762 14.0381 22.1733 14.2526 21.8738 14.4639C20.6772 15.3101 19.5466 16.1103 18.5066 16.8455L18.51 16.8417C18.3085 17.1311 18.1486 17.4474 18.0145 17.7659C17.8804 18.0853 17.781 18.413 17.7123 18.74C17.5591 19.3963 17.636 20.0441 17.6374 20.6437C17.6639 21.846 17.6871 22.8959 17.7061 23.7604C17.7245 24.6242 17.7388 25.3042 17.7483 25.7683C17.7524 25.9996 17.7558 26.1772 17.7585 26.2974C17.7592 26.3572 17.7599 26.4024 17.7606 26.433C17.7599 26.4636 17.7599 26.4797 17.7599 26.4797Z" fill="#263238"/>
<path d="M30.1167 12.2002C30.1167 12.2002 30.1276 12.1987 30.1487 12.1979C30.1712 12.1972 30.2018 12.1956 30.2426 12.1941C30.3263 12.1918 30.4475 12.1887 30.6041 12.1841C30.9199 12.1773 31.3766 12.1673 31.9443 12.1543C33.083 12.1321 34.6689 12.1022 36.4625 12.0677H36.4707L36.4761 12.0754C36.6789 12.3549 36.8927 12.649 37.1091 12.9476C37.7503 13.8321 38.3615 14.6752 38.9169 15.4418C38.9864 15.5375 39.0551 15.6324 39.1225 15.7259C39.1892 15.8208 39.2464 15.9242 39.2913 16.0306C39.3805 16.2451 39.4261 16.4748 39.4268 16.6969C39.4288 16.9189 39.388 17.1334 39.3172 17.3233C39.2457 17.5109 39.177 17.6908 39.1109 17.8631C38.8475 18.5485 38.6345 19.1037 38.4861 19.4896C38.4119 19.6803 38.3547 19.8289 38.3146 19.9307C38.2948 19.9797 38.2798 20.018 38.269 20.0448C38.2587 20.0709 38.2526 20.0831 38.2526 20.0831C38.2526 20.0831 38.2567 20.0693 38.2656 20.0433C38.2758 20.0157 38.2894 19.9774 38.3078 19.9277C38.3459 19.8243 38.4017 19.675 38.4732 19.4835C38.6188 19.0968 38.8285 18.5401 39.0878 17.8524C39.2049 17.5063 39.4111 17.1418 39.3968 16.6976C39.3954 16.4801 39.3505 16.2558 39.2627 16.0459C39.2178 15.9418 39.1627 15.8415 39.0966 15.7481C39.0286 15.6546 38.9598 15.5604 38.8904 15.4647C38.3343 14.699 37.7224 13.8566 37.0805 12.9729C36.8641 12.6742 36.6503 12.3802 36.4475 12.1007L36.4611 12.1076C34.6676 12.1367 33.0817 12.1627 31.9422 12.1811C31.3746 12.1887 30.9178 12.1949 30.602 12.1987C30.4461 12.2002 30.3243 12.201 30.2406 12.2018C30.2004 12.2018 30.1691 12.2018 30.1466 12.2018C30.1276 12.201 30.1167 12.2002 30.1167 12.2002Z" fill="#263238"/>
<path d="M27.8358 18.9597C27.8358 18.9574 27.8549 18.9574 27.8903 18.9506C27.925 18.9437 27.9767 18.9283 28.0332 18.8862C28.089 18.8449 28.1489 18.7744 28.1789 18.6733C28.1945 18.6228 28.1993 18.5669 28.1972 18.5049C28.1959 18.4451 28.1823 18.3816 28.155 18.3226C28.1006 18.2055 27.9821 18.1074 27.8412 18.1082C27.6976 18.109 27.5438 18.109 27.3825 18.1097C27.0585 18.1105 26.7039 18.1105 26.3309 18.1113C26.2417 18.1113 26.1546 18.1503 26.0913 18.2162C26.0273 18.282 25.9864 18.3732 25.9776 18.4666C25.9688 18.5631 25.9803 18.6573 26.0212 18.7369C26.0606 18.8165 26.1246 18.877 26.1954 18.9107C26.2669 18.9467 26.3445 18.9414 26.4221 18.9421C26.4983 18.9421 26.5732 18.9429 26.6446 18.9429C26.7883 18.9437 26.9217 18.9444 27.0449 18.9452C27.2865 18.9475 27.4839 18.9498 27.6241 18.9513C27.6901 18.9529 27.7425 18.9544 27.7813 18.9551C27.8167 18.9574 27.8358 18.9582 27.8358 18.9597C27.8358 18.9613 27.8167 18.9628 27.7807 18.9636C27.7412 18.9643 27.6888 18.9659 27.6234 18.9674C27.4832 18.9689 27.2858 18.9712 27.0442 18.9735C26.9217 18.9743 26.7876 18.9751 26.644 18.9758C26.5718 18.9758 26.4976 18.9766 26.4214 18.9766C26.3826 18.9758 26.3452 18.9781 26.3036 18.9758C26.2628 18.9728 26.2213 18.9628 26.1825 18.9444C26.1049 18.9077 26.0348 18.8426 25.9912 18.7553C25.9463 18.6687 25.9334 18.5623 25.9429 18.462C25.9524 18.3586 25.9973 18.2583 26.0674 18.1863C26.1376 18.1136 26.2328 18.0707 26.3309 18.0707C26.7039 18.0714 27.0592 18.0714 27.3825 18.0722C27.5438 18.073 27.6976 18.0737 27.8419 18.0745C27.9937 18.076 28.121 18.1832 28.1768 18.3096C28.2054 18.3732 28.219 18.4405 28.2197 18.5041C28.2211 18.5661 28.2149 18.6282 28.1972 18.6802C28.1639 18.7867 28.0992 18.8587 28.0407 18.8992C27.9808 18.9406 27.927 18.9536 27.8909 18.9582C27.8549 18.9636 27.8358 18.9597 27.8358 18.9597Z" fill="#263238"/>
<path d="M37.9046 18.9597C37.9046 18.9574 37.9237 18.9574 37.9591 18.9506C37.9938 18.9437 38.0455 18.9283 38.102 18.8862C38.1579 18.8449 38.2178 18.7744 38.2477 18.6733C38.2634 18.6228 38.2688 18.5669 38.2661 18.5049C38.2647 18.4451 38.2511 18.3816 38.2239 18.3226C38.1694 18.2055 38.051 18.1074 37.9101 18.1082C37.7665 18.109 37.6126 18.109 37.4513 18.1097C37.1273 18.1105 36.7727 18.1105 36.3997 18.1113C36.3105 18.1113 36.2234 18.1503 36.1601 18.2162C36.0961 18.282 36.0553 18.3732 36.0464 18.4666C36.0376 18.5631 36.0492 18.6573 36.09 18.7369C36.1295 18.8165 36.1935 18.877 36.2643 18.9107C36.3357 18.9467 36.4133 18.9414 36.4909 18.9421C36.5672 18.9421 36.642 18.9429 36.7135 18.9429C36.8571 18.9437 36.9905 18.9444 37.1137 18.9452C37.3554 18.9475 37.5527 18.9498 37.693 18.9513C37.759 18.9529 37.8114 18.9544 37.8502 18.9551C37.8856 18.9574 37.9046 18.9582 37.9046 18.9597C37.9046 18.9613 37.8856 18.9628 37.8495 18.9636C37.81 18.9643 37.7576 18.9659 37.6923 18.9674C37.5521 18.9689 37.3547 18.9712 37.113 18.9735C36.9905 18.9743 36.8564 18.9751 36.7128 18.9758C36.6407 18.9758 36.5665 18.9766 36.4902 18.9766C36.4514 18.9758 36.414 18.9781 36.3725 18.9758C36.3316 18.9728 36.2901 18.9628 36.2513 18.9444C36.1737 18.9077 36.1036 18.8426 36.0601 18.7553C36.0151 18.6687 36.0022 18.5623 36.0117 18.462C36.0213 18.3586 36.0662 18.2583 36.1363 18.1863C36.2064 18.1136 36.3017 18.0707 36.3997 18.0707C36.7727 18.0714 37.128 18.0714 37.4513 18.0722C37.6126 18.073 37.7665 18.0737 37.9108 18.0745C38.0626 18.076 38.1898 18.1832 38.2457 18.3096C38.2742 18.3732 38.2879 18.4405 38.2885 18.5041C38.2899 18.5661 38.2838 18.6282 38.2661 18.6802C38.2327 18.7867 38.1681 18.8587 38.1095 18.8992C38.0496 18.9406 37.9959 18.9536 37.9598 18.9582C37.9237 18.9636 37.9046 18.9597 37.9046 18.9597Z" fill="#263238"/>
<path d="M46.734 17.1112H44.7192C44.4429 17.1112 44.1897 17.2835 44.061 17.5584C43.9555 17.7843 43.9474 18.0516 44.0386 18.2851L44.8288 20.3045L46.8463 20.2823C46.8463 20.2815 47.2758 17.7223 46.734 17.1112Z" fill="#FAFAFA"/>
<path d="M18.7529 16.8255L29.1486 16.6104L35.9144 16.471L38.1456 15.0221C38.326 14.905 38.3743 14.6354 38.2484 14.4486L36.8598 12.3955C36.7148 12.1811 36.4902 12.0548 36.2513 12.0525L28.6837 11.9835C28.6837 11.9835 25.8338 11.7975 23.589 13.2118C21.2258 14.6997 18.7529 16.8255 18.7529 16.8255Z" fill="#263238"/>
<path d="M23.5174 12.1949C23.5174 12.1949 24.0388 12.4622 23.6991 12.7103C23.3602 12.9577 18.0932 16.6939 18.0932 16.6939L16.8823 16.0774C19.0271 14.7327 21.1929 13.4271 23.5174 12.1949Z" fill="#455A64"/>
<path d="M18.2634 16.7872C18.2634 16.7872 18.2526 16.7911 18.2308 16.7964C18.2076 16.8018 18.1756 16.8102 18.1348 16.8202C18.049 16.8401 17.9245 16.8692 17.7652 16.9059C17.4439 16.9779 16.9784 17.079 16.4012 17.19C15.2468 17.4136 13.6431 17.674 11.8618 17.8478C11.4167 17.8915 10.9811 17.9275 10.5604 17.9581C10.1398 17.9895 9.73411 18.0178 9.34886 18.0577C8.57835 18.1335 7.88748 18.2598 7.32662 18.4474C6.76439 18.6289 6.33422 18.8617 6.05174 19.0455C5.90676 19.1313 5.80398 19.2155 5.73047 19.266C5.69508 19.2913 5.66785 19.3112 5.64743 19.325C5.62837 19.338 5.61816 19.3442 5.61816 19.3442C5.61816 19.3442 5.62701 19.3357 5.64471 19.3219C5.66445 19.3066 5.69099 19.286 5.72571 19.2592C5.79786 19.2063 5.89996 19.1198 6.04426 19.0317C6.32537 18.8433 6.75555 18.6052 7.31913 18.4199C7.88136 18.2277 8.57359 18.0982 9.34545 18.0209C9.73139 17.9803 10.1371 17.9504 10.5577 17.919C10.9784 17.8876 11.4133 17.8517 11.8584 17.808C13.6391 17.6349 15.242 17.3792 16.3971 17.1625C16.975 17.0545 17.4405 16.958 17.7632 16.8906C17.9231 16.8569 18.0477 16.8301 18.1341 16.8117C18.1756 16.8033 18.2076 16.7972 18.2308 16.7918C18.2519 16.788 18.2634 16.7872 18.2634 16.7872Z" fill="#263238"/>
<path d="M47.5393 22.0244C47.5393 22.0351 46.8464 22.0443 45.9922 22.0443C45.1372 22.0443 44.4443 22.0351 44.4443 22.0244C44.4443 22.0137 45.1372 22.0045 45.9922 22.0045C46.8464 22.0045 47.5393 22.0137 47.5393 22.0244Z" fill="#263238"/>
<path d="M34.8635 24.0139C34.8635 24.0247 30.9525 24.0338 26.1286 24.0338C21.3035 24.0338 17.3931 24.0247 17.3931 24.0139C17.3931 24.0032 21.3035 23.994 26.1286 23.994C30.9525 23.994 34.8635 24.0024 34.8635 24.0139Z" fill="#263238"/>
<path d="M7.47812 22.0902C7.47812 22.1009 6.92474 22.1101 6.24272 22.1101C5.5607 22.1101 5.00732 22.1009 5.00732 22.0902C5.00732 22.0795 5.56002 22.0703 6.24272 22.0703C6.92474 22.0703 7.47812 22.0795 7.47812 22.0902Z" fill="#263238"/>
<path d="M43.4385 13.545C43.4385 13.545 42.9743 14.1301 43.1567 14.5589C43.3391 14.9878 45.2246 16.4894 45.2246 16.4894L46.5934 16.7781L43.4385 13.545Z" fill="#455A64"/>
<path d="M30.4244 12.4989L30.1167 16.2382L35.6246 16.0613L37.8442 14.6101L36.4074 12.4989H30.4244Z" fill="#455A64"/>
<path d="M20.0571 16.4297C20.0571 16.4297 23.3801 13.7296 24.6911 13.1935C25.9564 12.6758 26.616 12.5457 27.8044 12.5081C28.9404 12.4721 29.6326 12.5074 29.6326 12.5074L28.7546 16.3094L20.0571 16.4297Z" fill="#455A64"/>
<path d="M19.5713 16.4419C19.5713 16.2052 19.685 15.987 19.8681 15.8706L20.6311 15.3882C20.8489 15.2503 21.0939 15.1783 21.3437 15.1783C21.4989 15.1783 21.6521 15.2059 21.797 15.2595C22.1231 15.3797 22.3402 15.7282 22.3538 16.1141C22.3722 16.6502 21.9904 17.0966 21.5132 17.0966H20.1533C19.832 17.0974 19.5713 16.8041 19.5713 16.4419Z" fill="#0000FF"/>
<path d="M19.571 16.4419C19.573 16.4419 19.573 16.471 19.5799 16.5246C19.586 16.5782 19.6037 16.6578 19.6466 16.7489C19.6915 16.8385 19.7664 16.9381 19.8807 17.0078C19.9379 17.0415 20.0046 17.0667 20.0767 17.0774C20.1489 17.0874 20.2285 17.0813 20.3116 17.082C20.6437 17.0805 21.0385 17.0797 21.4762 17.0774C21.5851 17.0782 21.6947 17.0629 21.8002 17.0177C21.9057 16.9733 22.0044 16.9036 22.0881 16.8117C22.1711 16.7198 22.2399 16.6073 22.2821 16.4801C22.3249 16.353 22.342 16.2137 22.3331 16.075C22.3147 15.7963 22.182 15.539 21.9894 15.3897C21.8941 15.3131 21.7845 15.2695 21.6736 15.2404C21.5633 15.2105 21.4523 15.1967 21.3441 15.1967C21.127 15.1967 20.9221 15.2511 20.7465 15.3407C20.6587 15.3851 20.5784 15.441 20.4987 15.4892C20.4198 15.539 20.3436 15.5865 20.2714 15.6317C20.1264 15.722 19.9957 15.8032 19.88 15.8759C19.765 15.9456 19.6901 16.0459 19.6466 16.1355C19.6023 16.2259 19.586 16.3063 19.5792 16.3599C19.5724 16.4135 19.573 16.4419 19.571 16.4419C19.571 16.4419 19.5676 16.4128 19.5724 16.3576C19.5771 16.3032 19.5914 16.2213 19.635 16.1271C19.6779 16.0345 19.7541 15.9288 19.8712 15.8553C19.9862 15.7818 20.1162 15.6983 20.2598 15.6064C20.332 15.5604 20.4075 15.5122 20.4858 15.4617C20.5648 15.4127 20.6451 15.356 20.7349 15.31C20.9133 15.2174 21.1229 15.1599 21.3448 15.1592C21.4557 15.1592 21.5694 15.173 21.6824 15.2028C21.7947 15.2319 21.9104 15.2771 22.0098 15.3575C22.2106 15.513 22.3495 15.7818 22.3685 16.072C22.378 16.2167 22.3603 16.3622 22.3154 16.4947C22.2712 16.6272 22.1997 16.7451 22.1126 16.8401C22.0255 16.9358 21.922 17.0085 21.8124 17.0537C21.7028 17.1004 21.5864 17.1157 21.4762 17.1142C21.0385 17.1127 20.6444 17.1111 20.3116 17.1096C20.2285 17.1081 20.1502 17.1127 20.074 17.102C19.9985 17.0905 19.9297 17.0629 19.8712 17.0269C19.7534 16.9526 19.6785 16.8477 19.6343 16.7558C19.5921 16.6616 19.5764 16.5797 19.5724 16.5253C19.5683 16.471 19.571 16.4419 19.571 16.4419Z" fill="#263238"/>
<path d="M45.1722 26.4192C45.1722 26.4192 45.1722 26.4008 45.1743 26.3663C45.1763 26.3303 45.1797 26.2783 45.1838 26.2109C45.1872 26.1427 45.1947 26.0585 45.1988 25.9582C45.2015 25.8578 45.2056 25.7422 45.209 25.6128C45.2104 25.4826 45.2083 25.3379 45.207 25.1801C45.1981 25.0224 45.1974 24.8501 45.1784 24.6671C45.1491 24.2995 45.0946 23.8821 44.9817 23.4349C44.9231 23.2129 44.8564 22.9808 44.7645 22.7496C44.6774 22.516 44.5665 22.2832 44.4358 22.0535C44.1764 21.5925 43.8096 21.1682 43.3719 20.8037C42.9329 20.4408 42.4135 20.149 41.8452 19.9576C41.2775 19.7615 40.6595 19.6903 40.0305 19.6857C39.4009 19.6842 38.7856 19.7799 38.22 19.9821C37.9375 20.0824 37.6673 20.2087 37.4141 20.3565C37.1616 20.5051 36.9295 20.6827 36.7144 20.8711C36.2862 21.2509 35.9248 21.6767 35.6362 22.1147C35.4939 22.3353 35.3789 22.565 35.2782 22.7917C35.1829 23.0214 35.0964 23.2443 35.0304 23.4648C34.7548 24.3424 34.6683 25.0967 34.6377 25.6136C34.6268 25.8732 34.6282 26.0753 34.6336 26.2116C34.637 26.279 34.6397 26.3311 34.6418 26.3671C34.6431 26.4023 34.6431 26.4199 34.6431 26.4199C34.6431 26.4199 34.6411 26.4023 34.6377 26.3671C34.635 26.3311 34.6309 26.279 34.6261 26.2116C34.6179 26.0746 34.6145 25.8724 34.6234 25.612C34.6499 25.0936 34.733 24.3363 35.0066 23.4548C35.0726 23.2335 35.1584 23.0092 35.2537 22.7779C35.3544 22.5497 35.4701 22.3184 35.6131 22.0948C35.9023 21.653 36.2645 21.2241 36.6946 20.842C36.9111 20.6521 37.1439 20.4729 37.3984 20.3228C37.6537 20.1743 37.9253 20.0464 38.2098 19.9453C38.7788 19.7416 39.3989 19.6443 40.0312 19.6466C40.6629 19.6512 41.2836 19.7232 41.8554 19.9208C42.4271 20.1145 42.9492 20.4086 43.391 20.7754C43.6122 20.9584 43.813 21.1583 43.9927 21.3696C44.1724 21.5802 44.3309 21.8038 44.4603 22.0366C44.5916 22.2679 44.7026 22.503 44.789 22.7381C44.8809 22.9709 44.9463 23.2044 45.0048 23.428C45.1171 23.8776 45.1695 24.2972 45.1974 24.6655C45.2158 24.8493 45.2151 25.0224 45.2233 25.1801C45.2233 25.3387 45.224 25.4834 45.2219 25.6136C45.2165 25.7437 45.2124 25.8586 45.2083 25.9597C45.2029 26.06 45.1947 26.1442 45.1899 26.2124C45.1845 26.2798 45.1804 26.3311 45.177 26.3679C45.1743 26.4008 45.1722 26.4192 45.1722 26.4192Z" fill="white"/>
<path d="M28.6089 16.8256C28.6089 16.8264 28.6034 16.8271 28.5932 16.8279C28.581 16.8286 28.5653 16.8294 28.5469 16.8302C28.5034 16.8309 28.4442 16.8325 28.3693 16.8348C28.2121 16.8378 27.9895 16.8424 27.7165 16.8478C27.1652 16.8593 26.4042 16.8823 25.5629 16.9083C24.7216 16.9343 23.96 16.9527 23.4086 16.9565C23.133 16.9588 22.9097 16.9588 22.7552 16.9573C22.6803 16.9558 22.6211 16.955 22.5776 16.9542C22.5592 16.9535 22.5442 16.9527 22.5313 16.9527C22.5211 16.9519 22.5156 16.9512 22.5156 16.9504C22.5156 16.9496 22.5211 16.9489 22.5313 16.9481C22.5435 16.9473 22.5592 16.9466 22.5776 16.9458C22.6211 16.945 22.6803 16.9435 22.7552 16.9412C22.9124 16.9382 23.135 16.9336 23.408 16.9282C23.9593 16.9167 24.721 16.8937 25.5623 16.8677C26.4035 16.8417 27.1652 16.8233 27.7165 16.8195C27.9922 16.8172 28.2155 16.8172 28.37 16.8187C28.4448 16.8202 28.5041 16.821 28.5476 16.8218C28.566 16.8225 28.581 16.8233 28.5939 16.8233C28.6041 16.8241 28.6089 16.8248 28.6089 16.8256Z" fill="white"/>
<path d="M27.7062 17.9773C27.7062 17.988 27.4394 17.9972 27.1099 17.9972C26.7805 17.9972 26.5137 17.988 26.5137 17.9773C26.5137 17.9666 26.7805 17.9574 27.1099 17.9574C27.4394 17.9574 27.7062 17.9658 27.7062 17.9773Z" fill="white"/>
<path d="M27.9257 13.8789C27.9291 13.8888 27.1893 14.2357 26.2724 14.6531C25.3556 15.0704 24.6096 15.4005 24.6055 15.3905C24.6021 15.3806 25.342 15.0337 26.2588 14.6163C27.1756 14.199 27.9223 13.8689 27.9257 13.8789Z" fill="white"/>
<path d="M26.4255 14.1407C26.4296 14.1507 25.7245 14.4999 24.8512 14.921C23.9779 15.3422 23.2666 15.6746 23.2632 15.6646C23.2591 15.6547 23.9643 15.3055 24.8376 14.8843C25.7109 14.4631 26.4221 14.1308 26.4255 14.1407Z" fill="white"/>
<path d="M35.9384 13.7341C35.9418 13.7441 35.202 14.091 34.2851 14.5083C33.3683 14.9257 32.6223 15.2557 32.6182 15.2457C32.6148 15.2358 33.3546 14.8889 34.2715 14.4715C35.189 14.0542 35.935 13.7242 35.9384 13.7341Z" fill="white"/>
<path d="M34.4387 13.9961C34.4428 14.006 33.7376 14.3552 32.8644 14.7764C31.9911 15.1976 31.2798 15.5299 31.2764 15.52C31.2723 15.51 31.9775 15.1608 32.8507 14.7396C33.7234 14.3185 34.4346 13.9861 34.4387 13.9961Z" fill="white"/>
<path d="M36.0834 16.8248C36.0834 16.8355 34.6111 16.8546 32.7951 16.8669C30.9784 16.8791 29.5068 16.8799 29.5068 16.8692C29.5068 16.8585 30.9784 16.8393 32.7951 16.8271C34.6111 16.8148 36.0834 16.814 36.0834 16.8248Z" fill="white"/>
<path d="M37.7132 17.913C37.7132 17.9237 37.3008 17.9375 36.7909 17.9428C36.2811 17.9482 35.8687 17.9436 35.8687 17.9329C35.8687 17.9221 36.2811 17.9084 36.7909 17.903C37.3001 17.8976 37.7132 17.9022 37.7132 17.913Z" fill="white"/>
<path d="M9.52406 17.347C9.52406 17.3485 9.51045 17.3516 9.4839 17.3554C9.45395 17.36 9.41584 17.3654 9.36819 17.3723C9.31782 17.3784 9.25656 17.3876 9.18577 17.4006C9.11498 17.4136 9.03399 17.4251 8.9455 17.445C8.76785 17.4795 8.55821 17.5323 8.32746 17.6013C8.09808 17.6732 7.8476 17.7628 7.59167 17.8746C7.33574 17.9887 7.09819 18.1136 6.88651 18.2368C6.6755 18.3624 6.49036 18.4842 6.33858 18.5952C6.26166 18.6481 6.19496 18.7017 6.13574 18.7469C6.07584 18.7913 6.02547 18.8319 5.98531 18.8655C5.94652 18.8962 5.91521 18.9214 5.8907 18.9414C5.86892 18.9582 5.85667 18.9666 5.85599 18.9659C5.85531 18.9651 5.86552 18.9544 5.88594 18.9352C5.90976 18.9138 5.93971 18.887 5.97715 18.8533C6.01662 18.8173 6.06563 18.7752 6.12485 18.7285C6.18339 18.6818 6.24941 18.6266 6.32564 18.5715C6.47607 18.4574 6.66121 18.3326 6.87153 18.2047C7.08322 18.0791 7.32213 17.952 7.57942 17.8379C7.83739 17.7253 8.08855 17.6357 8.31997 17.566C8.55208 17.4986 8.76308 17.4489 8.9421 17.4175C9.03126 17.3991 9.11294 17.3891 9.18373 17.3792C9.2552 17.3677 9.31646 17.3616 9.36683 17.3577C9.41447 17.3539 9.45259 17.3508 9.48322 17.3478C9.50977 17.3455 9.52406 17.3455 9.52406 17.347Z" fill="white"/>
<path d="M21.6787 15.5406C21.676 15.5429 21.6583 15.5107 21.6133 15.4694C21.5684 15.4288 21.4915 15.3821 21.3887 15.3675C21.2853 15.3522 21.1607 15.3721 21.0259 15.4119C20.8905 15.4502 20.7448 15.5038 20.5971 15.5758C20.301 15.719 20.0601 15.9097 19.9001 16.0636C19.7381 16.2168 19.653 16.3293 19.6476 16.324C19.6456 16.3224 19.666 16.2933 19.7048 16.2428C19.7443 16.193 19.8035 16.1226 19.8831 16.0429C20.0403 15.8821 20.2827 15.6853 20.5828 15.5398C20.7326 15.4671 20.8803 15.4135 21.0178 15.3767C21.1539 15.3384 21.2839 15.3208 21.3921 15.3399C21.5004 15.3591 21.5786 15.4119 21.6222 15.4586C21.6447 15.4816 21.6589 15.5031 21.6678 15.5176C21.6766 15.5314 21.68 15.5398 21.6787 15.5406Z" fill="white"/>
<path d="M43.593 13.5182C43.593 13.5182 43.4923 13.5527 43.303 13.5512C43.2091 13.5489 43.0941 13.5359 42.9634 13.5037C42.8327 13.4715 42.6871 13.421 42.5305 13.3536C42.3733 13.287 42.2058 13.202 42.0248 13.1154C41.9336 13.0741 41.8396 13.0312 41.7423 12.9868C41.645 12.9431 41.5422 12.9056 41.4387 12.8627C41.0208 12.7012 40.5511 12.5564 40.0515 12.4377C39.0516 12.2019 38.1273 12.1039 37.4589 12.0748C37.2915 12.0648 37.1404 12.0648 37.0076 12.0602C36.8756 12.0602 36.7612 12.0602 36.6666 12.0602C36.5747 12.0625 36.5033 12.064 36.4509 12.0656C36.4277 12.0656 36.4093 12.0656 36.395 12.0663C36.3821 12.0663 36.376 12.0656 36.376 12.0648C36.376 12.064 36.3821 12.0633 36.395 12.0617C36.4093 12.061 36.4284 12.0594 36.4509 12.0571C36.5026 12.0541 36.5747 12.0495 36.6666 12.0441C36.7612 12.0426 36.8756 12.0403 37.0083 12.0372C37.1417 12.0395 37.2935 12.0372 37.4609 12.0457C38.1307 12.0679 39.0571 12.1613 40.0597 12.3979C40.5607 12.5166 41.0317 12.6636 41.4503 12.8275C41.5544 12.8704 41.6572 12.9087 41.7545 12.9531C41.8519 12.9983 41.9465 13.0419 42.0377 13.084C42.2188 13.1729 42.3848 13.2586 42.5407 13.326C42.6959 13.395 42.8402 13.447 42.9688 13.4807C43.0982 13.5152 43.2118 13.529 43.3044 13.5343C43.3977 13.5374 43.4705 13.532 43.5188 13.5251C43.5413 13.5221 43.5597 13.5198 43.5746 13.5175C43.5862 13.5175 43.593 13.5175 43.593 13.5182Z" fill="#263238"/>
<path d="M10.8447 13.6232C10.5731 11.9476 10.39 11.6903 10.2355 11.1137C10.0837 10.544 9.83729 10.1626 9.53304 10.0309C9.32748 9.94208 8.30377 9.52627 7.94642 9.66411C7.5496 9.81726 7.20314 10.0401 6.95742 10.2231C6.71851 10.4015 6.53746 10.6619 6.44149 10.9659L5.89355 12.6943L6.85192 13.7702L7.33247 12.6215L7.85385 13.9969L7.77694 15.3867L10.7678 16.2919C11.04 15.801 10.9992 14.5743 10.8447 13.6232Z" fill="#0000FF"/>
<g opacity="0.2">
<path d="M10.066 11.796C9.93394 12.6682 9.91284 12.7885 9.78079 13.6607C9.73518 13.9601 9.60314 14.4272 9.41323 14.6432C9.27302 14.8032 9.13552 14.9579 8.94017 15.01C8.75844 15.0582 8.48345 15.0636 8.31261 14.9793C8.14176 14.8943 7.99678 14.5222 8.06689 14.3277C8.32009 14.3889 8.39905 14.4839 8.61754 14.3277C8.80813 14.1914 9.07903 13.8896 9.18249 13.6637C9.62015 12.7134 9.73995 12.6797 10.066 11.796Z" fill="black"/>
</g>
<path d="M7.90112 13.4853C7.89703 13.4884 7.84734 13.3988 7.76907 13.2533C7.68535 13.0994 7.57848 12.9041 7.46073 12.6881C7.34025 12.4737 7.23067 12.2808 7.1449 12.1284C7.0639 11.9852 7.01422 11.8963 7.0183 11.8933C7.02034 11.8917 7.03532 11.9116 7.06118 11.9499C7.08705 11.9875 7.12244 12.0434 7.166 12.113C7.25313 12.2524 7.36884 12.4477 7.49068 12.6675C7.61252 12.888 7.71734 13.0909 7.79017 13.2395C7.82692 13.3138 7.85551 13.375 7.87457 13.4172C7.89431 13.46 7.90384 13.4838 7.90112 13.4853Z" fill="#263238"/>
<path d="M9.98829 15.0498C9.98897 15.0521 9.96379 15.0628 9.91819 15.0797C9.89504 15.0881 9.86714 15.098 9.8331 15.1065C9.79975 15.1149 9.76163 15.1264 9.71875 15.1333C9.63367 15.1509 9.53089 15.1616 9.41586 15.1639C9.30151 15.1639 9.17491 15.1539 9.0449 15.1279C8.91489 15.1003 8.79374 15.0597 8.68619 15.0138C8.58001 14.9663 8.48676 14.915 8.41257 14.8645C8.37445 14.8415 8.34246 14.8155 8.31387 14.794C8.28528 14.7733 8.26146 14.7527 8.24308 14.7358C8.20497 14.7021 8.18523 14.6822 8.18659 14.6799C8.19067 14.6738 8.27439 14.7481 8.42482 14.84C8.49969 14.8867 8.59226 14.9342 8.69776 14.9793C8.80395 15.0222 8.92306 15.0613 9.05103 15.0881C9.17899 15.1133 9.30287 15.1241 9.41586 15.1264C9.52885 15.1264 9.63027 15.1187 9.71467 15.1042C9.88415 15.0789 9.98625 15.0429 9.98829 15.0498Z" fill="#263238"/>
<path d="M8.78825 12.4392C8.78281 12.4691 8.46154 13.1889 8.46154 13.1889L6.94503 12.2907L6.79052 11.5555C6.76602 11.4406 6.7034 11.3411 6.61559 11.2768C6.52234 11.2086 6.40799 11.1872 6.29976 11.2163L5.85257 11.4223C5.81514 11.4391 5.78655 11.4751 5.77906 11.5195C5.77293 11.557 5.7811 11.593 5.83828 11.5877C5.94923 11.5777 6.18065 11.5501 6.18065 11.5501L6.07515 11.969C6.04724 12.0785 6.05813 12.1965 6.1051 12.2975L6.17248 12.4423L6.32019 12.7111L6.31746 12.7134C6.31746 12.7134 7.79177 14.4172 8.61945 14.5275C9.11701 14.5941 9.6806 13.025 9.6806 13.025L8.78825 12.4392Z" fill="#B78876"/>
<path d="M6.16709 11.5784C6.16573 11.5761 6.17866 11.5608 6.20384 11.5417C6.22903 11.5233 6.26919 11.4996 6.31888 11.5019C6.36993 11.5049 6.40736 11.5425 6.42029 11.5754C6.43391 11.6098 6.42506 11.6328 6.42302 11.632C6.41893 11.632 6.42166 11.6098 6.40668 11.5838C6.39239 11.5585 6.35904 11.5294 6.31752 11.5271C6.27531 11.5248 6.23788 11.5432 6.21133 11.5578C6.18547 11.5715 6.16913 11.5815 6.16709 11.5784Z" fill="#AA6550"/>
<path d="M6.35833 11.8396C6.35493 11.8411 6.3488 11.8258 6.33383 11.8051C6.31953 11.7852 6.29571 11.76 6.26372 11.7462C6.23173 11.7316 6.19906 11.7316 6.1766 11.7355C6.15345 11.7393 6.13984 11.7446 6.1378 11.7416C6.13644 11.7393 6.14869 11.727 6.17319 11.7178C6.19701 11.7094 6.23445 11.7064 6.27189 11.7224C6.30932 11.7393 6.33451 11.7699 6.34676 11.7952C6.35969 11.8212 6.36105 11.8388 6.35833 11.8396Z" fill="#AA6550"/>
<path d="M9.10282 10.1672L8.69238 12.3565L9.78076 13.0924L10.1987 11.747C10.1987 11.747 10.0258 10.1136 9.10282 10.1672Z" fill="#0000FF"/>
<path d="M9.68933 10.2062C9.69001 10.2078 9.68048 10.2139 9.66142 10.2261C9.64237 10.2376 9.61514 10.2545 9.57838 10.2752C9.50623 10.3165 9.40073 10.3747 9.268 10.4413C9.00323 10.573 8.62546 10.7415 8.18576 10.825C7.74605 10.9092 7.33493 10.8702 7.0545 10.7821C6.9136 10.7392 6.80334 10.691 6.72983 10.6512C6.69239 10.6328 6.66516 10.6144 6.6461 10.6037C6.62705 10.5922 6.61752 10.5853 6.6182 10.5845C6.61956 10.5815 6.6604 10.6029 6.73527 10.6374C6.81014 10.6726 6.92041 10.7162 7.06063 10.7553C7.3397 10.8349 7.74469 10.8694 8.17963 10.7859C8.61457 10.7032 8.99098 10.5409 9.25779 10.4161C9.3912 10.3533 9.49875 10.2989 9.57226 10.2621C9.64713 10.2231 9.68865 10.2032 9.68933 10.2062Z" fill="#EBEBEB"/>
<path d="M9.97617 10.4475C9.97685 10.449 9.96664 10.4574 9.94622 10.4727C9.9224 10.4903 9.89245 10.5118 9.8557 10.5378C9.81622 10.5661 9.76789 10.5998 9.70867 10.6335C9.65014 10.668 9.58479 10.7109 9.50788 10.7484C9.46976 10.7683 9.43028 10.7882 9.38876 10.8097C9.34724 10.8311 9.30232 10.8487 9.25672 10.8686C9.16619 10.9115 9.06545 10.946 8.96063 10.9843C8.74894 11.0539 8.51139 11.1137 8.25819 11.1489C8.00498 11.1811 7.76131 11.1857 7.54077 11.1734C7.43051 11.1635 7.32569 11.1566 7.22903 11.1389C7.18071 11.1305 7.13306 11.1252 7.08882 11.116C7.04457 11.106 7.00169 11.0968 6.96017 11.0876C6.87781 11.0716 6.80566 11.0471 6.74168 11.0287C6.67702 11.0111 6.62325 10.9912 6.579 10.9735C6.53816 10.9575 6.50481 10.9444 6.47758 10.9337C6.45444 10.9245 6.44287 10.9184 6.44287 10.9176C6.44355 10.9161 6.4558 10.9192 6.47963 10.9261C6.50685 10.9345 6.54089 10.9452 6.58241 10.9582C6.62665 10.9735 6.6811 10.9912 6.74576 11.0065C6.80975 11.0225 6.88258 11.0455 6.96426 11.0593C7.0051 11.0677 7.04798 11.0762 7.09222 11.0853C7.13646 11.0938 7.18343 11.0984 7.23176 11.106C7.32841 11.1221 7.43255 11.1282 7.54145 11.1366C7.75995 11.1466 8.00158 11.1412 8.25274 11.1091C8.50391 11.0739 8.73942 11.0157 8.94974 10.949C9.05388 10.9115 9.15394 10.8786 9.24446 10.838C9.29007 10.8181 9.33431 10.8012 9.37583 10.7813C9.41735 10.7607 9.45683 10.7415 9.49495 10.7224C9.57186 10.6871 9.6372 10.6458 9.69642 10.6136C9.75564 10.5815 9.80533 10.5501 9.84549 10.524C9.88292 10.5003 9.91423 10.4811 9.93874 10.4658C9.96392 10.4528 9.97549 10.4467 9.97617 10.4475Z" fill="#EBEBEB"/>
<path d="M9.78085 13.0925C9.77949 13.0948 9.74886 13.0764 9.69236 13.0419C9.63178 13.0037 9.55147 12.9531 9.45277 12.8903C9.24517 12.7555 8.96133 12.5718 8.63394 12.3596L8.62305 12.3527L8.62509 12.3397C8.65436 12.1758 8.68567 12.0005 8.71766 11.8198C8.76735 11.5471 8.81431 11.2883 8.85719 11.0517C8.87966 10.9338 8.89803 10.8212 8.91845 10.7163C8.94023 10.6114 8.96746 10.5141 9.00558 10.4314C9.08045 10.2637 9.20025 10.1726 9.28669 10.1412C9.33093 10.1251 9.36701 10.1213 9.39083 10.122C9.41465 10.1228 9.42759 10.1251 9.42759 10.1266C9.42827 10.132 9.37586 10.1213 9.29145 10.1565C9.20909 10.191 9.09679 10.2821 9.02804 10.4444C8.99265 10.5248 8.96678 10.6198 8.94704 10.7232C8.92866 10.8289 8.9096 10.9407 8.88918 11.0586C8.84698 11.2952 8.8007 11.5548 8.75237 11.8274C8.7197 12.0081 8.68771 12.1835 8.65844 12.3474L8.65027 12.3275C8.97495 12.5442 9.25674 12.7326 9.4623 12.8704C9.55895 12.937 9.63791 12.9906 9.69713 13.0312C9.75294 13.0687 9.78153 13.091 9.78085 13.0925Z" fill="#263238"/>
<path d="M10.1142 11.6827C10.1183 11.6827 10.1197 11.7609 10.1088 11.8872C10.0979 12.0128 10.0741 12.1859 10.0305 12.3719C9.98696 12.5588 9.93183 12.7219 9.88622 12.8375C9.84062 12.9532 9.80591 13.0206 9.80182 13.0183C9.79706 13.016 9.8236 12.944 9.86308 12.8268C9.90256 12.7096 9.95293 12.5465 9.99649 12.362C10.0394 12.1774 10.0673 12.0074 10.0843 11.8834C10.1006 11.7593 10.1088 11.682 10.1142 11.6827Z" fill="#263238"/>
<path d="M4.20886 23.86L4.19661 25.0293C4.19661 25.0293 3.13614 25.4084 3.11572 25.6243L5.12979 25.7323L5.21488 23.9113L4.20886 23.86Z" fill="#455A64"/>
<path d="M4.82351 24.9643C4.86231 24.9781 4.88681 25.0294 4.87592 25.073C4.86503 25.1167 4.81943 25.1458 4.78063 25.1327C4.74183 25.1197 4.71052 25.0592 4.7255 25.0171C4.74047 24.975 4.79629 24.9444 4.831 24.9673" fill="#E0E0E0"/>
<path d="M5.12967 25.7315L5.13171 25.5478L3.2 25.5133C3.2 25.5133 3.10879 25.5524 3.1156 25.6243L5.12967 25.7315Z" fill="#E0E0E0"/>
<path d="M4.1646 25.0155C4.1646 25.0263 4.21361 25.0339 4.26057 25.0722C4.30822 25.109 4.33136 25.158 4.34021 25.1541C4.34906 25.1526 4.33749 25.0852 4.28031 25.0408C4.22314 24.9956 4.16256 25.0056 4.1646 25.0155Z" fill="#263238"/>
<path d="M3.94935 25.1028C3.94662 25.1135 3.98814 25.1342 4.02013 25.1832C4.05281 25.2307 4.05893 25.282 4.06914 25.282C4.07799 25.2843 4.08752 25.22 4.04804 25.1603C4.0072 25.0998 3.95003 25.0921 3.94935 25.1028Z" fill="#263238"/>
<path d="M3.81754 25.3808C3.82638 25.3838 3.84272 25.3287 3.81958 25.2674C3.79712 25.2054 3.75219 25.1786 3.74743 25.1878C3.7413 25.1962 3.76989 25.2307 3.78759 25.282C3.80664 25.3325 3.80733 25.3792 3.81754 25.3808Z" fill="#263238"/>
<path d="M4.19369 24.7498C4.19709 24.7597 4.24338 24.7475 4.29851 24.7544C4.35432 24.7605 4.39652 24.7835 4.40197 24.7743C4.4081 24.7666 4.36726 24.7237 4.30191 24.7161C4.23657 24.7077 4.18892 24.7406 4.19369 24.7498Z" fill="#263238"/>
<g opacity="0.3">
<path d="M4.20682 24.0913L4.2041 24.2996L5.19446 24.3425L5.20399 24.1556L4.20682 24.0913Z" fill="black"/>
</g>
<path d="M4.19971 24.514C4.19971 24.5186 4.23782 24.5278 4.30044 24.5186C4.33176 24.514 4.36851 24.5048 4.40731 24.488C4.42705 24.4795 4.44679 24.4688 4.46653 24.4566C4.47605 24.4504 4.48763 24.4443 4.49784 24.4313C4.50941 24.4206 4.51689 24.3915 4.50464 24.3723C4.49511 24.3547 4.47742 24.3455 4.46244 24.3448C4.44747 24.3432 4.43522 24.3463 4.42432 24.3486C4.40186 24.3532 4.38008 24.3609 4.36034 24.3693C4.32086 24.3869 4.28887 24.4099 4.26437 24.4328C4.21536 24.4788 4.19767 24.5194 4.20107 24.5217C4.20515 24.5255 4.22966 24.4918 4.27866 24.4543C4.30317 24.4359 4.33448 24.4168 4.37123 24.4022C4.38961 24.3953 4.40935 24.3892 4.42977 24.3854C4.45155 24.38 4.46925 24.3808 4.47469 24.3923C4.47674 24.3961 4.47674 24.3984 4.47197 24.4045C4.46721 24.4106 4.45836 24.4168 4.44883 24.4229C4.43045 24.4351 4.41207 24.4451 4.39438 24.4543C4.3583 24.4719 4.32427 24.4834 4.295 24.491C4.23782 24.5071 4.19971 24.5079 4.19971 24.514Z" fill="#263238"/>
<path d="M4.21209 24.5308C4.21549 24.5324 4.23659 24.4941 4.2434 24.4229C4.2468 24.3876 4.24544 24.344 4.23455 24.298C4.2291 24.2751 4.22162 24.2513 4.21209 24.2276C4.2012 24.2046 4.18826 24.174 4.15015 24.1671C4.13041 24.1656 4.11271 24.1816 4.10658 24.1962C4.0991 24.2115 4.09774 24.2245 4.09433 24.2375C4.08957 24.2636 4.08889 24.2896 4.09093 24.3141C4.09501 24.3624 4.11135 24.4037 4.12905 24.4336C4.1658 24.4941 4.20664 24.5102 4.20732 24.5063C4.21073 24.501 4.17737 24.478 4.14947 24.4198C4.13585 24.3915 4.12428 24.3539 4.12224 24.3118C4.12088 24.2904 4.12224 24.2682 4.127 24.2467C4.13109 24.223 4.13994 24.2039 4.1481 24.2069C4.15831 24.2069 4.17465 24.2261 4.18214 24.246C4.19167 24.2666 4.19915 24.2881 4.2046 24.3088C4.21549 24.3501 4.21957 24.3899 4.21957 24.4229C4.21889 24.488 4.20664 24.5285 4.21209 24.5308Z" fill="#263238"/>
<path d="M8.31303 15.3974C8.31303 15.3974 5.16771 13.9133 4.19368 13.8498C3.58313 13.81 3.12096 14.251 3.204 14.9624C3.24553 15.3178 4.11473 19.4813 4.11473 19.4813L5.44065 18.7997L4.80355 15.9212L7.38734 17.3341L8.31303 15.3974Z" fill="#263238"/>
<path d="M4.40694 15.1929C4.39673 15.2029 4.50087 15.3537 4.61046 15.5536C4.72073 15.7535 4.79424 15.9258 4.80649 15.9197C4.81806 15.9151 4.76225 15.7297 4.64994 15.526C4.53831 15.3224 4.41579 15.1837 4.40694 15.1929Z" fill="#455A64"/>
<path d="M4.14962 15.3584C4.14282 15.3714 4.30209 15.4847 4.48791 15.6394C4.67441 15.7933 4.81803 15.9296 4.82688 15.9189C4.83505 15.909 4.70436 15.7535 4.51514 15.5973C4.3266 15.4411 4.15507 15.3469 4.14962 15.3584Z" fill="#455A64"/>
<path d="M10.7674 16.2904C10.7674 16.2904 10.372 16.8639 9.99421 17.0209C9.52047 17.2177 6.01508 19.0785 6.01508 19.0785C6.01508 19.0785 5.37934 24.3915 5.42971 24.1702L3.96289 24.1304L4.12216 19.2363C4.14122 18.6091 4.58774 17.8901 5.06692 17.57L8.3123 15.3975L10.7674 16.2904Z" fill="#263238"/>
<path d="M4.09403 20.1315C4.09539 20.1315 4.09743 20.1085 4.10016 20.0641C4.1022 20.0151 4.1056 19.9508 4.10901 19.8719C4.11717 19.7049 4.12534 19.4622 4.16686 19.1681C4.21042 18.8764 4.28938 18.5241 4.48405 18.1979C4.5807 18.0356 4.71003 17.8885 4.86113 17.7599C5.01224 17.6312 5.18241 17.5179 5.3587 17.4053C6.06454 16.9505 6.67373 16.4864 7.12433 16.1686C7.34894 16.0078 7.53136 15.8799 7.65796 15.7926C7.71786 15.7512 7.76619 15.7176 7.80362 15.6915C7.83698 15.6678 7.85399 15.6548 7.85331 15.6532C7.85263 15.6517 7.83425 15.6617 7.79954 15.6823C7.76483 15.703 7.71378 15.7336 7.64911 15.775C7.51911 15.8569 7.33397 15.9802 7.10731 16.1372C6.65195 16.4473 6.04004 16.9068 5.33623 17.3601C5.15994 17.4727 4.98774 17.5868 4.83391 17.7193C4.68008 17.851 4.54735 18.0034 4.44865 18.1711C4.25126 18.508 4.17435 18.8672 4.13487 19.1628C4.09743 19.4607 4.09403 19.7042 4.09131 19.8711C4.09131 19.9508 4.09131 20.0143 4.09131 20.0641C4.09199 20.1085 4.09267 20.1315 4.09403 20.1315Z" fill="#455A64"/>
<path d="M9.47288 16.8508C9.47833 16.8439 9.43544 16.7995 9.38303 16.7145C9.33062 16.6303 9.27209 16.5016 9.24418 16.3485C9.21695 16.1946 9.2258 16.0506 9.24554 15.9503C9.2646 15.8492 9.28842 15.7895 9.28162 15.7856C9.27753 15.7826 9.24282 15.8377 9.21423 15.9411C9.18564 16.0437 9.16999 16.1961 9.19926 16.3592C9.22852 16.5216 9.29523 16.6556 9.35717 16.7375C9.41843 16.8194 9.46948 16.8547 9.47288 16.8508Z" fill="#455A64"/>
<path d="M4.50207 24.1303C4.50275 24.1303 4.50412 24.1211 4.50684 24.1027C4.50888 24.082 4.51228 24.0552 4.51569 24.0223C4.52249 23.948 4.5327 23.8439 4.54496 23.7129C4.56878 23.4403 4.60281 23.0521 4.64433 22.5742C4.66475 22.333 4.68721 22.0704 4.71104 21.7878C4.73554 21.5052 4.76072 21.2027 4.78046 20.8842C4.80224 20.5664 4.82947 20.2325 4.88052 19.8917C4.93361 19.5517 5.01257 19.2018 5.15006 18.8702C5.28483 18.5371 5.4761 18.2461 5.68234 17.9918C5.89198 17.7391 6.11864 17.5224 6.34666 17.3333C6.8027 16.9557 7.25262 16.6801 7.62358 16.4366C7.9959 16.1961 8.29266 15.9909 8.49006 15.8362C8.58943 15.7596 8.6643 15.6976 8.71467 15.6539C8.73781 15.6333 8.75619 15.6172 8.77117 15.6042C8.78342 15.5927 8.79023 15.5865 8.78955 15.5858C8.78887 15.585 8.78206 15.5896 8.76845 15.6003C8.75279 15.6126 8.73373 15.6271 8.70923 15.6463C8.6575 15.6869 8.58058 15.7466 8.48053 15.8201C8.28041 15.9694 7.98228 16.1685 7.60792 16.4052C7.2356 16.6441 6.78296 16.9167 6.32216 17.295C6.09209 17.4841 5.86271 17.7016 5.64966 17.9574C5.44002 18.2147 5.24603 18.5095 5.10854 18.8487C4.96901 19.1864 4.88937 19.5402 4.83628 19.8833C4.78523 20.2271 4.75868 20.5625 4.73826 20.8811C4.71988 21.1997 4.69606 21.5022 4.6736 21.7847C4.65182 22.0673 4.6314 22.3307 4.61302 22.5719C4.57763 23.0505 4.54836 23.4388 4.52794 23.7122C4.51909 23.8439 4.51228 23.9473 4.50752 24.0223C4.50548 24.0552 4.50412 24.082 4.50343 24.1035C4.50071 24.1211 4.50139 24.1303 4.50207 24.1303Z" fill="#455A64"/>
<path d="M7.95587 6.9693C7.86534 6.6806 7.56449 6.49835 7.3004 6.57263C7.23982 6.58947 7.17992 6.61857 7.11798 6.61704C7.04106 6.61551 6.97164 6.56803 6.89608 6.55118C6.73409 6.51443 6.55712 6.64384 6.52036 6.82533C6.39172 6.79547 6.24878 6.81614 6.146 6.9088C6.0439 7.00146 5.99625 7.17529 6.05887 7.30547C6.08542 7.36137 6.12898 7.40579 6.15348 7.46322C6.19364 7.55741 6.17527 7.67075 6.20317 7.7703C6.24469 7.91809 6.38355 8.00922 6.52036 8.02683C6.65717 8.04444 6.79398 8.00233 6.92671 7.96098" fill="#263238"/>
<path d="M7.32493 9.99792C7.30791 9.85013 7.29634 9.74598 7.29634 9.74598C7.29634 9.74598 6.858 9.74292 6.68103 9.13107C6.59322 8.82705 6.53468 8.31322 6.49929 7.89128C6.4673 7.51145 6.72255 7.17758 7.06152 7.15766L8.2268 7.08875L8.25199 7.29168L8.55896 9.81261C8.60593 10.197 8.36566 10.5508 8.02329 10.6014C7.6816 10.6519 7.36917 10.3816 7.32493 9.99792Z" fill="#B78876"/>
<path d="M6.6636 8.25273C6.66837 8.29561 6.70444 8.32624 6.74392 8.32165C6.7834 8.31705 6.81199 8.27876 6.80722 8.23588C6.80246 8.193 6.76638 8.16237 6.72691 8.16696C6.68743 8.17155 6.65884 8.21061 6.6636 8.25273Z" fill="#263238"/>
<path d="M6.63479 8.13944C6.645 8.14863 6.69264 8.0935 6.76956 8.07971C6.84647 8.06516 6.90909 8.09962 6.9159 8.08737C6.9193 8.08201 6.90773 8.0644 6.8805 8.04908C6.85328 8.033 6.80972 8.02152 6.76139 8.02994C6.71374 8.03913 6.67631 8.06593 6.65589 8.09043C6.63479 8.11494 6.62934 8.13562 6.63479 8.13944Z" fill="#263238"/>
<path d="M7.39444 8.11332C7.3992 8.15621 7.43528 8.18684 7.47476 8.18224C7.51424 8.17765 7.54282 8.13936 7.53806 8.09648C7.53329 8.05359 7.49722 8.02296 7.45774 8.02756C7.41826 8.03215 7.39036 8.07044 7.39444 8.11332Z" fill="#263238"/>
<path d="M7.39321 8.02067C7.40342 8.02986 7.45174 7.97472 7.52866 7.96094C7.60557 7.94639 7.66819 7.98085 7.675 7.9686C7.6784 7.96324 7.66683 7.94562 7.6396 7.93031C7.61238 7.91423 7.56882 7.90274 7.52049 7.91116C7.47284 7.92035 7.43541 7.94716 7.41499 7.97166C7.39389 7.99617 7.38844 8.01684 7.39321 8.02067Z" fill="#263238"/>
<path d="M7.20469 8.71225C7.20401 8.70689 7.155 8.70689 7.07605 8.70918C7.05631 8.71072 7.03657 8.70918 7.03112 8.69463C7.02431 8.67932 7.02908 8.65405 7.03521 8.62648C7.0461 8.56981 7.05767 8.51008 7.06924 8.44805C7.1162 8.19382 7.14683 7.98629 7.1373 7.98476C7.12846 7.98246 7.08285 8.18693 7.03589 8.44116C7.025 8.50396 7.0141 8.56369 7.0039 8.62035C6.99981 8.64716 6.99096 8.67779 7.00594 8.70918C7.01342 8.7245 7.02976 8.73445 7.04269 8.73599C7.05563 8.73828 7.0672 8.73599 7.07673 8.73522C7.15704 8.72527 7.20537 8.71761 7.20469 8.71225Z" fill="#263238"/>
<path d="M7.29639 9.74604C7.29639 9.74604 7.67551 9.70622 8.01108 9.38843C8.01108 9.38843 7.8906 9.85172 7.32497 9.89307L7.29639 9.74604Z" fill="#AA6550"/>
<path d="M7.43943 8.73128C7.4265 8.73281 7.44011 8.827 7.37817 8.90588C7.31623 8.98552 7.2257 8.99088 7.22707 9.00389C7.22707 9.01002 7.24953 9.01844 7.28696 9.01308C7.32372 9.00772 7.37613 8.98475 7.41425 8.93651C7.45236 8.8875 7.46325 8.83006 7.46053 8.79101C7.45781 8.75119 7.44488 8.72975 7.43943 8.73128Z" fill="#263238"/>
<path d="M7.32512 7.68452C7.33601 7.70672 7.41156 7.68145 7.50345 7.67762C7.59534 7.6715 7.67225 7.68834 7.6811 7.66537C7.68519 7.65465 7.66953 7.63474 7.63686 7.61713C7.60419 7.59951 7.55518 7.5865 7.50005 7.58956C7.44491 7.59262 7.39659 7.611 7.36596 7.63244C7.33465 7.65312 7.32035 7.67456 7.32512 7.68452Z" fill="#263238"/>
<path d="M6.62706 7.88365C6.6434 7.9005 6.69377 7.87063 6.75707 7.85838C6.82037 7.84383 6.87687 7.85072 6.8864 7.82775C6.89048 7.81703 6.87891 7.79865 6.85304 7.7841C6.82718 7.76955 6.78634 7.76189 6.74278 7.77108C6.69921 7.78027 6.66382 7.80477 6.64476 7.82928C6.62434 7.85378 6.62026 7.87523 6.62706 7.88365Z" fill="#263238"/>
<path d="M6.44079 7.61634C6.44079 7.61634 6.74913 7.7335 7.10307 7.46701C7.33517 7.29241 7.61697 7.18291 7.68707 7.23039C7.75718 7.2771 7.80279 7.5635 8.05803 7.61174C8.05803 7.61174 8.10296 8.1631 8.29558 8.11562C8.4324 8.08193 8.35276 7.4739 8.2949 7.12701C8.27176 6.9884 8.16626 6.88579 8.04034 6.88043L7.68163 6.86511L7.23375 7.00601L6.75321 7.15304L6.3877 7.32381L6.44079 7.61634Z" fill="#263238"/>
<path d="M8.25293 7.89274C8.26042 7.88661 8.55786 7.71125 8.613 8.07652C8.66813 8.4418 8.33052 8.42878 8.32848 8.41806C8.32576 8.40734 8.25293 7.89274 8.25293 7.89274Z" fill="#B78876"/>
<path d="M8.40652 8.26025C8.40788 8.25872 8.41264 8.26331 8.42285 8.26638C8.43306 8.26944 8.4494 8.26944 8.46505 8.25948C8.49704 8.23881 8.51678 8.17219 8.50861 8.10556C8.50453 8.07187 8.49364 8.042 8.47935 8.0175C8.46573 7.993 8.44736 7.97691 8.42966 7.97691C8.41196 7.97538 8.40107 7.98993 8.39903 8.00065C8.39631 8.01137 8.39971 8.01827 8.39767 8.0198C8.39699 8.02056 8.3895 8.0152 8.39018 7.99912C8.39018 7.99146 8.3929 7.98227 8.39971 7.97385C8.40652 7.96543 8.41741 7.9593 8.42966 7.95854C8.45484 7.95547 8.48139 7.97768 8.49704 8.00372C8.51406 8.03052 8.52699 8.06421 8.53176 8.10174C8.54061 8.17602 8.51746 8.25106 8.47322 8.2748C8.45144 8.28552 8.43102 8.28169 8.42013 8.2748C8.40788 8.26867 8.40515 8.26102 8.40652 8.26025Z" fill="#AA6550"/>
<path d="M6.59645 6.6906C6.59917 6.68906 6.60802 6.70974 6.63049 6.7396C6.65295 6.76947 6.69379 6.80546 6.753 6.82843C6.81222 6.85217 6.88777 6.8583 6.96945 6.83916C7.05113 6.82154 7.13758 6.78249 7.23151 6.74573C7.32476 6.70897 7.42073 6.68294 7.5099 6.68983C7.59906 6.69442 7.67666 6.74037 7.7209 6.79704C7.76719 6.85294 7.78556 6.91497 7.78556 6.95708C7.78692 6.9992 7.7774 7.02141 7.77603 7.02064C7.77263 7.01988 7.7774 6.99767 7.77195 6.95862C7.76719 6.92033 7.74745 6.86519 7.7032 6.81695C7.65964 6.76717 7.59089 6.72965 7.50785 6.72735C7.42549 6.72276 7.33497 6.74803 7.24308 6.78402C7.15119 6.82001 7.06202 6.85983 6.97558 6.87591C6.88982 6.89429 6.80678 6.88434 6.74484 6.85524C6.68222 6.82767 6.64069 6.78479 6.62028 6.74956C6.59849 6.71433 6.59509 6.69136 6.59645 6.6906Z" fill="#455A64"/>
<path d="M7.69305 7.04049C7.69033 7.04279 7.67672 7.02135 7.64268 6.99455C7.60933 6.96774 7.55284 6.94247 7.47933 6.94018C7.40581 6.93635 7.32005 6.96009 7.23157 7.00833C7.1424 7.05428 7.04915 7.12243 6.93616 7.16378C6.70814 7.24649 6.4842 7.1791 6.35488 7.09257C6.28817 7.04968 6.24121 7.00374 6.21194 6.96928C6.18267 6.93405 6.16906 6.91261 6.1711 6.91108C6.17654 6.90495 6.23508 6.99072 6.36713 7.06806C6.49577 7.1454 6.7095 7.20513 6.92595 7.12626C7.03281 7.0872 7.12606 7.02135 7.21863 6.9754C7.30984 6.92792 7.40377 6.90418 7.48137 6.91261C7.55896 6.91873 7.61954 6.9509 7.65153 6.98306C7.6842 7.01369 7.69441 7.03973 7.69305 7.04049Z" fill="#455A64"/>
<path d="M6.68488 13.2632L5.10439 11.7469L4.58301 11.8794C4.58301 11.8794 5.1323 13.1644 5.5298 13.6353C5.5298 13.6353 5.92254 14.2273 6.57053 13.9715C7.21784 13.7158 6.68488 13.2632 6.68488 13.2632Z" fill="#B78876"/>
<path d="M4.9854 10.0784H4.31359C4.21217 10.0784 4.12097 10.2108 4.15772 10.3196L4.83362 11.7998C4.85948 11.8573 4.91257 11.8933 4.96975 11.8933L5.78858 11.891C5.88251 11.8764 5.91654 11.7592 5.87775 11.6957L5.22568 10.2461C5.18075 10.1435 5.0875 10.0784 4.9854 10.0784Z" fill="#455A64"/>
<path d="M4.93989 10.1672H4.26808C4.18368 10.1672 4.12922 10.2668 4.16802 10.351L4.82758 11.7991C4.85344 11.8565 4.90654 11.8925 4.96371 11.8925H5.7737C5.82338 11.8925 5.85537 11.8343 5.83291 11.7846L5.18084 10.3349C5.13524 10.2331 5.04199 10.1672 4.93989 10.1672Z" fill="#263238"/>
<path d="M4.88262 10.7737L4.47355 10.9575L4.38574 11.3281L4.58245 11.8795L5.30463 11.9974L5.09295 11.7539L5.12017 11.5418C5.12017 11.5418 5.32165 11.4705 5.32641 11.4361C5.33118 11.4016 5.30123 11.2852 5.2706 11.2791C5.23997 11.2737 5.02828 11.3618 5.02828 11.3618C5.02828 11.3618 5.27877 11.139 5.27128 11.103C5.26447 11.067 5.23725 10.9758 5.18756 10.9651C5.13787 10.9552 4.73356 11.1688 4.73356 11.1688L4.66822 11.3373L4.61104 11.0685C4.6124 11.0708 4.97111 10.9575 4.88262 10.7737Z" fill="#B78876"/>
<path d="M4.93442 11.6428C4.93169 11.6436 4.92421 11.6267 4.9208 11.5969C4.91672 11.567 4.91876 11.5241 4.93306 11.4805C4.94735 11.4368 4.97117 11.4031 4.99091 11.3832C5.01133 11.3633 5.02631 11.3564 5.02767 11.3587C5.03175 11.3641 4.97866 11.4069 4.95279 11.4889C4.92489 11.5701 4.94054 11.6413 4.93442 11.6428Z" fill="#AA6550"/>
<path d="M4.73959 11.5624C4.73686 11.5609 4.75184 11.5172 4.75592 11.4422C4.75933 11.4047 4.76069 11.358 4.77634 11.3089C4.78451 11.2844 4.7954 11.2592 4.81378 11.2377C4.83216 11.2163 4.85598 11.2017 4.88048 11.1903C4.9785 11.1504 5.0663 11.1183 5.13097 11.0945C5.19563 11.0716 5.23579 11.0585 5.23647 11.0616C5.23715 11.0647 5.19903 11.083 5.13573 11.1098C5.07311 11.1374 4.98462 11.1726 4.88865 11.2117C4.86551 11.2224 4.84441 11.2354 4.82875 11.253C4.8131 11.2707 4.80221 11.2936 4.79472 11.3158C4.77906 11.361 4.77566 11.4062 4.7709 11.4437C4.76273 11.5203 4.74231 11.5647 4.73959 11.5624Z" fill="#AA6550"/>
<path d="M4.64561 11.4789C4.64024 11.4782 4.64091 11.4376 4.64829 11.3886C4.65568 11.3396 4.66574 11.3005 4.67111 11.302C4.67647 11.3028 4.6758 11.3434 4.66842 11.3924C4.66171 11.4414 4.65165 11.4805 4.64561 11.4789Z" fill="#AA6550"/>
<path d="M4.63477 10.4467C4.63477 10.4995 4.67288 10.5432 4.72053 10.5432C4.76749 10.5432 4.80629 10.5003 4.80629 10.4467C4.80629 10.3939 4.76817 10.3502 4.72053 10.3502C4.67356 10.3502 4.63477 10.3939 4.63477 10.4467Z" fill="#FAFAFA"/>
<path d="M2.28119 25.0431C2.49628 25.109 2.67189 25.2943 2.77671 25.5156C2.88153 25.7369 2.92101 25.9904 2.9285 26.2408C2.94211 26.7255 2.76378 27.2462 2.55345 27.6697C2.15118 27.3779 1.98987 26.7799 1.92521 26.4713C1.82311 25.9835 1.90138 25.0301 2.28119 25.0431Z" fill="#0000FF"/>
<path d="M3.06981 28.3896C2.97792 28.1292 3.03918 27.8176 3.19913 27.6031C3.35909 27.3887 3.60617 27.2685 3.85393 27.2494C3.96896 27.2402 4.09624 27.2578 4.17452 27.352C4.24803 27.44 4.25892 27.5786 4.22352 27.6927C4.18813 27.8068 4.11258 27.9003 4.0309 27.9784C3.75047 28.2479 3.43464 28.4501 3.06981 28.3896Z" fill="#0000FF"/>
<path d="M2.80182 29.9265C2.79978 29.9265 2.79978 29.8905 2.80182 29.8262C2.80387 29.7557 2.80727 29.6638 2.81067 29.5543C2.82156 29.3269 2.83109 29.0014 2.94408 28.6683C3.05503 28.3368 3.23677 28.0764 3.40012 27.9347C3.48112 27.8627 3.55395 27.816 3.60568 27.7892C3.63155 27.7747 3.65265 27.767 3.66694 27.7609C3.68124 27.7548 3.68872 27.7525 3.6894 27.754C3.69281 27.7617 3.57029 27.8076 3.41442 27.9546C3.25787 28.0978 3.08294 28.3551 2.97335 28.6814C2.8624 29.0068 2.84879 29.3284 2.83245 29.5559C2.82497 29.67 2.81952 29.7634 2.8134 29.827C2.80863 29.8913 2.80387 29.9265 2.80182 29.9265Z" fill="#263238"/>
<path d="M2.27834 25.7751C2.2797 25.7751 2.28311 25.7897 2.28855 25.8173C2.294 25.8487 2.30148 25.8892 2.31101 25.939C2.33007 26.0447 2.35526 26.1986 2.38589 26.3885C2.44647 26.7691 2.52338 27.2952 2.59621 27.8787C2.66904 28.4623 2.72485 28.9929 2.76025 29.3766C2.77795 29.5688 2.79156 29.7242 2.79905 29.8322C2.80245 29.8828 2.80517 29.9241 2.80721 29.9563C2.80858 29.9846 2.80926 29.9999 2.8079 29.9999C2.80653 29.9999 2.80449 29.9854 2.80109 29.957C2.79769 29.9249 2.79292 29.8843 2.78679 29.8338C2.77454 29.722 2.75821 29.568 2.73779 29.3796C2.69695 28.996 2.63773 28.4668 2.5649 27.8833C2.49139 27.2998 2.41856 26.773 2.36342 26.3924C2.3362 26.2047 2.31442 26.0516 2.29876 25.9413C2.29196 25.8908 2.28651 25.8502 2.28243 25.818C2.27834 25.7897 2.27698 25.7751 2.27834 25.7751Z" fill="#263238"/>
<path d="M2.48988 28.7808C2.334 28.2172 1.92084 27.7524 1.41988 27.5763C1.2926 27.5319 1.13128 27.515 1.0462 27.6307C0.961115 27.7471 1.00604 27.9224 1.07206 28.0534C1.34637 28.5986 1.9365 28.9179 2.48647 28.8207" fill="#0000FF"/>
<path d="M1.53716 28.0189C1.53784 28.0166 1.56643 28.0258 1.61747 28.0434C1.64334 28.0526 1.67465 28.0633 1.70936 28.0809C1.74408 28.0985 1.78628 28.1139 1.82848 28.1399C1.87136 28.1644 1.91901 28.1904 1.96665 28.2249C2.01634 28.2563 2.06535 28.2961 2.11708 28.339C2.2185 28.4263 2.32264 28.5335 2.41657 28.6622C2.50914 28.7916 2.58197 28.9279 2.6371 29.0573C2.66297 29.1231 2.68747 29.1852 2.70449 29.2464C2.72423 29.3062 2.73648 29.3644 2.74873 29.4172C2.76234 29.4693 2.76643 29.5183 2.77323 29.5604C2.78072 29.6025 2.78276 29.64 2.7848 29.6699C2.78889 29.7304 2.78957 29.7633 2.78753 29.7641C2.78072 29.7649 2.77528 29.6309 2.72763 29.4233C2.7147 29.372 2.70176 29.3154 2.68066 29.2564C2.66297 29.1967 2.63778 29.1354 2.61192 29.0711C2.5561 28.9447 2.48395 28.8115 2.39275 28.6844C2.30086 28.558 2.19876 28.4523 2.10006 28.365C2.04969 28.3229 2.00205 28.2823 1.95372 28.2502C1.90744 28.2149 1.86115 28.1881 1.81895 28.1621C1.64947 28.0641 1.53443 28.0266 1.53716 28.0189Z" fill="#263238"/>
</g>
<defs>
<clipPath id="clip0_7_1270">
<rect width="46.6667" height="30" fill="white" transform="translate(1)"/>
</clipPath>
</defs>
</svg>
