<svg width="24" height="24" viewBox="0 0 24 24" fill="none" xmlns="http://www.w3.org/2000/svg">
<path d="M15.7498 5.25002C15.7498 5.05111 15.8288 4.86035 15.9694 4.71969C16.1101 4.57904 16.3008 4.50002 16.4998 4.50002H20.9998C21.1987 4.50002 21.3894 4.57904 21.5301 4.71969C21.6707 4.86035 21.7498 5.05111 21.7498 5.25002C21.7498 5.44894 21.6707 5.6397 21.5301 5.78035C21.3894 5.92101 21.1987 6.00002 20.9998 6.00002H16.4998C16.3008 6.00002 16.1101 5.92101 15.9694 5.78035C15.8288 5.6397 15.7498 5.44894 15.7498 5.25002ZM21.1948 8.74971C21.9064 10.7653 21.9354 12.959 21.2774 14.9928C20.6194 17.0265 19.3109 18.7875 17.5534 20.0042C15.796 21.221 13.6872 21.8261 11.552 21.7263C9.41677 21.6264 7.37364 20.8272 5.73742 19.4517C4.1012 18.0762 2.96271 16.2009 2.49737 14.1146C2.03202 12.0283 2.26566 9.84688 3.16228 7.90647C4.05889 5.96606 5.56873 4.37434 7.45913 3.37659C9.34953 2.37883 11.5156 2.03041 13.6235 2.38502C13.8182 2.41945 13.9914 2.52936 14.1055 2.69085C14.2196 2.85233 14.2652 3.05232 14.2326 3.24732C14.2 3.44232 14.0917 3.61655 13.9313 3.73211C13.7709 3.84767 13.5713 3.89521 13.376 3.8644C12.193 3.66539 10.9808 3.72656 9.82389 4.04365C8.66694 4.36075 7.59297 4.92614 6.67674 5.70049C5.76052 6.47484 5.02403 7.43955 4.51854 8.52747C4.01305 9.61539 3.75071 10.8004 3.74976 12C3.74798 14.0196 4.49024 15.969 5.83476 17.476C6.67122 16.2638 7.8474 15.3261 9.21538 14.7806C8.48056 14.2019 7.94435 13.4085 7.68132 12.5109C7.4183 11.6132 7.44154 10.6559 7.74781 9.7721C8.05407 8.88827 8.62815 8.12185 9.39019 7.57942C10.1522 7.03699 11.0644 6.7455 11.9998 6.7455C12.9351 6.7455 13.8473 7.03699 14.6093 7.57942C15.3714 8.12185 15.9454 8.88827 16.2517 9.7721C16.558 10.6559 16.5812 11.6132 16.3182 12.5109C16.0552 13.4085 15.519 14.2019 14.7841 14.7806C16.1521 15.3261 17.3283 16.2638 18.1648 17.476C19.1445 16.3744 19.8112 15.0303 20.0955 13.5837C20.3797 12.1371 20.2711 10.6408 19.781 9.25034C19.7481 9.15745 19.7339 9.05899 19.7391 8.96059C19.7442 8.8622 19.7687 8.76578 19.8112 8.67685C19.8536 8.58793 19.9132 8.50823 19.9864 8.44231C20.0596 8.3764 20.1451 8.32555 20.238 8.29268C20.3309 8.25981 20.4294 8.24555 20.5278 8.25073C20.6262 8.25591 20.7226 8.28042 20.8115 8.32286C20.9004 8.3653 20.9801 8.42484 21.0461 8.49808C21.112 8.57132 21.1628 8.65682 21.1957 8.74971H21.1948ZM11.9998 14.25C12.5931 14.25 13.1731 14.0741 13.6665 13.7444C14.1598 13.4148 14.5443 12.9463 14.7714 12.3981C14.9985 11.8499 15.0579 11.2467 14.9421 10.6648C14.8264 10.0828 14.5406 9.54826 14.1211 9.1287C13.7015 8.70915 13.167 8.42342 12.585 8.30767C12.0031 8.19191 11.3999 8.25132 10.8517 8.47838C10.3035 8.70545 9.83499 9.08997 9.50535 9.58331C9.1757 10.0767 8.99976 10.6567 8.99976 11.25C8.99976 12.0457 9.31583 12.8087 9.87844 13.3713C10.441 13.934 11.2041 14.25 11.9998 14.25ZM11.9998 20.25C13.831 20.2519 15.6104 19.6414 17.0548 18.5156C16.5122 17.6671 15.7648 16.9688 14.8813 16.4851C13.9979 16.0014 13.0069 15.7478 11.9998 15.7478C10.9926 15.7478 10.0016 16.0014 9.11818 16.4851C8.23476 16.9688 7.48732 17.6671 6.94476 18.5156C8.38916 19.6414 10.1685 20.2519 11.9998 20.25Z" fill="#7F7F7F"/>
</svg>
