<svg width="33" height="24" viewBox="0 0 33 24" fill="none" xmlns="http://www.w3.org/2000/svg">
<g clip-path="url(#clip0_523_6664)">
<path fill-rule="evenodd" clip-rule="evenodd" d="M0.5 0H32.3V1.84615H0.5V0ZM0.5 3.69235H32.3V5.5385H0.5V3.69235ZM0.5 7.3847H32.3V9.23085H0.5V7.3847ZM0.5 11.0771H32.3V12.9232H0.5V11.0771ZM0.5 14.7694H32.3V16.6156H0.5V14.7694ZM0.5 18.4617H32.3V20.3079H0.5V18.4617ZM0.5 22.1541H32.3V24.0003H0.5V22.1541Z" fill="#BD3D44"/>
<path fill-rule="evenodd" clip-rule="evenodd" d="M0.5 1.84619H32.3V3.69239H0.5V1.84619ZM0.5 5.53854H32.3V7.38474H0.5V5.53854ZM0.5 9.23089H32.3V11.0771H0.5V9.23089ZM0.5 12.9232H32.3V14.7694H0.5V12.9232ZM0.5 16.6156H32.3V18.4617H0.5V16.6156ZM0.5 20.3079H32.3V22.1541H0.5V20.3079Z" fill="#F5EDE5"/>
<path fill-rule="evenodd" clip-rule="evenodd" d="M0.5 0H13.2199V12.923H0.5V0Z" fill="#192F5D"/>
<path fill-rule="evenodd" clip-rule="evenodd" d="M1.55958 0.553223L1.67534 1.06392H2.04983L1.74682 1.37967L1.86258 1.89042L1.55958 1.57472L1.25658 1.89042L1.37234 1.37967L1.06934 1.06392H1.44382L1.55958 0.553223ZM3.67956 0.553223L3.79532 1.06392H4.16987L3.86683 1.37967L3.98259 1.89042L3.67956 1.57472L3.37659 1.89042L3.49232 1.37967L3.18931 1.06392H3.56383L3.67956 0.553223ZM5.7996 0.553223L5.91537 1.06392H6.28988L5.98688 1.37967L6.10264 1.89042L5.79964 1.57472L5.49664 1.89042L5.61236 1.37967L5.30936 1.06392H5.68391L5.7996 0.553223ZM7.91958 0.553223L8.03527 1.06392H8.40975L8.10679 1.37967L8.22251 1.89042L7.91955 1.57472L7.61654 1.89042L7.7323 1.37967L7.42927 1.06392H7.80382L7.91958 0.553223ZM10.0396 0.553223L10.1553 1.06392H10.5298L10.2268 1.37967L10.3426 1.89042L10.0396 1.57472L9.73659 1.89042L9.85231 1.37967L9.54931 1.06392H9.92383L10.0396 0.553223ZM12.1596 0.553223L12.2754 1.06392H12.6499L12.3469 1.37967L12.4626 1.89042L12.1596 1.57472L11.8566 1.89042L11.9724 1.37967L11.6694 1.06392H12.0439L12.1596 0.553223ZM2.61964 1.84552L2.73533 2.35627H3.10988L2.80688 2.67192L2.92264 3.18272L2.61964 2.86707L2.31664 3.18272L2.43236 2.67197L2.12936 2.35627H2.50391L2.61964 1.84552ZM4.73955 1.84552L4.85531 2.35627H5.22979L4.92679 2.67192L5.04255 3.18272L4.73955 2.86707L4.43654 3.18272L4.5523 2.67197L4.24927 2.35627H4.62382L4.73955 1.84552ZM6.85959 1.84552L6.97532 2.35627H7.34987L7.04683 2.67192L7.16259 3.18272L6.85956 2.86707L6.55659 3.18272L6.67232 2.67197L6.36931 2.35627H6.74383L6.85959 1.84552ZM8.9796 1.84552L9.09536 2.35627H9.46988L9.16688 2.67192L9.28264 3.18272L8.97964 2.86707L8.6766 3.18272L8.7924 2.67197L8.48939 2.35627H8.86395L8.9796 1.84552ZM11.0996 1.84552L11.2153 2.35627H11.5898L11.2868 2.67192L11.4025 3.18272L11.0995 2.86707L10.7965 3.18272L10.9123 2.67197L10.6093 2.35627H10.9838L11.0996 1.84552ZM1.55958 3.13782L1.67534 3.64857H2.04983L1.74682 3.96427L1.86258 4.47507L1.55958 4.15942L1.25658 4.47507L1.37234 3.96432L1.06934 3.64862H1.44382L1.55958 3.13782ZM3.67956 3.13782L3.79532 3.64857H4.16987L3.86683 3.96427L3.98256 4.47507L3.67956 4.15937L3.37659 4.47507L3.49232 3.96432L3.18931 3.64862H3.56383L3.67956 3.13782ZM5.7996 3.13782L5.91537 3.64857H6.28988L5.98688 3.96427L6.10264 4.47502L5.79964 4.15937L5.49664 4.47502L5.61236 3.96427L5.30936 3.64857H5.68391L5.7996 3.13782ZM7.91958 3.13782L8.03527 3.64857H8.40975L8.10679 3.96427L8.22251 4.47507L7.91955 4.15942L7.61654 4.47507L7.7323 3.96432L7.42927 3.64862H7.80382L7.91958 3.13782ZM10.0396 3.13782L10.1553 3.64857H10.5298L10.2268 3.96427L10.3426 4.47502L10.0396 4.15937L9.73659 4.47502L9.85231 3.96427L9.54931 3.64857H9.92383L10.0396 3.13782ZM12.1596 3.13782L12.2754 3.64857H12.6499L12.3469 3.96427L12.4626 4.47502L12.1596 4.15937L11.8566 4.47502L11.9724 3.96427L11.6694 3.64857H12.0439L12.1596 3.13782ZM2.61964 4.43012L2.73533 4.94092H3.10988L2.80688 5.25657L2.92264 5.76737L2.61964 5.45172L2.31664 5.76737L2.43236 5.25657L2.12936 4.94092H2.50391L2.61964 4.43012ZM4.73955 4.43012L4.85531 4.94092H5.22979L4.92679 5.25657L5.04255 5.76737L4.73955 5.45172L4.43654 5.76737L4.5523 5.25657L4.24927 4.94092H4.62382L4.73955 4.43012ZM6.85959 4.43012L6.97532 4.94092H7.34987L7.04683 5.25657L7.16259 5.76737L6.85956 5.45172L6.55659 5.76737L6.67232 5.25657L6.36931 4.94092H6.74383L6.85959 4.43012ZM8.9796 4.43012L9.09536 4.94092H9.46988L9.16688 5.25657L9.28264 5.76737L8.97964 5.45172L8.6766 5.76737L8.79236 5.25657L8.48936 4.94092H8.86391L8.9796 4.43012ZM11.0996 4.43012L11.2153 4.94092H11.5898L11.2868 5.25657L11.4025 5.76737L11.0995 5.45172L10.7965 5.76737L10.9123 5.25657L10.6093 4.94092H10.9838L11.0996 4.43012ZM1.55958 5.72247L1.67534 6.23322H2.04983L1.74682 6.54892L1.86258 7.05967L1.55958 6.74402L1.25658 7.05967L1.37234 6.54892L1.06934 6.23322H1.44382L1.55958 5.72247ZM3.67956 5.72247L3.79532 6.23322H4.16987L3.86683 6.54892L3.98259 7.05967L3.67956 6.74402L3.37659 7.05967L3.49232 6.54892L3.18931 6.23322H3.56383L3.67956 5.72247ZM5.7996 5.72247L5.91537 6.23322H6.28988L5.98688 6.54892L6.10264 7.05967L5.79964 6.74402L5.49664 7.05967L5.61236 6.54892L5.30936 6.23322H5.68391L5.7996 5.72247ZM7.91958 5.72247L8.03527 6.23322H8.40975L8.10679 6.54892L8.22251 7.05967L7.91955 6.74402L7.61654 7.05967L7.7323 6.54892L7.42927 6.23322H7.80382L7.91958 5.72247ZM10.0396 5.72247L10.1553 6.23322H10.5298L10.2268 6.54892L10.3426 7.05967L10.0396 6.74402L9.73659 7.05967L9.85231 6.54892L9.54931 6.23322H9.92383L10.0396 5.72247ZM12.1596 5.72247L12.2754 6.23322H12.6499L12.3469 6.54892L12.4626 7.05967L12.1596 6.74402L11.8566 7.05967L11.9724 6.54892L11.6694 6.23322H12.0439L12.1596 5.72247ZM2.61964 7.01477L2.73533 7.52557H3.10988L2.80688 7.84122L2.92264 8.35202L2.61964 8.03637L2.31664 8.35202L2.43236 7.84122L2.12936 7.52557H2.50391L2.61964 7.01477ZM4.73955 7.01477L4.85531 7.52557H5.22979L4.92679 7.84122L5.04255 8.35202L4.73955 8.03637L4.43654 8.35202L4.5523 7.84122L4.24927 7.52557H4.62382L4.73955 7.01477ZM6.85959 7.01477L6.97532 7.52557H7.34987L7.04683 7.84122L7.16259 8.35202L6.85956 8.03637L6.55659 8.35202L6.67232 7.84122L6.36931 7.52557H6.74383L6.85959 7.01477ZM8.9796 7.01477L9.09536 7.52557H9.46988L9.16688 7.84122L9.28264 8.35202L8.97964 8.03637L8.6766 8.35202L8.79236 7.84122L8.48936 7.52557H8.86391L8.9796 7.01477ZM11.0996 7.01477L11.2153 7.52557H11.5898L11.2868 7.84122L11.4025 8.35202L11.0995 8.03637L10.7965 8.35202L10.9123 7.84122L10.6093 7.52557H10.9838L11.0996 7.01477ZM1.55958 8.30712L1.67534 8.81787H2.04983L1.74682 9.13357L1.86258 9.64432L1.55958 9.32867L1.25658 9.64432L1.37234 9.13357L1.06934 8.81787H1.44382L1.55958 8.30712ZM3.67956 8.30712L3.79532 8.81787H4.16987L3.86683 9.13357L3.98259 9.64432L3.67956 9.32867L3.37659 9.64432L3.49232 9.13357L3.18931 8.81787H3.56383L3.67956 8.30712ZM5.7996 8.30712L5.91537 8.81787H6.28988L5.98688 9.13357L6.10264 9.64432L5.79964 9.32867L5.49664 9.64432L5.61236 9.13357L5.30936 8.81787H5.68391L5.7996 8.30712ZM7.91958 8.30712L8.03527 8.81787H8.40975L8.10679 9.13357L8.22251 9.64432L7.91955 9.32867L7.61654 9.64432L7.7323 9.13357L7.42927 8.81787H7.80382L7.91958 8.30712ZM10.0396 8.30712L10.1553 8.81787H10.5298L10.2268 9.13357L10.3426 9.64432L10.0396 9.32867L9.73659 9.64432L9.85231 9.13357L9.54931 8.81787H9.92383L10.0396 8.30712ZM12.1596 8.30712L12.2754 8.81787H12.6499L12.3469 9.13357L12.4626 9.64432L12.1596 9.32867L11.8566 9.64432L11.9724 9.13357L11.6694 8.81787H12.0439L12.1596 8.30712ZM2.61964 9.59942L2.73533 10.1102H3.10988L2.80688 10.4259L2.92264 10.9367L2.61964 10.621L2.31664 10.9367L2.43236 10.4259L2.12936 10.1102H2.50391L2.61964 9.59942ZM4.73955 9.59942L4.85531 10.1102H5.22979L4.92679 10.4259L5.04255 10.9367L4.73955 10.621L4.43654 10.9367L4.5523 10.4259L4.24927 10.1102H4.62382L4.73955 9.59942ZM6.85959 9.59942L6.97532 10.1102H7.34987L7.04683 10.4259L7.16259 10.9367L6.85956 10.621L6.55659 10.9367L6.67232 10.4259L6.36931 10.1102H6.74383L6.85959 9.59942ZM8.9796 9.59942L9.09536 10.1102H9.46988L9.16688 10.4259L9.28264 10.9367L8.97964 10.621L8.6766 10.9367L8.79236 10.4259L8.48936 10.1102H8.86391L8.9796 9.59942ZM11.0996 9.59942L11.2153 10.1102H11.5898L11.2868 10.4259L11.4025 10.9367L11.0995 10.621L10.7965 10.9367L10.9123 10.4259L10.6093 10.1102H10.9838L11.0996 9.59942ZM1.55958 10.8918L1.67534 11.4025H2.04983L1.74682 11.7182L1.86258 12.229L1.55958 11.9133L1.25658 12.229L1.37234 11.7182L1.06934 11.4025H1.44382L1.55958 10.8918ZM3.67956 10.8918L3.79532 11.4025H4.16987L3.86683 11.7182L3.98259 12.229L3.67956 11.9133L3.37659 12.229L3.49232 11.7182L3.18931 11.4025H3.56383L3.67956 10.8918ZM5.7996 10.8918L5.91537 11.4025H6.28988L5.98688 11.7182L6.10264 12.229L5.79964 11.9133L5.49664 12.229L5.61236 11.7182L5.30936 11.4025H5.68391L5.7996 10.8918ZM7.91958 10.8918L8.03527 11.4025H8.40975L8.10679 11.7182L8.22251 12.229L7.91955 11.9133L7.61654 12.229L7.7323 11.7182L7.42927 11.4025H7.80382L7.91958 10.8918ZM10.0396 10.8918L10.1553 11.4025H10.5298L10.2268 11.7182L10.3426 12.229L10.0396 11.9133L9.73659 12.229L9.85231 11.7182L9.54931 11.4025H9.92383L10.0396 10.8918ZM12.1596 10.8918L12.2754 11.4025H12.6499L12.3469 11.7182L12.4626 12.229L12.1596 11.9133L11.8566 12.229L11.9724 11.7182L11.6694 11.4025H12.0439L12.1596 10.8918Z" fill="#F5EDE5"/>
</g>
<defs>
<clipPath id="clip0_523_6664">
<rect x="0.5" width="32" height="24" rx="2" fill="white"/>
</clipPath>
</defs>
</svg>
