<svg width="20" height="21" viewBox="0 0 20 21" fill="none" xmlns="http://www.w3.org/2000/svg">
<path d="M10 2.55811C8.42393 2.55811 6.88326 3.02546 5.5728 3.90108C4.26235 4.7767 3.24097 6.02125 2.63784 7.47735C2.0347 8.93345 1.87689 10.5357 2.18437 12.0815C2.49185 13.6273 3.2508 15.0472 4.36525 16.1616C5.4797 17.2761 6.89959 18.035 8.44538 18.3425C9.99116 18.65 11.5934 18.4922 13.0495 17.889C14.5056 17.2859 15.7502 16.2645 16.6258 14.9541C17.5014 13.6436 17.9688 12.1029 17.9688 10.5269C17.9663 8.41417 17.1259 6.38873 15.632 4.89484C14.1381 3.40095 12.1127 2.56059 10 2.55811ZM16.3727 7.55811H13.218C12.8419 6.10879 12.1561 4.75824 11.2078 3.59951C12.3233 3.7962 13.375 4.25861 14.274 4.94765C15.173 5.63668 15.8928 6.53208 16.3727 7.55811ZM17.0313 10.5269C17.0318 11.215 16.931 11.8994 16.732 12.5581H13.4227C13.6508 11.2135 13.6508 9.84016 13.4227 8.49561H16.732C16.931 9.15433 17.0318 9.83875 17.0313 10.5269ZM10 17.3886C9.54868 16.9282 9.15061 16.4185 8.81328 15.869C8.35807 15.1286 8.00439 14.3303 7.76172 13.4956H12.2383C11.9956 14.3303 11.6419 15.1286 11.1867 15.869C10.8494 16.4185 10.4513 16.9282 10 17.3886ZM7.53516 12.5581C7.27994 11.216 7.27994 9.83775 7.53516 8.49561H12.4648C12.7201 9.83775 12.7201 11.216 12.4648 12.5581H7.53516ZM2.96875 10.5269C2.96823 9.83875 3.06905 9.15433 3.26797 8.49561H6.57735C6.34922 9.84016 6.34922 11.2135 6.57735 12.5581H3.26797C3.06905 11.8994 2.96823 11.215 2.96875 10.5269ZM10 3.66514C10.4513 4.12553 10.8494 4.63525 11.1867 5.18467C11.6419 5.92516 11.9956 6.72344 12.2383 7.55811H7.76172C8.00439 6.72344 8.35807 5.92516 8.81328 5.18467C9.15061 4.63525 9.54868 4.12553 10 3.66514ZM8.79219 3.59951C7.84389 4.75824 7.15809 6.10879 6.78203 7.55811H3.62735C4.10717 6.53208 4.82702 5.63668 5.72601 4.94765C6.62501 4.25861 7.67672 3.7962 8.79219 3.59951ZM3.62735 13.4956H6.78203C7.15809 14.9449 7.84389 16.2955 8.79219 17.4542C7.67672 17.2575 6.62501 16.7951 5.72601 16.1061C4.82702 15.417 4.10717 14.5216 3.62735 13.4956ZM11.2055 17.4542C12.1546 16.2957 12.8412 14.9451 13.218 13.4956H16.3727C15.8928 14.5216 15.173 15.417 14.274 16.1061C13.375 16.7951 12.3233 17.2575 11.2078 17.4542H11.2055Z" fill="#1E1E1E"/>
</svg>
