<svg width="13" height="14" viewBox="0 0 13 14" fill="none" xmlns="http://www.w3.org/2000/svg">
<g clip-path="url(#clip0_161_153)">
<path d="M6.54026 4.00323C6.16945 4.00832 5.80848 4.12326 5.503 4.3335C5.19751 4.54374 4.96123 4.83984 4.82403 5.18437C4.68683 5.52889 4.65488 5.90637 4.73221 6.26906C4.80954 6.63174 4.99269 6.96335 5.25849 7.22195C5.52428 7.48055 5.8608 7.65453 6.22547 7.72188C6.59014 7.78923 6.9666 7.74692 7.30723 7.60032C7.64786 7.45372 7.93737 7.2094 8.13915 6.89826C8.34092 6.58712 8.4459 6.22313 8.44081 5.85232C8.43399 5.35509 8.22992 4.88093 7.87349 4.53416C7.51707 4.18739 7.03749 3.99641 6.54026 4.00323ZM6.58143 7.00295C6.35895 7.006 6.14055 6.94302 5.95387 6.82195C5.76719 6.70088 5.62059 6.52718 5.53263 6.3228C5.44467 6.11842 5.41929 5.89255 5.4597 5.67374C5.50011 5.45494 5.60449 5.25303 5.75965 5.09355C5.91481 4.93408 6.11378 4.82419 6.33139 4.77779C6.549 4.73139 6.77549 4.75056 6.9822 4.83288C7.18892 4.9152 7.36658 5.05697 7.49273 5.24026C7.61887 5.42355 7.68783 5.64013 7.69088 5.86262C7.69498 6.16096 7.58039 6.44871 7.37233 6.66256C7.16427 6.87641 6.87977 6.99886 6.58143 7.00295ZM6.50938 1.75345C5.41586 1.7697 4.37344 2.21904 3.61081 3.0029C2.84817 3.78676 2.42761 4.84112 2.44138 5.93467C2.46158 7.40641 3.16308 8.95693 4.47186 10.4189C5.06 11.0796 5.71987 11.6728 6.43929 12.1874C6.50294 12.2307 6.57838 12.2534 6.65536 12.2523C6.73233 12.2513 6.80712 12.2265 6.86956 12.1815C7.57327 11.6471 8.21535 11.0361 8.78396 10.3598C10.0502 8.86239 10.7108 7.29318 10.6906 5.82144C10.6744 4.72793 10.225 3.68551 9.44115 2.92287C8.65729 2.16024 7.60293 1.73968 6.50938 1.75345ZM6.6419 11.4088C5.85877 10.8101 3.22814 8.60772 3.19131 5.92438C3.17902 5.02936 3.52279 4.16611 4.14698 3.52455C4.77117 2.88299 5.62465 2.51566 6.51967 2.50337C7.41469 2.49109 8.27794 2.83485 8.9195 3.45904C9.56106 4.08323 9.92839 4.93672 9.94067 5.83174C9.97749 8.51414 7.40831 10.7888 6.6419 11.4088Z" fill="black"/>
</g>
<defs>
<clipPath id="clip0_161_153">
<rect width="12" height="12" fill="white" transform="translate(0.499512 1.08582) rotate(-0.786373)"/>
</clipPath>
</defs>
</svg>
