<svg width="32" height="32" viewBox="0 0 32 32" fill="none" xmlns="http://www.w3.org/2000/svg">
<path d="M1 4.32617V24.874C1 25.0938 1.1435 25.2878 1.35363 25.3522L11 28.3063V6.71254L1.64637 3.84804C1.325 3.74967 1 3.99004 1 4.32617Z" fill="#A4C9FF"/>
<path d="M30.3536 28.1085C30.675 28.2068 31 27.9665 31 27.6303V7.08247C31 6.86272 30.8565 6.66872 30.6464 6.60435C20.5314 3.5066 21.2166 3.69597 21 3.69597V25.2668C21.1166 25.2668 20.515 25.0953 30.3536 28.1085Z" fill="#A4C9FF"/>
<path d="M21 3.69592C20.7835 3.69592 21.503 3.49605 11 6.71255V28.3063C21.5355 25.0798 20.8835 25.2667 21 25.2667V3.69592Z" fill="#A4C9FF"/>
<path d="M4.10887 6.17096L2.82325 5.77721C2.6625 5.72809 2.5 5.84821 2.5 6.01634V23.9497C2.5 24.0596 2.57175 24.1566 2.67675 24.1887C10.6886 26.6423 9.064 26.14 11 26.7543V8.21258L4.10887 6.17096Z" fill="#F5F5F5"/>
<path d="M27.8911 25.7063L29.1768 26.0975C29.3375 26.1464 29.5 26.027 29.5 25.86V8.04114C29.5 7.77902 29.8092 7.95152 22.5 5.72739L21 5.25439V23.6776L27.8911 25.7063Z" fill="#F5F5F5"/>
<path d="M19.5 5.67839L21 5.25439V23.671L11 26.7544V8.21264L19.5 5.67839Z" fill="#F5F5F5"/>
<path d="M8.70824 9.42193C8.70824 9.17355 8.54774 8.95305 8.31036 8.87718L7.19074 8.5198C6.93374 8.4378 6.65436 8.54655 6.52049 8.7808C6.30736 9.15368 6.28036 9.2313 6.15536 9.32505C6.12686 9.34643 4.59386 10.4973 4.56486 10.5158C3.45499 11.2221 3.20836 11.2894 3.20836 11.6929C3.20836 12.7481 3.17449 12.8344 3.32436 13.0322C4.09886 14.0546 4.16686 14.2541 4.53424 14.2541C4.87286 14.2541 5.22111 14.1989 5.41074 14.5598C5.83186 15.3611 5.91086 15.6811 6.34549 15.6811C6.59936 15.6811 6.80749 15.8389 6.88686 16.0574L6.98811 16.3359C7.07024 16.5619 7.28499 16.7123 7.52549 16.7123C7.89799 16.7123 8.35224 16.7829 8.50299 16.3164C8.80186 15.3917 9.08524 15.8362 9.47236 15.5942C9.79274 15.3939 10.0294 15.1848 10.3719 15.3599C10.7915 15.5746 10.9487 15.6977 11.2249 15.6088C12.1086 15.3248 12.4437 15.3018 12.5144 14.8667C12.7041 13.6969 12.6946 13.7052 12.7311 13.6131L13.2124 12.3958C13.3261 12.1081 13.1904 11.7819 12.9059 11.6601C12.7425 11.5901 12.5542 11.5332 12.4516 11.2938L12.254 10.8326C12.1347 10.5544 11.8195 10.4173 11.5347 10.5198C11.3074 10.6017 11.0419 10.7432 10.7541 10.5301C10.0889 10.0373 9.94861 9.86317 9.62249 9.93305L9.39999 9.98068C9.04386 10.0573 8.70824 9.78605 8.70824 9.42193Z" fill="#0000FF"/>
<path d="M29.1768 26.0974C29.3376 26.1463 29.5001 26.0269 29.5001 25.8599V16.2729C29.4896 16.2497 29.4776 16.2271 29.4633 16.2059C28.6576 15.0142 28.9102 15.3263 28.2178 14.6628C28.0024 14.4564 27.6499 14.5096 27.5051 14.7704C27.3384 15.0702 27.1057 15.0046 26.1226 15.0046C25.9566 15.0046 26.0738 14.9637 24.0773 16.1193C23.6096 16.3901 23.2387 15.6817 22.8214 15.6817C22.4237 15.6817 22.0622 15.6182 21.9398 15.9968C21.6693 16.8337 21.7886 16.6421 21.3206 17.0551C21.1403 17.2141 20.8676 17.2056 20.6977 17.0356L20.0812 16.4191C19.8711 16.2089 19.5193 16.2533 19.3678 16.5089C18.9012 17.2964 19.1468 16.9902 18.3748 17.7236C18.2476 17.8444 18.2012 18.0276 18.2556 18.1944C18.8094 19.8956 18.6471 19.6673 19.2002 19.9132C19.5677 20.0764 19.4609 20.4488 19.4222 20.8502C19.3967 21.1136 19.1527 21.2998 18.8919 21.2548C17.9396 21.0906 18.4371 21.0606 16.7173 21.5006C16.3224 21.6016 16.3749 22.0074 16.3749 22.1643C16.3749 22.9207 14.9583 22.5057 14.9583 23.2621C14.9583 24.7432 14.7853 24.4257 16.1437 25.0479C16.3618 25.1478 16.0819 25.1879 20.9999 23.6716V23.6782C28.9354 26.0136 27.5131 25.5911 29.1768 26.0974Z" fill="#0000FF"/>
<path d="M7.80231 14.8095C8.25836 14.8095 8.62806 14.4398 8.62806 13.9837C8.62806 13.5277 8.25836 13.158 7.80231 13.158C7.34626 13.158 6.97656 13.5277 6.97656 13.9837C6.97656 14.4398 7.34626 14.8095 7.80231 14.8095Z" fill="#FFEA92"/>
<path d="M8.03295 15.8648L7.87132 15.2611C7.80732 15.0218 8.16932 14.9248 8.23357 15.1642L8.3952 15.768C8.45932 16.007 8.09732 16.1046 8.03295 15.8648Z" fill="#E0EBFC"/>
<path d="M11.5298 20.3734C11.5462 20.2844 11.6236 20.2198 11.714 20.2198C11.7156 20.2198 11.869 20.2451 11.9917 20.2451C12.0177 20.2451 12.0438 20.2443 12.0701 20.2428L12.9133 20.1931C13.1718 20.1931 13.1722 20.5533 12.935 20.5674C12.1331 20.6148 11.466 20.7216 11.5298 20.3734ZM13.9232 20.1848C13.8627 20.1006 13.8818 19.9837 13.9661 19.9232C14.1238 19.8098 14.141 19.7758 14.7671 19.0713C14.9311 18.8867 15.2122 19.1353 15.0473 19.3204C14.4676 19.9728 14.1222 20.4617 13.9232 20.1848ZM10.5703 19.8664C10.4463 19.6832 10.4338 19.6277 10.0575 18.7284C10.0176 18.6331 10.0627 18.5229 10.1581 18.4831C10.254 18.4432 10.3635 18.4883 10.4035 18.5837C10.7858 19.4972 10.7845 19.5139 10.881 19.6564C11.0192 19.8603 10.7098 20.0723 10.5703 19.8664ZM20.4366 18.6132C20.445 18.5171 20.5273 18.4418 20.6241 18.4418C20.6293 18.4418 20.6346 18.4421 20.6398 18.4424C21.0445 18.4773 20.9642 18.4776 21.78 18.3024C22.026 18.2501 22.0977 18.6177 21.8586 18.6692C21.443 18.7584 20.4006 19.0329 20.4366 18.6132ZM18.1908 18.6082C17.9455 18.5869 17.9751 18.2153 18.2228 18.2346L19.4312 18.3386C19.6671 18.3591 19.6523 18.7129 19.4156 18.7129C19.4022 18.7128 18.2041 18.6093 18.1908 18.6082ZM15.7305 18.2273C16.1962 18.0249 16.5176 18.0878 17.0146 18.1306C17.2592 18.1518 17.2313 18.5261 16.9826 18.5042C16.5401 18.4661 16.2645 18.4041 15.8798 18.5712C15.6522 18.6699 15.5042 18.3253 15.7305 18.2273ZM24.16 18.4491C23.594 18.3246 23.5812 18.2999 23.0445 18.4149C23.0313 18.4178 23.018 18.4192 23.0048 18.4192C22.7825 18.4192 22.7475 18.0954 22.9658 18.0483C23.5778 17.9173 23.657 17.9546 24.2403 18.0829C24.4797 18.1354 24.404 18.5039 24.16 18.4491ZM9.43471 17.8483C9.36809 17.8053 9.29746 17.7682 9.22459 17.7377C8.85446 17.5828 8.16059 17.0121 8.49109 16.8056C8.77259 16.6303 8.72884 17.1239 9.36909 17.3917C9.57934 17.4797 9.81796 17.6002 9.69384 17.7924C9.63796 17.8789 9.52221 17.9048 9.43471 17.8483Z" fill="#E0EBFC"/>
<path d="M27.5301 17.5271C27.4325 17.3464 27.207 17.2791 27.0262 17.3767L25.8712 18.0006L25.2473 16.8456C25.1497 16.6649 24.9242 16.5976 24.7435 16.6951C24.5628 16.7927 24.4955 17.0182 24.593 17.1989L25.2168 18.3539L24.0618 18.9778C23.8812 19.0754 23.8138 19.3009 23.9115 19.4817C24.0091 19.6623 24.2346 19.7297 24.4153 19.6321L25.5703 19.0082L26.1942 20.1632C26.2918 20.3438 26.5173 20.4112 26.6981 20.3137C26.8787 20.2161 26.9461 19.9906 26.8486 19.8098L26.2247 18.6548L27.3797 18.0309C27.5603 17.9333 27.6277 17.7077 27.5301 17.5271Z" fill="#FFD100"/>
<path d="M11 28.5564C10.9755 28.5564 10.9508 28.5528 10.9269 28.5454L1.28038 25.5912C0.963125 25.4939 0.75 25.2058 0.75 24.8741V4.32619C0.75 4.08582 0.860875 3.86607 1.05412 3.72319C1.24725 3.58032 1.48975 3.53869 1.71975 3.60907L11.0731 6.47369C11.1783 6.50582 11.25 6.60282 11.25 6.71269V28.3064C11.25 28.3857 11.2124 28.4603 11.1486 28.5074C11.1051 28.5396 11.0529 28.5564 11 28.5564ZM1.49925 4.07594C1.44663 4.07594 1.39512 4.09269 1.35137 4.12519C1.28688 4.17282 1.25 4.24607 1.25 4.32619V24.8741C1.25 24.9847 1.321 25.0807 1.42687 25.1132L10.75 27.9684V6.89757L1.57325 4.08707C1.54875 4.07969 1.52388 4.07594 1.49925 4.07594Z" fill="#3762CC"/>
<path d="M30.5021 28.3809C30.4282 28.3809 30.3536 28.3698 30.2802 28.3473C27.6452 27.5403 25.7592 26.9618 24.4076 26.5472C21.8414 25.7601 21.1441 25.5462 21.0165 25.5163C21.0115 25.5166 21.0061 25.5167 21 25.5167C20.862 25.5167 20.75 25.4047 20.75 25.2667V3.69593C20.75 3.55793 20.862 3.44593 21 3.44593L21.0142 3.44531C21.1665 3.43481 21.166 3.43493 25.154 4.65881C26.4977 5.07118 28.2996 5.62418 30.7196 6.36531C31.0369 6.46256 31.25 6.75068 31.25 7.08243V27.6303C31.25 27.8707 31.1391 28.0904 30.9459 28.2333C30.8142 28.3307 30.6599 28.3809 30.5021 28.3809ZM21.2499 25.0662C21.5837 25.1581 22.4001 25.4086 24.5541 26.0693C25.9057 26.4838 27.7917 27.0624 30.4266 27.8693C30.5032 27.8926 30.584 27.8788 30.6484 27.8313C30.7129 27.7837 30.7497 27.7104 30.7497 27.6303V7.08243C30.7497 6.97181 30.6787 6.87581 30.5729 6.84331C28.1527 6.10218 26.3509 5.54918 25.007 5.13681C22.6251 4.40581 21.6301 4.10043 21.2496 3.99318V25.0662H21.2499Z" fill="#3762CC"/>
<path d="M11 28.5565C10.9471 28.5565 10.8949 28.5397 10.8514 28.5075C10.7876 28.4603 10.75 28.3857 10.75 28.3065V6.71272C10.75 6.60285 10.8218 6.50585 10.9269 6.47372C13.4404 5.70385 15.3112 5.12985 16.706 4.70185C20.8365 3.43422 20.8364 3.4336 20.9872 3.44547L21 3.44597C21.138 3.44597 21.25 3.55797 21.25 3.69597V25.2667C21.25 25.4047 21.138 25.5167 21 25.5167C20.994 25.5167 20.9886 25.5166 20.9836 25.5163C20.848 25.5486 20.0994 25.7782 17.3584 26.619C15.9121 27.0626 13.8935 27.6816 11.0732 28.5453C11.0492 28.5528 11.0245 28.5565 11 28.5565ZM11.25 6.8976V27.9685C13.902 27.1562 15.8214 26.5675 17.2118 26.1411C19.5319 25.4296 20.4003 25.1632 20.75 25.067V3.99347C20.3609 4.1031 19.3321 4.41885 16.8526 5.17972C15.4906 5.59772 13.675 6.15485 11.25 6.8976Z" fill="#3762CC"/>
<path d="M11 27.0043C10.9746 27.0043 10.9491 27.0004 10.9244 26.9925L10.3088 26.7968C9.48238 26.5335 9.48238 26.5335 6.2045 25.5302L2.60363 24.4277C2.39213 24.3628 2.25 24.1707 2.25 23.9495V6.01629C2.25 5.85604 2.32387 5.70954 2.45275 5.61429C2.58162 5.51917 2.74337 5.49117 2.89637 5.53829L4.18113 5.93167L11.0711 7.97304C11.1771 8.00442 11.25 8.10192 11.25 8.21267V26.7543C11.25 26.834 11.212 26.9089 11.1476 26.956C11.1042 26.9877 11.0524 27.0043 11 27.0043ZM2.75 6.01617V23.9495L6.35087 25.052C9.63137 26.0562 9.63137 26.0562 10.4605 26.3203L10.75 26.4124V8.39929L4.03788 6.41067C4.03713 6.41054 4.0365 6.41029 4.03575 6.41004L2.75 6.01617Z" fill="#3762CC"/>
<path d="M29.2515 26.3587C29.2024 26.3587 29.1528 26.3514 29.104 26.3366L27.8191 25.9456L20.9294 23.9173C20.823 23.8861 20.75 23.7884 20.75 23.6776V5.25432C20.75 5.1747 20.788 5.09982 20.8521 5.0527C20.9164 5.00557 20.999 4.99182 21.0751 5.01595L22.5751 5.48895C24.2719 6.0052 25.5592 6.3927 26.5344 6.6862C28.0601 7.14545 28.826 7.37595 29.2118 7.51382C29.5571 7.6372 29.7658 7.73307 29.7506 8.02382L29.75 8.04107V25.8598C29.75 26.0191 29.6765 26.1648 29.5483 26.2598C29.4604 26.3251 29.357 26.3587 29.2515 26.3587ZM21.25 23.4906L27.9618 25.4664C27.9625 25.4666 27.9632 25.4668 27.9639 25.4671L29.2496 25.8583L29.25 8.06482C29.0234 7.95757 28.1834 7.7047 26.3904 7.16507C25.4148 6.87145 24.127 6.48382 22.4272 5.96657L21.25 5.5952V23.4906Z" fill="#3762CC"/>
<path d="M11.0001 27.0044C10.9474 27.0044 10.8952 26.9876 10.8516 26.9555C10.7877 26.9084 10.75 26.8336 10.75 26.7544V8.21273C10.75 8.10223 10.8226 8.00473 10.9286 7.97311L19.4286 5.43873C19.4297 5.43836 19.4309 5.43811 19.432 5.43773L20.932 5.01373C21.0071 4.99261 21.0884 5.00773 21.1508 5.05498C21.2133 5.10223 21.2499 5.17611 21.2499 5.25436V23.671C21.2499 23.7806 21.1784 23.8776 21.0735 23.9099L11.0735 26.9932C11.0496 27.0006 11.0249 27.0044 11.0001 27.0044ZM11.2501 8.39898V26.4156L20.7501 23.4865V5.58473L19.5698 5.91836L11.2501 8.39898Z" fill="#3762CC"/>
<g clip-path="url(#clip0_225_194)">
<path d="M16 29.293L12.8715 26.164C13.6833 25.1708 14.0822 23.9036 13.9859 22.6245C13.8896 21.3454 13.3053 20.1523 12.354 19.2918C11.4027 18.4314 10.1571 17.9694 8.87474 18.0016C7.59241 18.0337 6.37149 18.5574 5.46447 19.4645C4.55744 20.3715 4.03371 21.5924 4.00157 22.8747C3.96943 24.1571 4.43136 25.4027 5.29181 26.354C6.15226 27.3053 7.34542 27.8896 8.62452 27.9859C9.90362 28.0822 11.1708 27.6833 12.164 26.8715L15.293 30L16 29.293Z" fill="#455A64"/>
</g>
<defs>
<clipPath id="clip0_225_194">
<rect width="12" height="12" fill="white" transform="translate(4 18)"/>
</clipPath>
</defs>
</svg>
