<svg width="40" height="40" viewBox="0 0 40 40" fill="none" xmlns="http://www.w3.org/2000/svg">
<rect width="40" height="40" rx="20" fill="#F5F5F5"/>
<path d="M30.2236 16.7188C30.224 16.649 30.2146 16.5796 30.1955 16.5125L28.8502 11.8062C28.7598 11.494 28.5708 11.2193 28.3114 11.0233C28.052 10.8273 27.7362 10.7205 27.4111 10.7188H13.5361C13.211 10.7205 12.8952 10.8273 12.6359 11.0233C12.3765 11.2193 12.1875 11.494 12.0971 11.8062L10.7527 16.5125C10.7333 16.5795 10.7235 16.649 10.7236 16.7188V18.2188C10.7236 18.8009 10.8592 19.3751 11.1195 19.8958C11.3799 20.4165 11.7579 20.8694 12.2236 21.2188V27.9688C12.2236 28.1677 12.3027 28.3584 12.4433 28.4991C12.584 28.6397 12.7747 28.7188 12.9736 28.7188H27.9736C28.1725 28.7188 28.3633 28.6397 28.504 28.4991C28.6446 28.3584 28.7236 28.1677 28.7236 27.9688V21.2188C29.1894 20.8694 29.5674 20.4165 29.8277 19.8958C30.0881 19.3751 30.2236 18.8009 30.2236 18.2188V16.7188ZM13.5361 12.2188H27.4111L28.4818 15.9688H12.4683L13.5361 12.2188ZM18.2236 17.4688H22.7236V18.2188C22.7236 18.8155 22.4866 19.3878 22.0646 19.8097C21.6427 20.2317 21.0704 20.4688 20.4736 20.4688C19.8769 20.4688 19.3046 20.2317 18.8826 19.8097C18.4607 19.3878 18.2236 18.8155 18.2236 18.2188V17.4688ZM16.7236 17.4688V18.2188C16.7235 18.6057 16.6236 18.986 16.4336 19.323C16.2435 19.6601 15.9698 19.9424 15.6388 20.1428C15.3078 20.3431 14.9308 20.4548 14.544 20.4669C14.1573 20.479 13.774 20.3911 13.4311 20.2119C13.379 20.1713 13.3216 20.1378 13.2605 20.1125C12.9428 19.9091 12.6813 19.629 12.5001 19.2981C12.3189 18.9672 12.2238 18.596 12.2236 18.2188V17.4688H16.7236ZM27.2236 27.2188H13.7236V21.8937C13.9705 21.9435 14.2218 21.9686 14.4736 21.9688C15.0558 21.9688 15.63 21.8332 16.1507 21.5729C16.6714 21.3125 17.1243 20.9345 17.4736 20.4688C17.8229 20.9345 18.2759 21.3125 18.7966 21.5729C19.3173 21.8332 19.8915 21.9688 20.4736 21.9688C21.0558 21.9688 21.63 21.8332 22.1507 21.5729C22.6714 21.3125 23.1243 20.9345 23.4736 20.4688C23.8229 20.9345 24.2759 21.3125 24.7966 21.5729C25.3173 21.8332 25.8915 21.9688 26.4736 21.9688C26.7255 21.9686 26.9767 21.9435 27.2236 21.8937V27.2188ZM27.6858 20.1125C27.6256 20.1379 27.5688 20.171 27.5171 20.2109C27.1742 20.3904 26.7909 20.4784 26.4041 20.4664C26.0174 20.4545 25.6402 20.343 25.3091 20.1427C24.978 19.9424 24.7041 19.6601 24.514 19.3231C24.3239 18.9861 24.2238 18.6057 24.2236 18.2188V17.4688H28.7236V18.2188C28.7233 18.5961 28.6281 18.9673 28.4468 19.2983C28.2654 19.6292 28.0037 19.9092 27.6858 20.1125Z" fill="black"/>
</svg>
