<svg width="32" height="32" viewBox="0 0 32 32" fill="none" xmlns="http://www.w3.org/2000/svg">
<circle cx="16" cy="16" r="16" fill="#F5F5F5"/>
<path d="M20.8994 24C20.4344 26.279 18.4144 28 16.0004 28C13.5864 28 11.5654 26.279 11.1014 24H20.8994ZM24.5004 11C26.4304 11 28.0004 9.43 28.0004 7.5C28.0004 5.57 26.4304 4 24.5004 4C22.5704 4 21.0004 5.57 21.0004 7.5C21.0004 9.43 22.5704 11 24.5004 11ZM24.9234 12.988C24.8404 12.991 24.7594 13 24.6754 13C21.5424 13 18.9944 10.533 18.9944 7.5C18.9944 6.596 19.2254 5.744 19.6264 4.991C18.4054 4.356 17.0174 4 15.5604 4C11.5314 4 8.04341 6.709 7.16941 10.516L5.19141 16.707C4.35141 19.335 6.38141 22 9.22341 22H22.2764C25.2024 22 27.2404 19.188 26.2444 16.525L24.9234 12.988Z" fill="#0000FF"/>
</svg>
