<svg width="40" height="40" viewBox="0 0 40 40" fill="none" xmlns="http://www.w3.org/2000/svg">
<circle cx="20" cy="20" r="20" fill="#0000FF"/>
<path d="M14.9182 20.387L9.44947 25.8557C9.39866 25.9065 9.33834 25.9468 9.27196 25.9743C9.20557 26.0018 9.13442 26.016 9.06256 26.016C8.9907 26.016 8.91955 26.0018 8.85316 25.9743C8.78678 25.9468 8.72646 25.9065 8.67565 25.8557C8.62484 25.8049 8.58453 25.7446 8.55703 25.6782C8.52953 25.6118 8.51538 25.5407 8.51538 25.4688C8.51538 25.397 8.52953 25.3258 8.55703 25.2594C8.58453 25.193 8.62484 25.1327 8.67565 25.0819L13.7582 20.0001L8.67565 14.9182C8.57303 14.8156 8.51538 14.6764 8.51538 14.5313C8.51538 14.3862 8.57303 14.247 8.67565 14.1444C8.77826 14.0418 8.91744 13.9841 9.06256 13.9841C9.20768 13.9841 9.34686 14.0418 9.44947 14.1444L14.9182 19.6131C14.9691 19.6639 15.0094 19.7242 15.0369 19.7906C15.0645 19.857 15.0786 19.9282 15.0786 20.0001C15.0786 20.0719 15.0645 20.1431 15.0369 20.2095C15.0094 20.2759 14.9691 20.3362 14.9182 20.387Z" fill="white"/>
<path d="M23.4661 20.4975L16.4349 27.5287C16.3695 27.5941 16.292 27.6459 16.2066 27.6812C16.1213 27.7166 16.0298 27.7348 15.9374 27.7348C15.845 27.7348 15.7535 27.7166 15.6682 27.6812C15.5828 27.6459 15.5053 27.5941 15.4399 27.5287C15.3746 27.4634 15.3228 27.3859 15.2874 27.3005C15.2521 27.2151 15.2339 27.1237 15.2339 27.0313C15.2339 26.9389 15.2521 26.8474 15.2874 26.7621C15.3228 26.6767 15.3746 26.5991 15.4399 26.5338L21.9746 20L15.4399 13.4662C15.308 13.3343 15.2339 13.1554 15.2339 12.9688C15.2339 12.7822 15.308 12.6032 15.4399 12.4713C15.5719 12.3394 15.7508 12.2653 15.9374 12.2653C16.124 12.2653 16.3029 12.3394 16.4349 12.4713L23.4661 19.5026C23.5315 19.5679 23.5834 19.6454 23.6187 19.7308C23.6541 19.8161 23.6723 19.9076 23.6723 20C23.6723 20.0924 23.6541 20.1839 23.6187 20.2693C23.5834 20.3546 23.5315 20.4322 23.4661 20.4975Z" fill="white"/>
<path d="M31.2883 20.6633L21.9133 30.0383C21.8262 30.1254 21.7228 30.1945 21.609 30.2417C21.4952 30.2888 21.3732 30.3131 21.25 30.3131C21.1269 30.3131 21.0049 30.2888 20.8911 30.2417C20.7773 30.1945 20.6739 30.1254 20.5868 30.0383C20.4996 29.9512 20.4306 29.8478 20.3834 29.734C20.3363 29.6202 20.312 29.4982 20.312 29.375C20.312 29.2519 20.3363 29.1299 20.3834 29.0161C20.4306 28.9023 20.4996 28.7989 20.5868 28.7118L29.2996 20L20.5868 11.2883C20.4108 11.1124 20.312 10.8738 20.312 10.625C20.312 10.3763 20.4108 10.1377 20.5868 9.96175C20.7627 9.78584 21.0013 9.68701 21.25 9.68701C21.4988 9.68701 21.7374 9.78584 21.9133 9.96175L31.2883 19.3368C31.3755 19.4238 31.4446 19.5272 31.4918 19.641C31.539 19.7548 31.5633 19.8768 31.5633 20C31.5633 20.1232 31.539 20.2452 31.4918 20.359C31.4446 20.4728 31.3755 20.5762 31.2883 20.6633Z" fill="white"/>
</svg>
