<svg width="80" height="80" viewBox="0 0 80 80" fill="none" xmlns="http://www.w3.org/2000/svg">
<g clip-path="url(#clip0_123_1393)">
<path d="M79.5645 17.2493C79.5573 17.1328 79.5345 17.0169 79.4961 16.9069C79.4818 16.8639 79.4707 16.8229 79.4525 16.7812C79.3874 16.6361 79.2969 16.5039 79.1855 16.3906L63.1855 0.390625C63.0723 0.278646 62.9395 0.188151 62.7936 0.123698C62.7539 0.105469 62.7135 0.094401 62.6725 0.0800782C62.5592 0.0410157 62.4421 0.0175782 62.3229 0.0104167C62.3001 0.014974 62.276 0 62.248 0H22.248C18.5684 0.0045573 15.5859 2.98633 15.5814 6.66667V16.4798C6.41536 20.5221 0.5 29.5951 0.5 39.6133C0.5 49.6315 6.41536 58.7044 15.5814 62.7467V73.3333C15.5859 77.0137 18.5684 79.9954 22.248 80H72.9147C76.5951 79.9954 79.5775 77.0137 79.5814 73.3333V17.3333C79.5814 17.304 79.5671 17.2786 79.5645 17.2493ZM75.0293 16H64.9147C64.1784 16 63.5814 15.403 63.5814 14.6667V4.55208L75.0293 16ZM3.19466 39.6133C3.18685 33.599 5.57227 27.8294 9.82487 23.5768C14.0775 19.3242 19.8477 16.9388 25.8613 16.9466C26.6191 16.9466 27.3711 16.9837 28.1133 17.056C38.4232 18.0749 46.7207 25.972 48.248 36.2188C48.4251 37.3418 48.5182 38.4766 48.5267 39.6133C48.5365 43.8835 47.3294 48.0677 45.0482 51.6771C43.2389 54.5612 40.8008 56.9987 37.916 58.8066C30.931 63.1934 22.1146 63.4395 14.8958 59.4486C7.67708 55.4583 3.19596 47.8613 3.19466 39.6133ZM41.347 59.6426C41.5293 59.5013 41.7096 59.3613 41.888 59.2161C42.5462 58.6862 43.1764 58.123 43.7773 57.5293C44.3711 56.9284 44.9342 56.2988 45.4642 55.6413C45.6094 55.4629 45.7494 55.2812 45.8906 55.099C46.0521 54.888 46.2272 54.6882 46.3815 54.4733L57.748 65.8535C58.5007 66.599 58.9245 67.6146 58.9245 68.6738C58.9245 69.7337 58.5007 70.7487 57.748 71.4948C56.1738 73.0163 53.6771 73.0163 52.1029 71.4948L40.7214 60.1335C40.9362 59.9772 41.1374 59.804 41.347 59.6426ZM72.9147 77.3333H22.248C20.0391 77.3333 18.248 75.5423 18.248 73.3333V63.7878C18.3307 63.8145 18.4173 63.832 18.5013 63.8574C18.7148 63.9225 18.931 63.9746 19.1471 64.0345C19.6458 64.168 20.1484 64.3014 20.6562 64.401C20.9056 64.4531 21.1549 64.5013 21.4069 64.5456C21.9147 64.6348 22.4271 64.7051 22.9414 64.7643C23.1712 64.7904 23.3978 64.8229 23.6283 64.8425C24.3672 64.9056 25.1107 64.9466 25.8613 64.9466C30.2689 64.9499 34.5996 63.7962 38.4206 61.6003L50.2096 73.3776C51.8639 75.1882 54.3796 75.9447 56.7578 75.3457C59.1367 74.7474 60.9948 72.8913 61.5951 70.513C62.196 68.1348 61.4421 65.6185 59.6322 63.9629L47.8483 52.1719C50.0443 48.3509 51.1986 44.0202 51.1947 39.6133C51.1947 38.7689 51.1543 37.931 51.0723 37.1003C50.5033 31.2747 47.9245 25.8294 43.7786 21.6986C39.0371 16.9316 32.5853 14.2604 25.8613 14.2799C25.1107 14.2799 24.3672 14.3216 23.6283 14.3841C23.3978 14.4043 23.1693 14.4362 22.9401 14.4629C22.4271 14.5202 21.9173 14.5931 21.4095 14.6816C21.1562 14.7259 20.9036 14.7741 20.6523 14.8268C20.151 14.931 19.6536 15.0534 19.1602 15.1895C18.9388 15.2493 18.7174 15.3027 18.4935 15.3691C18.4108 15.3945 18.3268 15.4121 18.2441 15.4388V6.66667C18.2441 4.45768 20.0352 2.66667 22.2441 2.66667H60.9147V14.6667C60.9147 16.8757 62.7057 18.6667 64.9147 18.6667H76.9147V73.3333C76.9147 75.5423 75.1244 77.3333 72.9147 77.3333Z" fill="#0000FF"/>
<path d="M55.5815 9.33333C55.5815 8.59701 54.9845 8 54.2482 8H24.9149C24.1785 8 23.5815 8.59701 23.5815 9.33333C23.5815 10.0697 24.1785 10.6667 24.9149 10.6667H54.2482C54.9845 10.6667 55.5815 10.0697 55.5815 9.33333Z" fill="#0000FF"/>
<path d="M70.2479 32H54.2479C53.5116 32 52.9146 32.597 52.9146 33.3333C52.9146 34.0697 53.5116 34.6667 54.2479 34.6667H70.2479C70.9842 34.6667 71.5812 34.0697 71.5812 33.3333C71.5812 32.597 70.9842 32 70.2479 32Z" fill="#0000FF"/>
<path d="M70.2479 40H54.2479C53.5116 40 52.9146 40.597 52.9146 41.3333C52.9146 42.0697 53.5116 42.6667 54.2479 42.6667H70.2479C70.9842 42.6667 71.5812 42.0697 71.5812 41.3333C71.5812 40.597 70.9842 40 70.2479 40Z" fill="#0000FF"/>
<path d="M71.5815 49.3333C71.5815 48.597 70.9845 48 70.2482 48H52.9149C52.1785 48 51.5815 48.597 51.5815 49.3333C51.5815 50.0697 52.1785 50.6667 52.9149 50.6667H70.2482C70.9845 50.6667 71.5815 50.0697 71.5815 49.3333Z" fill="#0000FF"/>
<path d="M71.5812 57.3333C71.5812 56.597 70.9842 56 70.2479 56H58.2479C57.5116 56 56.9146 56.597 56.9146 57.3333C56.9146 58.0697 57.5116 58.6667 58.2479 58.6667H70.2479C70.9842 58.6667 71.5812 58.0697 71.5812 57.3333Z" fill="#0000FF"/>
<path d="M55.5814 17.3333C55.5814 16.597 54.9844 16 54.248 16H43.5814C42.8451 16 42.248 16.597 42.248 17.3333C42.248 18.0697 42.8451 18.6667 43.5814 18.6667H54.248C54.9844 18.6667 55.5814 18.0697 55.5814 17.3333Z" fill="#0000FF"/>
<path d="M71.5812 25.3333C71.5812 24.597 70.9842 24 70.2479 24H50.2479C49.5116 24 48.9146 24.597 48.9146 25.3333C48.9146 26.0697 49.5116 26.6667 50.2479 26.6667H70.2479C70.9842 26.6667 71.5812 26.0697 71.5812 25.3333Z" fill="#0000FF"/>
<path d="M20.9149 33.3333H30.2482C30.9845 33.3333 31.5815 32.7363 31.5815 32C31.5815 31.2636 30.9845 30.6666 30.2482 30.6666H20.9149C20.1785 30.6666 19.5815 31.2636 19.5815 32C19.5815 32.7363 20.1785 33.3333 20.9149 33.3333Z" fill="#0000FF"/>
<path d="M36.9147 40C36.9147 39.2636 36.3177 38.6666 35.5814 38.6666H15.5814C14.8451 38.6666 14.248 39.2636 14.248 40C14.248 40.7363 14.8451 41.3333 15.5814 41.3333H35.5814C36.3177 41.3333 36.9147 40.7363 36.9147 40Z" fill="#0000FF"/>
<path d="M30.2482 46.6666H20.9149C20.1785 46.6666 19.5815 47.2636 19.5815 48C19.5815 48.7363 20.1785 49.3333 20.9149 49.3333H30.2482C30.9845 49.3333 31.5815 48.7363 31.5815 48C31.5815 47.2636 30.9845 46.6666 30.2482 46.6666Z" fill="#0000FF"/>
<path d="M35.3524 57.1999C38.6044 55.4681 41.301 52.8522 43.1311 49.6549C43.2365 49.4707 43.3511 49.2923 43.4501 49.1055C43.5015 49.0091 43.5419 48.9095 43.5914 48.8131C43.7938 48.4238 43.9911 48.0345 44.1656 47.6361C44.3407 47.2376 44.4781 46.8587 44.6207 46.4668C44.6617 46.3535 44.7138 46.2428 44.7541 46.1282C48.1448 36.2682 43.3921 25.457 33.8349 21.2897C24.2769 17.1224 13.1213 20.9974 8.20465 30.192C6.65712 33.0885 5.85113 36.3236 5.85894 39.6081C5.84657 46.6549 9.54774 53.1868 15.5992 56.7975C21.6506 60.4088 29.1565 60.5644 35.3524 57.2077V57.1999ZM17.5523 54.8242C16.1011 54.0332 14.7717 53.0371 13.6044 51.8665C12.7945 51.0573 12.066 50.1712 11.4286 49.22C11.1135 48.7487 10.8238 48.265 10.5575 47.7682C6.54449 40.1907 8.67079 30.8177 15.5608 25.7142C22.4507 20.6107 32.0367 21.3086 38.1155 27.3561C43.4989 32.7904 44.7099 41.1002 41.1018 47.845V47.8561C39.5119 50.8307 37.0744 53.2663 34.0992 54.8548C28.9377 57.6588 22.7053 57.6491 17.5523 54.8294V54.8242Z" fill="#0000FF"/>
<path d="M72.9149 64C72.1785 64 71.5815 64.597 71.5815 65.3333V70.6667C71.5815 71.403 70.9845 72 70.2482 72H64.9149C64.1785 72 63.5815 72.597 63.5815 73.3333C63.5815 74.0697 64.1785 74.6667 64.9149 74.6667H70.2482C72.4578 74.6667 74.2482 72.8757 74.2482 70.6667V65.3333C74.2482 64.597 73.6512 64 72.9149 64Z" fill="#0000FF"/>
</g>
<defs>
<clipPath id="clip0_123_1393">
<rect width="80" height="80" fill="white"/>
</clipPath>
</defs>
</svg>
