<svg width="48" height="48" viewBox="0 0 48 48" fill="none" xmlns="http://www.w3.org/2000/svg">
<path d="M40 35.2979C39.7885 37.008 39.6951 37.7489 38.9053 39.416L26.7793 41.9199C27.058 40.1184 27.4293 38.7291 28.0332 37.8955L40 35.2979ZM23.1084 23.5039L26.7324 22.7178V11.2666C28.0827 9.75092 28.9131 9.07027 30.543 8.20996V21.8906L40 19.8379C39.7885 21.5479 39.6951 22.289 38.9053 23.9561L30.543 25.7236V29.5693L40 27.5684C39.7885 29.2785 39.6951 30.0194 38.9053 31.6865L30.543 33.4131V33.4492L26.7324 34.2373V26.5293L23.1084 27.2949V32.1533L23.0469 32.165C22.2134 33.6265 21.0364 35.3825 19.9023 36.7842L8 39.0498C8.10673 37.5184 8.32995 36.6559 9.02246 35.1133L19.2988 32.8857V28.1006L9.77441 30.1152C9.88114 28.5838 10.1034 27.7213 10.7959 26.1787L19.2988 24.332V9.13672C20.649 7.62107 21.4787 6.94035 23.1084 6.08008V23.5039Z" fill="black"/>
</svg>
