<svg width="20" height="20" viewBox="0 0 20 20" fill="none" xmlns="http://www.w3.org/2000/svg">
<path d="M19.1923 5.80779L16.6923 3.30779C16.575 3.19052 16.4159 3.12463 16.2501 3.12463C16.0842 3.12463 15.9252 3.19052 15.8079 3.30779C15.6906 3.42507 15.6247 3.58413 15.6247 3.74998C15.6247 3.91583 15.6906 4.07489 15.8079 4.19217L17.2415 5.62498H16.2501C12.3962 5.62498 11.4805 7.82186 10.6735 9.75936C9.94071 11.518 9.35164 12.9305 6.80789 13.1062C6.64827 12.3484 6.21295 11.6769 5.58634 11.2218C4.95974 10.7668 4.18648 10.5606 3.41648 10.6432C2.64648 10.7259 1.9346 11.0915 1.41885 11.6692C0.903097 12.2469 0.620221 12.9955 0.625061 13.7699C0.629901 14.5443 0.922112 15.2893 1.44504 15.8605C1.96797 16.4317 2.68437 16.7884 3.45534 16.8614C4.22631 16.9345 4.99694 16.7186 5.61781 16.2557C6.23868 15.7929 6.66556 15.116 6.81571 14.3562C10.1954 14.1492 11.061 12.0789 11.8266 10.2398C12.6102 8.35936 13.229 6.87498 16.2501 6.87498H17.2415L15.8079 8.30779C15.6906 8.42507 15.6247 8.58413 15.6247 8.74998C15.6247 8.91583 15.6906 9.07489 15.8079 9.19217C15.9252 9.30944 16.0842 9.37533 16.2501 9.37533C16.4159 9.37533 16.575 9.30944 16.6923 9.19217L19.1923 6.69217C19.2504 6.63412 19.2965 6.56519 19.3279 6.48932C19.3594 6.41345 19.3756 6.33212 19.3756 6.24998C19.3756 6.16785 19.3594 6.08652 19.3279 6.01064C19.2965 5.93477 19.2504 5.86584 19.1923 5.80779ZM3.75008 15.625C3.37924 15.625 3.01673 15.515 2.70839 15.309C2.40004 15.103 2.15972 14.8101 2.01781 14.4675C1.87589 14.1249 1.83876 13.7479 1.91111 13.3842C1.98346 13.0205 2.16203 12.6864 2.42426 12.4242C2.68648 12.1619 3.02057 11.9834 3.38429 11.911C3.748 11.8387 4.125 11.8758 4.46761 12.0177C4.81022 12.1596 5.10306 12.3999 5.30909 12.7083C5.51511 13.0166 5.62508 13.3791 5.62508 13.75C5.62508 14.2473 5.42754 14.7242 5.07591 15.0758C4.72428 15.4274 4.24736 15.625 3.75008 15.625Z" fill="black"/>
</svg>
